  0
SECTION
  2
HEADER
  9
$ACADVER
  1
AC1024
  9
$ACADMAINTVER
 70
     6
  9
$DWGCODEPAGE
  3
ANSI_1252
  9
$INSBASE
 10
0.0
 20
0.0
 30
0.0
  9
$EXTMIN
 10
1.000000000000000E+20
 20
1.000000000000000E+20
 30
1.000000000000000E+20
  9
$EXTMAX
 10
-1.000000000000000E+20
 20
-1.000000000000000E+20
 30
-1.000000000000000E+20
  9
$LIMMIN
 10
0.0
 20
0.0
  9
$LIMMAX
 10
12.0
 20
9.0
  9
$ORTHOMODE
 70
     0
  9
$REGENMODE
 70
     1
  9
$FILLMODE
 70
     1
  9
$QTEXTMODE
 70
     0
  9
$MIRRTEXT
 70
     1
  9
$LTSCALE
 40
1.0
  9
$ATTMODE
 70
     1
  9
$TEXTSIZE
 40
0.2
  9
$TRACEWID
 40
0.05
  9
$TEXTSTYLE
  7
Standard
  9
$CLAYER
  8
0
  9
$CELTYPE
  6
ByLayer
  9
$CECOLOR
 62
   256
  9
$CELTSCALE
 40
1.0
  9
$DISPSILH
 70
     0
  9
$DIMSCALE
 40
1.0
  9
$DIMASZ
 40
0.18
  9
$DIMEXO
 40
0.0625
  9
$DIMDLI
 40
0.38
  9
$DIMRND
 40
0.0
  9
$DIMDLE
 40
0.0
  9
$DIMEXE
 40
0.18
  9
$DIMTP
 40
0.0
  9
$DIMTM
 40
0.0
  9
$DIMTXT
 40
0.18
  9
$DIMCEN
 40
0.09
  9
$DIMTSZ
 40
0.0
  9
$DIMTOL
 70
     0
  9
$DIMLIM
 70
     0
  9
$DIMTIH
 70
     1
  9
$DIMTOH
 70
     1
  9
$DIMSE1
 70
     0
  9
$DIMSE2
 70
     0
  9
$DIMTAD
 70
     0
  9
$DIMZIN
 70
     0
  9
$DIMBLK
  1

  9
$DIMASO
 70
     1
  9
$DIMSHO
 70
     1
  9
$DIMPOST
  1

  9
$DIMAPOST
  1

  9
$DIMALT
 70
     0
  9
$DIMALTD
 70
     2
  9
$DIMALTF
 40
25.4
  9
$DIMLFAC
 40
1.0
  9
$DIMTOFL
 70
     0
  9
$DIMTVP
 40
0.0
  9
$DIMTIX
 70
     0
  9
$DIMSOXD
 70
     0
  9
$DIMSAH
 70
     0
  9
$DIMBLK1
  1

  9
$DIMBLK2
  1

  9
$DIMSTYLE
  2
Standard
  9
$DIMCLRD
 70
     0
  9
$DIMCLRE
 70
     0
  9
$DIMCLRT
 70
     0
  9
$DIMTFAC
 40
1.0
  9
$DIMGAP
 40
0.09
  9
$DIMJUST
 70
     0
  9
$DIMSD1
 70
     0
  9
$DIMSD2
 70
     0
  9
$DIMTOLJ
 70
     1
  9
$DIMTZIN
 70
     0
  9
$DIMALTZ
 70
     0
  9
$DIMALTTZ
 70
     0
  9
$DIMUPT
 70
     0
  9
$DIMDEC
 70
     4
  9
$DIMTDEC
 70
     4
  9
$DIMALTU
 70
     2
  9
$DIMALTTD
 70
     2
  9
$DIMTXSTY
  7
Standard
  9
$DIMAUNIT
 70
     0
  9
$DIMADEC
 70
     0
  9
$DIMALTRND
 40
0.0
  9
$DIMAZIN
 70
     0
  9
$DIMDSEP
 70
    46
  9
$DIMATFIT
 70
     3
  9
$DIMFRAC
 70
     0
  9
$DIMLDRBLK
  1

  9
$DIMLUNIT
 70
     2
  9
$DIMLWD
 70
    -2
  9
$DIMLWE
 70
    -2
  9
$DIMTMOVE
 70
     0
  9
$DIMFXL
 40
1.0
  9
$DIMFXLON
 70
     0
  9
$DIMJOGANG
 40
0.7853981633974483
  9
$DIMTFILL
 70
     0
  9
$DIMTFILLCLR
 70
     0
  9
$DIMARCSYM
 70
     0
  9
$DIMLTYPE
  6

  9
$DIMLTEX1
  6

  9
$DIMLTEX2
  6

  9
$DIMTXTDIRECTION
 70
     0
  9
$LUNITS
 70
     2
  9
$LUPREC
 70
     4
  9
$SKETCHINC
 40
0.1
  9
$FILLETRAD
 40
0.5
  9
$AUNITS
 70
     0
  9
$AUPREC
 70
     0
  9
$MENU
  1
.
  9
$ELEVATION
 40
0.0
  9
$PELEVATION
 40
0.0
  9
$THICKNESS
 40
0.0
  9
$LIMCHECK
 70
     0
  9
$CHAMFERA
 40
0.5
  9
$CHAMFERB
 40
0.5
  9
$CHAMFERC
 40
1.0
  9
$CHAMFERD
 40
0.0
  9
$SKPOLY
 70
     0
  9
$TDCREATE
 40
2460657.756803114
  9
$TDUCREATE
 40
2460657.715136447
  9
$TDUPDATE
 40
2460657.756803634
  9
$TDUUPDATE
 40
2460657.715136968
  9
$TDINDWG
 40
0.0000000116
  9
$TDUSRTIMER
 40
0.0000000116
  9
$USRTIMER
 70
     1
  9
$ANGBASE
 50
0.0
  9
$ANGDIR
 70
     0
  9
$PDMODE
 70
     0
  9
$PDSIZE
 40
0.0
  9
$PLINEWID
 40
0.0
  9
$SPLFRAME
 70
     0
  9
$SPLINETYPE
 70
     6
  9
$SPLINESEGS
 70
     8
  9
$HANDSEED
  5
B1
  9
$SURFTAB1
 70
     6
  9
$SURFTAB2
 70
     6
  9
$SURFTYPE
 70
     6
  9
$SURFU
 70
     6
  9
$SURFV
 70
     6
  9
$UCSBASE
  2

  9
$UCSNAME
  2

  9
$UCSORG
 10
0.0
 20
0.0
 30
0.0
  9
$UCSXDIR
 10
1.0
 20
0.0
 30
0.0
  9
$UCSYDIR
 10
0.0
 20
1.0
 30
0.0
  9
$UCSORTHOREF
  2

  9
$UCSORTHOVIEW
 70
     0
  9
$UCSORGTOP
 10
0.0
 20
0.0
 30
0.0
  9
$UCSORGBOTTOM
 10
0.0
 20
0.0
 30
0.0
  9
$UCSORGLEFT
 10
0.0
 20
0.0
 30
0.0
  9
$UCSORGRIGHT
 10
0.0
 20
0.0
 30
0.0
  9
$UCSORGFRONT
 10
0.0
 20
0.0
 30
0.0
  9
$UCSORGBACK
 10
0.0
 20
0.0
 30
0.0
  9
$PUCSBASE
  2

  9
$PUCSNAME
  2

  9
$PUCSORG
 10
0.0
 20
0.0
 30
0.0
  9
$PUCSXDIR
 10
1.0
 20
0.0
 30
0.0
  9
$PUCSYDIR
 10
0.0
 20
1.0
 30
0.0
  9
$PUCSORTHOREF
  2

  9
$PUCSORTHOVIEW
 70
     0
  9
$PUCSORGTOP
 10
0.0
 20
0.0
 30
0.0
  9
$PUCSORGBOTTOM
 10
0.0
 20
0.0
 30
0.0
  9
$PUCSORGLEFT
 10
0.0
 20
0.0
 30
0.0
  9
$PUCSORGRIGHT
 10
0.0
 20
0.0
 30
0.0
  9
$PUCSORGFRONT
 10
0.0
 20
0.0
 30
0.0
  9
$PUCSORGBACK
 10
0.0
 20
0.0
 30
0.0
  9
$USERI1
 70
     0
  9
$USERI2
 70
     0
  9
$USERI3
 70
     0
  9
$USERI4
 70
     0
  9
$USERI5
 70
     0
  9
$USERR1
 40
0.0
  9
$USERR2
 40
0.0
  9
$USERR3
 40
0.0
  9
$USERR4
 40
0.0
  9
$USERR5
 40
0.0
  9
$WORLDVIEW
 70
     1
  9
$SHADEDGE
 70
     3
  9
$SHADEDIF
 70
    70
  9
$TILEMODE
 70
     1
  9
$MAXACTVP
 70
    64
  9
$PINSBASE
 10
0.0
 20
0.0
 30
0.0
  9
$PLIMCHECK
 70
     0
  9
$PEXTMIN
 10
1.000000000000000E+20
 20
1.000000000000000E+20
 30
1.000000000000000E+20
  9
$PEXTMAX
 10
-1.000000000000000E+20
 20
-1.000000000000000E+20
 30
-1.000000000000000E+20
  9
$PLIMMIN
 10
0.0
 20
0.0
  9
$PLIMMAX
 10
12.0
 20
9.0
  9
$UNITMODE
 70
     0
  9
$VISRETAIN
 70
     1
  9
$PLINEGEN
 70
     0
  9
$PSLTSCALE
 70
     1
  9
$TREEDEPTH
 70
  3020
  9
$CMLSTYLE
  2
Standard
  9
$CMLJUST
 70
     0
  9
$CMLSCALE
 40
1.0
  9
$PROXYGRAPHICS
 70
     1
  9
$MEASUREMENT
 70
     0
  9
$CELWEIGHT
370
    -1
  9
$ENDCAPS
280
     0
  9
$JOINSTYLE
280
     0
  9
$LWDISPLAY
290
     1
  9
$INSUNITS
 70
     1
  9
$HYPERLINKBASE
  1

  9
$STYLESHEET
  1

  9
$XEDIT
290
     1
  9
$CEPSNTYPE
380
     0
  9
$PSTYLEMODE
290
     1
  9
$FINGERPRINTGUID
  2
{ED9D6027-2655-487C-A4D6-40FAB1946E5A}
  9
$VERSIONGUID
  2
{FAEB1C32-E019-11D5-929B-00C0DF256EC4}
  9
$EXTNAMES
290
     1
  9
$PSVPSCALE
 40
0.0
  9
$OLESTARTUP
290
     0
  9
$SORTENTS
280
   127
  9
$INDEXCTL
280
     0
  9
$HIDETEXT
280
     1
  9
$XCLIPFRAME
280
     2
  9
$HALOGAP
280
     0
  9
$OBSCOLOR
 70
   257
  9
$OBSLTYPE
280
     0
  9
$INTERSECTIONDISPLAY
280
     0
  9
$INTERSECTIONCOLOR
 70
   257
  9
$DIMASSOC
280
     2
  9
$PROJECTNAME
  1

  9
$CAMERADISPLAY
290
     0
  9
$LENSLENGTH
 40
50.0
  9
$CAMERAHEIGHT
 40
0.0
  9
$STEPSPERSEC
 40
2.0
  9
$STEPSIZE
 40
6.0
  9
$3DDWFPREC
 40
2.0
  9
$PSOLWIDTH
 40
0.25
  9
$PSOLHEIGHT
 40
4.0
  9
$LOFTANG1
 40
1.570796326794897
  9
$LOFTANG2
 40
1.570796326794897
  9
$LOFTMAG1
 40
0.0
  9
$LOFTMAG2
 40
0.0
  9
$LOFTPARAM
 70
     7
  9
$LOFTNORMALS
280
     1
  9
$LATITUDE
 40
37.795
  9
$LONGITUDE
 40
-122.394
  9
$NORTHDIRECTION
 40
0.0
  9
$TIMEZONE
 70
 -8000
  9
$LIGHTGLYPHDISPLAY
280
     1
  9
$TILEMODELIGHTSYNCH
280
     1
  9
$CMATERIAL
347
3C
  9
$SOLIDHIST
280
     1
  9
$SHOWHIST
280
     1
  9
$DWFFRAME
280
     2
  9
$DGNFRAME
280
     2
  9
$REALWORLDSCALE
290
     1
  9
$INTERFERECOLOR
 62
   256
  9
$CSHADOW
280
     0
  9
$SHADOWPLANELOCATION
 40
0.0
  0
ENDSEC
  0
SECTION
  2
CLASSES
  0
CLASS
  1
ACDBDICTIONARYWDFLT
  2
AcDbDictionaryWithDefault
  3
ObjectDBX Classes
 90
        0
 91
        4
280
     0
281
     0
  0
CLASS
  1
VISUALSTYLE
  2
AcDbVisualStyle
  3
ObjectDBX Classes
 90
     4095
 91
        4
280
     0
281
     0
  0
CLASS
  1
MATERIAL
  2
AcDbMaterial
  3
ObjectDBX Classes
 90
     1153
 91
        4
280
     0
281
     0
  0
CLASS
  1
SUN
  2
AcDbSun
  3
SCENEOE
 90
     1024
 91
        4
280
     0
281
     0
  0
CLASS
  1
IMAGEDEF
  2
AcDbRasterImageDef
  3
ISM
 90
        0
 91
        4
280
     0
281
     0
  0
CLASS
  1
RASTERVARIABLES
  2
AcDbRasterVariables
  3
ISM
 90
        0
 91
        4
280
     0
281
     0
  0
CLASS
  1
IMAGE
  2
AcDbRasterImage
  3
ISM
 90
      127
 91
        5
280
     0
281
     1
  0
CLASS
  1
IMAGEDEF_REACTOR
  2
AcDbRasterImageDefReactor
  3
ISM
 90
        1
 91
        4
280
     0
281
     0
  0
ENDSEC
  0
SECTION
  2
TABLES
  0
TABLE
  2
VPORT
  5
8
330
0
100
AcDbSymbolTable
 70
     1
  0
VPORT
  5
29
330
8
100
AcDbSymbolTableRecord
100
AcDbViewportTableRecord
  2
*Active
 70
     0
 10
0.0
 20
0.0
 11
1.0
 21
1.0
 12
0.0
 22
0.0
 13
0.0
 23
0.0
 14
0.5
 24
0.5
 15
0.5
 25
0.5
 16
0.0
 26
0.0
 36
1.0
 17
104.9999999737534
 27
-148.4999999628701
 37
0.0
 40
296.9999999257402
 41
0.7070707070707533
 42
50.0
 43
0.0
 44
0.0
 50
0.0
 51
0.0
 71
     0
 72
   100
 73
     1
 74
     3
 75
     0
 76
     0
 77
     0
 78
     0
281
     0
 65
     1
110
0.0
120
0.0
130
0.0
111
1.0
121
0.0
131
0.0
112
0.0
122
1.0
132
0.0
 79
     0
146
0.0
 60
     3
 61
     5
292
     1
282
     1
141
0.0
142
0.0
 63
   250
361
3F
  0
ENDTAB
  0
TABLE
  2
LTYPE
  5
5
330
0
100
AcDbSymbolTable
 70
     1
  0
LTYPE
  5
14
330
5
100
AcDbSymbolTableRecord
100
AcDbLinetypeTableRecord
  2
ByBlock
 70
     0
  3

 72
    65
 73
     0
 40
0.0
  0
LTYPE
  5
15
330
5
100
AcDbSymbolTableRecord
100
AcDbLinetypeTableRecord
  2
ByLayer
 70
     0
  3

 72
    65
 73
     0
 40
0.0
  0
LTYPE
  5
16
330
5
100
AcDbSymbolTableRecord
100
AcDbLinetypeTableRecord
  2
Continuous
 70
     0
  3
Solid line
 72
    65
 73
     0
 40
0.0
  0
ENDTAB
  0
TABLE
  2
LAYER
  5
2
330
0
100
AcDbSymbolTable
 70
     2
  0
LAYER
  5
10
330
2
100
AcDbSymbolTableRecord
100
AcDbLayerTableRecord
  2
0
 70
     0
 62
     7
  6
Continuous
370
    -3
390
F
347
3E
  0
LAYER
  5
40
330
2
100
AcDbSymbolTableRecord
100
AcDbLayerTableRecord
  2
Capa 1
 70
     0
 62
     7
  6
Continuous
370
    -3
390
F
347
3E
  0
ENDTAB
  0
TABLE
  2
STYLE
  5
3
330
0
100
AcDbSymbolTable
 70
     1
  0
STYLE
  5
11
330
3
100
AcDbSymbolTableRecord
100
AcDbTextStyleTableRecord
  2
Standard
 70
     0
 40
0.0
 41
1.0
 50
0.0
 71
     0
 42
0.2
  3
txt
  4

  0
ENDTAB
  0
TABLE
  2
VIEW
  5
6
330
0
100
AcDbSymbolTable
 70
     0
  0
ENDTAB
  0
TABLE
  2
UCS
  5
7
330
0
100
AcDbSymbolTable
 70
     0
  0
ENDTAB
  0
TABLE
  2
APPID
  5
9
330
0
100
AcDbSymbolTable
 70
     1
  0
APPID
  5
12
330
9
100
AcDbSymbolTableRecord
100
AcDbRegAppTableRecord
  2
ACAD
 70
     0
  0
ENDTAB
  0
TABLE
  2
DIMSTYLE
  5
A
330
0
100
AcDbSymbolTable
 70
     1
100
AcDbDimStyleTable
  0
DIMSTYLE
105
27
330
A
100
AcDbSymbolTableRecord
100
AcDbDimStyleTableRecord
  2
Standard
 70
     0
178
     0
340
11
  0
ENDTAB
  0
TABLE
  2
BLOCK_RECORD
  5
1
330
0
100
AcDbSymbolTable
 70
     2
  0
BLOCK_RECORD
  5
1F
330
1
100
AcDbSymbolTableRecord
100
AcDbBlockTableRecord
  2
*Model_Space
340
22
 70
     0
280
     1
281
     0
  0
BLOCK_RECORD
  5
1B
330
1
100
AcDbSymbolTableRecord
100
AcDbBlockTableRecord
  2
*Paper_Space
340
1E
 70
     0
280
     1
281
     0
  0
BLOCK_RECORD
  5
23
330
1
100
AcDbSymbolTableRecord
100
AcDbBlockTableRecord
  2
*Paper_Space0
340
26
 70
     0
280
     1
281
     0
  0
BLOCK_RECORD
  5
7A
330
1
100
AcDbSymbolTableRecord
100
AcDbBlockTableRecord
  2
block 2
340
0
102
{BLKREFS
331
7B
102
}
 70
     0
280
     1
281
     0
  0
ENDTAB
  0
ENDSEC
  0
SECTION
  2
BLOCKS
  0
BLOCK
  5
20
330
1F
100
AcDbEntity
  8
0
100
AcDbBlockBegin
  2
*Model_Space
 70
     0
 10
0.0
 20
0.0
 30
0.0
  3
*Model_Space
  1

  0
ENDBLK
  5
21
330
1F
100
AcDbEntity
  8
0
100
AcDbBlockEnd
  0
BLOCK
  5
1C
330
1B
100
AcDbEntity
 67
     1
  8
0
100
AcDbBlockBegin
  2
*Paper_Space
 70
     0
 10
0.0
 20
0.0
 30
0.0
  3
*Paper_Space
  1

  0
ENDBLK
  5
1D
330
1B
100
AcDbEntity
 67
     1
  8
0
100
AcDbBlockEnd
  0
BLOCK
  5
24
330
23
100
AcDbEntity
  8
0
100
AcDbBlockBegin
  2
*Paper_Space0
 70
     0
 10
0.0
 20
0.0
 30
0.0
  3
*Paper_Space0
  1

  0
ENDBLK
  5
25
330
23
100
AcDbEntity
  8
0
100
AcDbBlockEnd
  0
BLOCK
  5
7C
330
7A
100
AcDbEntity
  8
0
100
AcDbBlockBegin
  2
block 2
 70
     0
 10
0.0
 20
0.0
 30
0.0
  3
block 2
  1

  0
SPLINE
  5
7E
330
7A
100
AcDbEntity
  8
Capa 1
 62
   250
420
  2103317
370
     9
100
AcDbSpline
210
0.0
220
0.0
230
1.0
 70
    11
 71
     3
 72
   113
 73
   109
 74
     0
 42
0.0000000001
 43
0.0000000001
 12
1.0
 22
0.0
 32
0.0
 13
1.0
 23
0.0
 33
0.0
 40
0.0
 40
0.0
 40
0.0
 40
0.0
 40
1.0
 40
1.0
 40
1.0
 40
2.0
 40
2.0
 40
2.0
 40
3.0
 40
3.0
 40
3.0
 40
4.0
 40
4.0
 40
4.0
 40
5.0
 40
5.0
 40
5.0
 40
6.0
 40
6.0
 40
6.0
 40
7.0
 40
7.0
 40
7.0
 40
8.0
 40
8.0
 40
8.0
 40
9.0
 40
9.0
 40
9.0
 40
10.0
 40
10.0
 40
10.0
 40
11.0
 40
11.0
 40
11.0
 40
12.0
 40
12.0
 40
12.0
 40
13.0
 40
13.0
 40
13.0
 40
14.0
 40
14.0
 40
14.0
 40
15.0
 40
15.0
 40
15.0
 40
16.0
 40
16.0
 40
16.0
 40
17.0
 40
17.0
 40
17.0
 40
18.0
 40
18.0
 40
18.0
 40
19.0
 40
19.0
 40
19.0
 40
20.0
 40
20.0
 40
20.0
 40
21.0
 40
21.0
 40
21.0
 40
22.0
 40
22.0
 40
22.0
 40
23.0
 40
23.0
 40
23.0
 40
24.0
 40
24.0
 40
24.0
 40
25.0
 40
25.0
 40
25.0
 40
26.0
 40
26.0
 40
26.0
 40
27.0
 40
27.0
 40
27.0
 40
28.0
 40
28.0
 40
28.0
 40
29.0
 40
29.0
 40
29.0
 40
30.0
 40
30.0
 40
30.0
 40
31.0
 40
31.0
 40
31.0
 40
32.0
 40
32.0
 40
32.0
 40
33.0
 40
33.0
 40
33.0
 40
34.0
 40
34.0
 40
34.0
 40
35.0
 40
35.0
 40
35.0
 40
36.0
 40
36.0
 40
36.0
 40
36.0
 10
116.0318481985271
 20
-145.2851195622175
 30
0.0
 10
115.6058021940784
 20
-145.270757840299
 30
0.0
 10
115.190748430636
 20
-145.2575008662204
 30
0.0
 10
114.779395572458
 20
-145.2446305538851
 30
0.0
 10
113.4117177466892
 20
-146.5095115931526
 30
0.0
 10
112.0470779774805
 20
-147.7763811785325
 30
0.0
 10
110.6948666214696
 20
-149.054905853623
 30
0.0
 10
112.0062023074049
 20
-149.0670580798616
 30
0.0
 10
113.2340742940364
 20
-149.0868883035877
 30
0.0
 10
114.2451947544851
 20
-149.1180421926722
 30
0.0
 10
172.9702204414698
 20
-150.9280610535277
 30
0.0
 10
173.4395173238498
 20
-159.1737332181984
 30
0.0
 10
173.4395173238498
 20
-159.1737332181984
 30
0.0
 10
166.0821176598328
 20
-171.3075654053193
 30
0.0
 10
89.37417234749476
 20
-169.2293690063329
 30
0.0
 10
89.37417234749476
 20
-169.2293690063329
 30
0.0
 10
89.37417234749476
 20
-169.2293690063329
 30
0.0
 10
83.0726354314405
 20
-174.8605449331498
 30
0.0
 10
83.0726354314405
 20
-174.8605449331498
 30
0.0
 10
145.1495765393989
 20
-178.7487601929916
 30
0.0
 10
173.0372786353509
 20
-168.1567693285953
 30
0.0
 10
173.0372786353509
 20
-168.1567693285953
 30
0.0
 10
173.0372786353509
 20
-168.1567693285953
 30
0.0
 10
172.9032174849816
 20
-170.1679075337012
 30
0.0
 10
172.9032174849816
 20
-170.1679075337012
 30
0.0
 10
146.6244149056353
 20
-180.4917208599659
 30
0.0
 10
79.72072001046743
 20
-176.8716831382544
 30
0.0
 10
79.72072001046743
 20
-176.8716831382544
 30
0.0
 10
79.72072001046743
 20
-176.8716831382544
 30
0.0
 10
75.56438244988769
 20
-181.296198236965
 30
0.0
 10
75.56438244988769
 20
-181.296198236965
 30
0.0
 10
135.8983628908717
 20
-186.5251354752836
 30
0.0
 10
172.0987401079826
 20
-175.6650223101488
 30
0.0
 10
172.0987401079826
 20
-175.6650223101488
 30
0.0
 10
172.0987401079826
 20
-175.6650223101488
 30
0.0
 10
171.9646789576133
 20
-177.4079829771238
 30
0.0
 10
171.9646789576133
 20
-177.4079829771238
 30
0.0
 10
147.1607147445035
 20
-186.9273189263895
 30
0.0
 10
86.82673430352169
 20
-184.5139972701758
 30
0.0
 10
86.82673430352169
 20
-184.5139972701758
 30
0.0
 10
84.9497124861771
 20
-202.4801247283645
 30
0.0
 10
88.4356338201271
 20
-224.2003510586303
 30
0.0
 10
88.4356338201271
 20
-224.2003510586303
 30
0.0
 10
84.01117395880912
 20
-219.9098971102889
 30
0.0
 10
85.35189593728524
 20
-184.5139972701758
 30
0.0
 10
85.35189593728524
 20
-184.5139972701758
 30
0.0
 10
85.35189593728524
 20
-184.5139972701758
 30
0.0
 10
78.7822367204918
 20
-184.3799361198078
 30
0.0
 10
78.7822367204918
 20
-184.3799361198078
 30
0.0
 10
78.24593688162398
 20
-219.641774809551
 30
0.0
 10
84.27929625954735
 20
-224.0662346708706
 30
0.0
 10
84.27929625954735
 20
-224.0662346708706
 30
0.0
 10
75.96662113838785
 20
-220.3121357987885
 30
0.0
 10
77.57552065499357
 20
-183.9776974313083
 30
0.0
 10
77.57552065499357
 20
-183.9776974313083
 30
0.0
 10
77.57552065499357
 20
-183.9776974313083
 30
0.0
 10
71.94434472817672
 20
-183.8435810435467
 30
0.0
 10
71.94434472817672
 20
-183.8435810435467
 30
0.0
 10
70.7992183547514
 20
-218.4526242347063
 30
0.0
 10
76.53297011850083
 20
-222.1467905364732
 30
0.0
 10
77.12108263106069
 20
-222.4338040252737
 30
0.0
 10
68.46814517521751
 20
-219.4943462103205
 30
0.0
 10
70.335445211571
 20
-185.4525357975447
 30
0.0
 10
70.335445211571
 20
-185.4525357975447
 30
0.0
 10
70.335445211571
 20
-185.4525357975447
 30
0.0
 10
64.7042692847548
 20
-191.6870145197185
 30
0.0
 10
64.7042692847548
 20
-191.6870145197185
 30
0.0
 10
63.89984714514747
 20
-211.4631608387602
 30
0.0
 10
67.38582371649045
 20
-217.7646977548151
 30
0.0
 10
67.38582371649045
 20
-217.7646977548151
 30
0.0
 10
63.29648911239915
 20
-218.0328752929447
 30
0.0
 10
63.16242796202924
 20
-192.223314358586
 30
0.0
 10
63.16242796202924
 20
-192.223314358586
 30
0.0
 10
63.16242796202924
 20
-192.223314358586
 30
0.0
 10
56.52571055135692
 20
-199.999689640878
 30
0.0
 10
56.52571055135692
 20
-199.999689640878
 30
0.0
 10
56.59271350784442
 20
-203.016424567232
 30
0.0
 10
59.14015155181876
 20
-211.9994606776289
 30
0.0
 10
59.14015155181876
 20
-211.9994606776289
 30
0.0
 10
59.14015155181876
 20
-211.9994606776289
 30
0.0
 10
58.53679351907044
 20
-212.2675829783675
 30
0.0
 10
58.53679351907044
 20
-212.2675829783675
 30
0.0
 10
58.53679351907044
 20
-212.2675829783675
 30
0.0
 10
54.91675579735917
 20
-202.0108278459839
 30
0.0
 10
54.91675579735917
 20
-202.0108278459839
 30
0.0
 10
54.91675579735917
 20
-202.0108278459839
 30
0.0
 10
48.51827725835599
 20
-208.9211912965931
 30
0.0
 10
48.51827725835599
 20
-208.9211912965931
 30
0.0
 10
48.51827725835599
 20
-208.9211912965931
 30
0.0
 10
49.1161115519047
 20
-209.5190808275354
 30
0.0
 10
49.1161115519047
 20
-209.5190808275354
 30
0.0
 10
57.7956181932957
 20
-218.3680557875643
 30
0.0
 10
74.60872033100217
 20
-225.6081312309869
 30
0.0
 10
74.60872033100217
 20
-225.6081312309869
 30
0.0
 10
74.60872033100217
 20
-225.6081312309869
 30
0.0
 10
74.60872033100217
 20
-237.0715471914774
 30
0.0
 10
74.60872033100217
 20
-237.0715471914774
 30
0.0
 10
74.60872033100217
 20
-237.0715471914774
 30
0.0
 10
130.5353645021851
 20
-237.0715471914774
 30
0.0
 10
130.5353645021851
 20
-237.0715471914774
 30
0.0
 10
130.5353645021851
 20
-237.0715471914774
 30
0.0
 10
130.9375479532923
 20
-225.2058925424874
 30
0.0
 10
130.9375479532923
 20
-225.2058925424874
 30
0.0
 10
178.8025157125364
 20
-206.3012265569336
 30
0.0
 10
177.3947355401798
 20
-166.2797475112523
 30
0.0
 10
177.5958548844295
 20
-158.6374333793296
 30
0.0
 10
177.8571277485613
 20
-148.7079597945094
 30
0.0
 10
137.7048465586391
 20
-146.0153026469834
 30
0.0
 10
116.0318481985271
 20
-145.2851195622175
 30
0.0
  0
HATCH
  5
7F
330
7A
100
AcDbEntity
  8
Capa 1
 62
   250
420
  2103317
100
AcDbHatch
 10
0.0
 20
0.0
 30
0.0
210
0.0
220
0.0
230
1.0
  2
SOLID
 70
     1
 71
     0
 91
        1
 92
        1
 93
        1
 72
     4
 94
        3
 73
     0
 74
     1
 95
      113
 96
      109
 40
0.0
 40
0.0
 40
0.0
 40
0.0
 40
1.0
 40
1.0
 40
1.0
 40
2.0
 40
2.0
 40
2.0
 40
3.0
 40
3.0
 40
3.0
 40
4.0
 40
4.0
 40
4.0
 40
5.0
 40
5.0
 40
5.0
 40
6.0
 40
6.0
 40
6.0
 40
7.0
 40
7.0
 40
7.0
 40
8.0
 40
8.0
 40
8.0
 40
9.0
 40
9.0
 40
9.0
 40
10.0
 40
10.0
 40
10.0
 40
11.0
 40
11.0
 40
11.0
 40
12.0
 40
12.0
 40
12.0
 40
13.0
 40
13.0
 40
13.0
 40
14.0
 40
14.0
 40
14.0
 40
15.0
 40
15.0
 40
15.0
 40
16.0
 40
16.0
 40
16.0
 40
17.0
 40
17.0
 40
17.0
 40
18.0
 40
18.0
 40
18.0
 40
19.0
 40
19.0
 40
19.0
 40
20.0
 40
20.0
 40
20.0
 40
21.0
 40
21.0
 40
21.0
 40
22.0
 40
22.0
 40
22.0
 40
23.0
 40
23.0
 40
23.0
 40
24.0
 40
24.0
 40
24.0
 40
25.0
 40
25.0
 40
25.0
 40
26.0
 40
26.0
 40
26.0
 40
27.0
 40
27.0
 40
27.0
 40
28.0
 40
28.0
 40
28.0
 40
29.0
 40
29.0
 40
29.0
 40
30.0
 40
30.0
 40
30.0
 40
31.0
 40
31.0
 40
31.0
 40
32.0
 40
32.0
 40
32.0
 40
33.0
 40
33.0
 40
33.0
 40
34.0
 40
34.0
 40
34.0
 40
35.0
 40
35.0
 40
35.0
 40
36.0
 40
36.0
 40
36.0
 40
36.0
 10
116.0318481985271
 20
-145.2851195622175
 10
115.6058021940784
 20
-145.270757840299
 10
115.190748430636
 20
-145.2575008662204
 10
114.779395572458
 20
-145.2446305538851
 10
113.4117177466892
 20
-146.5095115931526
 10
112.0470779774805
 20
-147.7763811785325
 10
110.6948666214696
 20
-149.054905853623
 10
112.0062023074049
 20
-149.0670580798616
 10
113.2340742940364
 20
-149.0868883035877
 10
114.2451947544851
 20
-149.1180421926722
 10
172.9702204414698
 20
-150.9280610535277
 10
173.4395173238498
 20
-159.1737332181984
 10
173.4395173238498
 20
-159.1737332181984
 10
166.0821176598328
 20
-171.3075654053193
 10
89.37417234749476
 20
-169.2293690063329
 10
89.37417234749476
 20
-169.2293690063329
 10
89.37417234749476
 20
-169.2293690063329
 10
83.0726354314405
 20
-174.8605449331498
 10
83.0726354314405
 20
-174.8605449331498
 10
145.1495765393989
 20
-178.7487601929916
 10
173.0372786353509
 20
-168.1567693285953
 10
173.0372786353509
 20
-168.1567693285953
 10
173.0372786353509
 20
-168.1567693285953
 10
172.9032174849816
 20
-170.1679075337012
 10
172.9032174849816
 20
-170.1679075337012
 10
146.6244149056353
 20
-180.4917208599659
 10
79.72072001046743
 20
-176.8716831382544
 10
79.72072001046743
 20
-176.8716831382544
 10
79.72072001046743
 20
-176.8716831382544
 10
75.56438244988769
 20
-181.296198236965
 10
75.56438244988769
 20
-181.296198236965
 10
135.8983628908717
 20
-186.5251354752836
 10
172.0987401079826
 20
-175.6650223101488
 10
172.0987401079826
 20
-175.6650223101488
 10
172.0987401079826
 20
-175.6650223101488
 10
171.9646789576133
 20
-177.4079829771238
 10
171.9646789576133
 20
-177.4079829771238
 10
147.1607147445035
 20
-186.9273189263895
 10
86.82673430352169
 20
-184.5139972701758
 10
86.82673430352169
 20
-184.5139972701758
 10
84.9497124861771
 20
-202.4801247283645
 10
88.4356338201271
 20
-224.2003510586303
 10
88.4356338201271
 20
-224.2003510586303
 10
84.01117395880912
 20
-219.9098971102889
 10
85.35189593728524
 20
-184.5139972701758
 10
85.35189593728524
 20
-184.5139972701758
 10
85.35189593728524
 20
-184.5139972701758
 10
78.7822367204918
 20
-184.3799361198078
 10
78.7822367204918
 20
-184.3799361198078
 10
78.24593688162398
 20
-219.641774809551
 10
84.27929625954735
 20
-224.0662346708706
 10
84.27929625954735
 20
-224.0662346708706
 10
75.96662113838785
 20
-220.3121357987885
 10
77.57552065499357
 20
-183.9776974313083
 10
77.57552065499357
 20
-183.9776974313083
 10
77.57552065499357
 20
-183.9776974313083
 10
71.94434472817672
 20
-183.8435810435467
 10
71.94434472817672
 20
-183.8435810435467
 10
70.7992183547514
 20
-218.4526242347063
 10
76.53297011850083
 20
-222.1467905364732
 10
77.12108263106069
 20
-222.4338040252737
 10
68.46814517521751
 20
-219.4943462103205
 10
70.335445211571
 20
-185.4525357975447
 10
70.335445211571
 20
-185.4525357975447
 10
70.335445211571
 20
-185.4525357975447
 10
64.7042692847548
 20
-191.6870145197185
 10
64.7042692847548
 20
-191.6870145197185
 10
63.89984714514747
 20
-211.4631608387602
 10
67.38582371649045
 20
-217.7646977548151
 10
67.38582371649045
 20
-217.7646977548151
 10
63.29648911239915
 20
-218.0328752929447
 10
63.16242796202924
 20
-192.223314358586
 10
63.16242796202924
 20
-192.223314358586
 10
63.16242796202924
 20
-192.223314358586
 10
56.52571055135692
 20
-199.999689640878
 10
56.52571055135692
 20
-199.999689640878
 10
56.59271350784442
 20
-203.016424567232
 10
59.14015155181876
 20
-211.9994606776289
 10
59.14015155181876
 20
-211.9994606776289
 10
59.14015155181876
 20
-211.9994606776289
 10
58.53679351907044
 20
-212.2675829783675
 10
58.53679351907044
 20
-212.2675829783675
 10
58.53679351907044
 20
-212.2675829783675
 10
54.91675579735917
 20
-202.0108278459839
 10
54.91675579735917
 20
-202.0108278459839
 10
54.91675579735917
 20
-202.0108278459839
 10
48.51827725835599
 20
-208.9211912965931
 10
48.51827725835599
 20
-208.9211912965931
 10
48.51827725835599
 20
-208.9211912965931
 10
49.1161115519047
 20
-209.5190808275354
 10
49.1161115519047
 20
-209.5190808275354
 10
57.7956181932957
 20
-218.3680557875643
 10
74.60872033100217
 20
-225.6081312309869
 10
74.60872033100217
 20
-225.6081312309869
 10
74.60872033100217
 20
-225.6081312309869
 10
74.60872033100217
 20
-237.0715471914774
 10
74.60872033100217
 20
-237.0715471914774
 10
74.60872033100217
 20
-237.0715471914774
 10
130.5353645021851
 20
-237.0715471914774
 10
130.5353645021851
 20
-237.0715471914774
 10
130.5353645021851
 20
-237.0715471914774
 10
130.9375479532923
 20
-225.2058925424874
 10
130.9375479532923
 20
-225.2058925424874
 10
178.8025157125364
 20
-206.3012265569336
 10
177.3947355401798
 20
-166.2797475112523
 10
177.5958548844295
 20
-158.6374333793296
 10
177.8571277485613
 20
-148.7079597945094
 10
137.7048465586391
 20
-146.0153026469834
 10
116.0318481985271
 20
-145.2851195622175
 97
        0
 97
        0
 75
     2
 76
     1
 98
        0
  0
SPLINE
  5
80
330
7A
100
AcDbEntity
  8
Capa 1
 62
   250
420
  2103317
370
     9
100
AcDbSpline
210
0.0
220
0.0
230
1.0
 70
    11
 71
     3
 72
    17
 73
    13
 74
     0
 42
0.0000000001
 43
0.0000000001
 12
1.0
 22
0.0
 32
0.0
 13
1.0
 23
0.0
 33
0.0
 40
0.0
 40
0.0
 40
0.0
 40
0.0
 40
1.0
 40
1.0
 40
1.0
 40
2.0
 40
2.0
 40
2.0
 40
3.0
 40
3.0
 40
3.0
 40
4.0
 40
4.0
 40
4.0
 40
4.0
 10
92.59197547236408
 20
-187.0614332683196
 30
0.0
 10
92.59197547236408
 20
-187.0614332683196
 30
0.0
 10
92.79308867912638
 20
-183.3743578110214
 30
0.0
 10
94.13384339087135
 20
-187.0614332683196
 30
0.0
 10
94.13384339087135
 20
-187.0614332683196
 30
0.0
 10
93.66457924175955
 20
-223.5969991633666
 30
0.0
 10
95.07237168909302
 20
-224.468489726001
 30
0.0
 10
95.07237168909302
 20
-224.468489726001
 30
0.0
 10
93.83217358072824
 20
-224.468489726001
 30
0.0
 10
93.83217358072824
 20
-224.468489726001
 30
0.0
 10
93.83217358072824
 20
-224.468489726001
 30
0.0
 10
90.91603208268305
 20
-201.0052822704657
 30
0.0
 10
92.59197547236408
 20
-187.0614332683196
 30
0.0
  0
HATCH
  5
81
330
7A
100
AcDbEntity
  8
Capa 1
 62
   250
420
  2103317
100
AcDbHatch
 10
0.0
 20
0.0
 30
0.0
210
0.0
220
0.0
230
1.0
  2
SOLID
 70
     1
 71
     0
 91
        1
 92
        1
 93
        1
 72
     4
 94
        3
 73
     0
 74
     1
 95
       17
 96
       13
 40
0.0
 40
0.0
 40
0.0
 40
0.0
 40
1.0
 40
1.0
 40
1.0
 40
2.0
 40
2.0
 40
2.0
 40
3.0
 40
3.0
 40
3.0
 40
4.0
 40
4.0
 40
4.0
 40
4.0
 10
92.59197547236408
 20
-187.0614332683196
 10
92.59197547236408
 20
-187.0614332683196
 10
92.79308867912638
 20
-183.3743578110214
 10
94.13384339087135
 20
-187.0614332683196
 10
94.13384339087135
 20
-187.0614332683196
 10
93.66457924175955
 20
-223.5969991633666
 10
95.07237168909302
 20
-224.468489726001
 10
95.07237168909302
 20
-224.468489726001
 10
93.83217358072824
 20
-224.468489726001
 10
93.83217358072824
 20
-224.468489726001
 10
93.83217358072824
 20
-224.468489726001
 10
90.91603208268305
 20
-201.0052822704657
 10
92.59197547236408
 20
-187.0614332683196
 97
        0
 97
        0
 75
     2
 76
     1
 98
        0
  0
ENDBLK
  5
7D
330
7A
100
AcDbEntity
  8
0
100
AcDbBlockEnd
  0
ENDSEC
  0
SECTION
  2
ENTITIES
  0
SPLINE
  5
41
330
1F
100
AcDbEntity
  8
Capa 1
370
     0
100
AcDbSpline
210
0.0
220
0.0
230
1.0
 70
    11
 71
     3
 72
    17
 73
    13
 74
     0
 42
0.0000000001
 43
0.0000000001
 12
1.0
 22
0.0
 32
0.0
 13
1.0
 23
0.0
 33
0.0
 40
0.0
 40
0.0
 40
0.0
 40
0.0
 40
1.0
 40
1.0
 40
1.0
 40
2.0
 40
2.0
 40
2.0
 40
3.0
 40
3.0
 40
3.0
 40
4.0
 40
4.0
 40
4.0
 40
4.0
 10
103.385050901911
 20
-246.3227915274432
 30
0.0
 10
49.51524871914077
 20
-246.3227915274432
 30
0.0
 10
5.845145622471891
 20
-202.6526884307762
 30
0.0
 10
5.845145622471891
 20
-148.7828862480043
 30
0.0
 10
5.845145622471891
 20
-94.91308406523406
 30
0.0
 10
49.51524871914077
 20
-51.24298096856582
 30
0.0
 10
103.385050901911
 20
-51.24298096856582
 30
0.0
 10
157.2548530846829
 20
-51.24298096856582
 30
0.0
 10
200.9249561813505
 20
-94.91308406523342
 30
0.0
 10
200.9249561813505
 20
-148.7828862480043
 30
0.0
 10
200.9249561813505
 20
-202.6526884307762
 30
0.0
 10
157.2548530846829
 20
-246.3227915274432
 30
0.0
 10
103.385050901911
 20
-246.3227915274432
 30
0.0
  0
IMAGE
  5
45
330
1F
100
AcDbEntity
  8
Capa 1
160
                 8
310
0800000000000000
100
AcDbRasterImage
 90
        0
 10
68.88293545263873
 20
-99.69237883159434
 30
0.0
 11
0.2032144767402851
 21
0.0
 31
0.0
 12
0.0
 22
0.1807752507210289
 32
0.0
 13
328.0
 23
280.0
340
43
 70
     3
280
     0
281
    50
282
    50
283
     0
360
46
 71
     1
 91
        2
 14
-0.5
 24
-0.5
 14
327.5
 24
279.5
290
     0
  0
SPLINE
  5
47
330
1F
100
AcDbEntity
  8
Capa 1
370
     0
100
AcDbSpline
210
0.0
220
0.0
230
1.0
 70
    11
 71
     3
 72
    17
 73
    13
 74
     0
 42
0.0000000001
 43
0.0000000001
 12
1.0
 22
0.0
 32
0.0
 13
1.0
 23
0.0
 33
0.0
 40
0.0
 40
0.0
 40
0.0
 40
0.0
 40
1.0
 40
1.0
 40
1.0
 40
2.0
 40
2.0
 40
2.0
 40
3.0
 40
3.0
 40
3.0
 40
4.0
 40
4.0
 40
4.0
 40
4.0
 10
24.34756064455096
 20
-96.99623550685955
 30
0.0
 10
24.34756064455096
 20
-96.99623550685955
 30
0.0
 10
137.2391073734694
 20
-96.99623550685955
 30
0.0
 10
137.2391073734694
 20
-96.99623550685955
 30
0.0
 10
137.2391073734694
 20
-96.99623550685955
 30
0.0
 10
136.132984736279
 20
-98.21967418132591
 30
0.0
 10
136.132984736279
 20
-98.21967418132591
 30
0.0
 10
136.132984736279
 20
-98.21967418132591
 30
0.0
 10
29.87817383049952
 20
-99.54366945917376
 30
0.0
 10
25.0514568682177
 20
-98.21967418132591
 30
0.0
 10
25.0514568682177
 20
-98.21967418132591
 30
0.0
 10
24.34756064455096
 20
-96.99623550685955
 30
0.0
 10
24.34756064455096
 20
-96.99623550685955
 30
0.0
  0
HATCH
  5
48
330
1F
100
AcDbEntity
  8
Capa 1
 62
   244
420
 10490151
100
AcDbHatch
 10
0.0
 20
0.0
 30
0.0
210
0.0
220
0.0
230
1.0
  2
SOLID
 70
     1
 71
     0
 91
        1
 92
        1
 93
        1
 72
     4
 94
        3
 73
     0
 74
     1
 95
       17
 96
       13
 40
0.0
 40
0.0
 40
0.0
 40
0.0
 40
1.0
 40
1.0
 40
1.0
 40
2.0
 40
2.0
 40
2.0
 40
3.0
 40
3.0
 40
3.0
 40
4.0
 40
4.0
 40
4.0
 40
4.0
 10
24.34756064455096
 20
-96.99623550685955
 10
24.34756064455096
 20
-96.99623550685955
 10
137.2391073734694
 20
-96.99623550685955
 10
137.2391073734694
 20
-96.99623550685955
 10
137.2391073734694
 20
-96.99623550685955
 10
136.132984736279
 20
-98.21967418132591
 10
136.132984736279
 20
-98.21967418132591
 10
136.132984736279
 20
-98.21967418132591
 10
29.87817383049952
 20
-99.54366945917376
 10
25.0514568682177
 20
-98.21967418132591
 10
25.0514568682177
 20
-98.21967418132591
 10
24.34756064455096
 20
-96.99623550685955
 10
24.34756064455096
 20
-96.99623550685955
 97
        0
 97
        0
 75
     2
 76
     1
 98
        0
  0
SPLINE
  5
49
330
1F
100
AcDbEntity
  8
Capa 1
370
     0
100
AcDbSpline
210
0.0
220
0.0
230
1.0
 70
    11
 71
     3
 72
    17
 73
    13
 74
     0
 42
0.0000000001
 43
0.0000000001
 12
1.0
 22
0.0
 32
0.0
 13
1.0
 23
0.0
 33
0.0
 40
0.0
 40
0.0
 40
0.0
 40
0.0
 40
1.0
 40
1.0
 40
1.0
 40
2.0
 40
2.0
 40
2.0
 40
3.0
 40
3.0
 40
3.0
 40
4.0
 40
4.0
 40
4.0
 40
4.0
 10
22.6716172548696
 20
-91.13043364297523
 30
0.0
 10
22.6716172548696
 20
-91.13043364297523
 30
0.0
 10
24.44811724793211
 20
-96.99623550685955
 30
0.0
 10
24.44811724793211
 20
-96.99623550685955
 30
0.0
 10
24.44811724793211
 20
-96.99623550685955
 30
0.0
 10
117.7646451853773
 20
-99.30903738461947
 30
0.0
 10
137.2726262412617
 20
-96.99623550685955
 30
0.0
 10
137.2726262412617
 20
-96.99623550685955
 30
0.0
 10
138.1776356716866
 20
-95.68899966290819
 30
0.0
 10
139.3843149122584
 20
-91.66673552767361
 30
0.0
 10
139.3843149122584
 20
-91.66673552767361
 30
0.0
 10
63.02833407838919
 20
-94.5158392901303
 30
0.0
 10
22.6716172548696
 20
-91.13043364297523
 30
0.0
  0
HATCH
  5
4A
330
1F
100
AcDbEntity
  8
Capa 1
 62
    12
420
 12519184
100
AcDbHatch
 10
0.0
 20
0.0
 30
0.0
210
0.0
220
0.0
230
1.0
  2
SOLID
 70
     1
 71
     0
 91
        1
 92
        1
 93
        1
 72
     4
 94
        3
 73
     0
 74
     1
 95
       17
 96
       13
 40
0.0
 40
0.0
 40
0.0
 40
0.0
 40
1.0
 40
1.0
 40
1.0
 40
2.0
 40
2.0
 40
2.0
 40
3.0
 40
3.0
 40
3.0
 40
4.0
 40
4.0
 40
4.0
 40
4.0
 10
22.6716172548696
 20
-91.13043364297523
 10
22.6716172548696
 20
-91.13043364297523
 10
24.44811724793211
 20
-96.99623550685955
 10
24.44811724793211
 20
-96.99623550685955
 10
24.44811724793211
 20
-96.99623550685955
 10
117.7646451853773
 20
-99.30903738461947
 10
137.2726262412617
 20
-96.99623550685955
 10
137.2726262412617
 20
-96.99623550685955
 10
138.1776356716866
 20
-95.68899966290819
 10
139.3843149122584
 20
-91.66673552767361
 10
139.3843149122584
 20
-91.66673552767361
 10
63.02833407838919
 20
-94.5158392901303
 10
22.6716172548696
 20
-91.13043364297523
 97
        0
 97
        0
 75
     2
 76
     1
 98
        0
  0
SPLINE
  5
4B
330
1F
100
AcDbEntity
  8
Capa 1
370
     0
100
AcDbSpline
210
0.0
220
0.0
230
1.0
 70
    11
 71
     3
 72
    17
 73
    13
 74
     0
 42
0.0000000001
 43
0.0000000001
 12
1.0
 22
0.0
 32
0.0
 13
1.0
 23
0.0
 33
0.0
 40
0.0
 40
0.0
 40
0.0
 40
0.0
 40
1.0
 40
1.0
 40
1.0
 40
2.0
 40
2.0
 40
2.0
 40
3.0
 40
3.0
 40
3.0
 40
4.0
 40
4.0
 40
4.0
 40
4.0
 10
113.7309898724141
 20
-147.8115673972331
 30
0.0
 10
116.1137100134617
 20
-147.8580772812927
 30
0.0
 10
118.496540629294
 20
-147.8770237067456
 30
0.0
 10
120.8819121651578
 20
-147.8778522676251
 30
0.0
 10
120.9660387131641
 20
-147.8779075050175
 30
0.0
 10
121.0400015810449
 20
-147.8961910817673
 30
0.0
 10
121.1217529211955
 20
-147.9005548357349
 30
0.0
 10
121.1217529211955
 20
-147.9005548357349
 30
0.0
 10
119.9695009242033
 20
-142.7295063842273
 30
0.0
 10
119.9695009242033
 20
-142.7295063842273
 30
0.0
 10
117.9283135778535
 20
-144.4657833267713
 30
0.0
 10
115.8371916291402
 20
-146.1466571651454
 30
0.0
 10
113.7309898724141
 20
-147.8115673972331
 30
0.0
  0
HATCH
  5
4C
330
1F
100
AcDbEntity
  8
Capa 1
 62
    12
420
 12519184
100
AcDbHatch
 10
0.0
 20
0.0
 30
0.0
210
0.0
220
0.0
230
1.0
  2
SOLID
 70
     1
 71
     0
 91
        1
 92
        1
 93
        1
 72
     4
 94
        3
 73
     0
 74
     1
 95
       17
 96
       13
 40
0.0
 40
0.0
 40
0.0
 40
0.0
 40
1.0
 40
1.0
 40
1.0
 40
2.0
 40
2.0
 40
2.0
 40
3.0
 40
3.0
 40
3.0
 40
4.0
 40
4.0
 40
4.0
 40
4.0
 10
113.7309898724141
 20
-147.8115673972331
 10
116.1137100134617
 20
-147.8580772812927
 10
118.496540629294
 20
-147.8770237067456
 10
120.8819121651578
 20
-147.8778522676251
 10
120.9660387131641
 20
-147.8779075050175
 10
121.0400015810449
 20
-147.8961910817673
 10
121.1217529211955
 20
-147.9005548357349
 10
121.1217529211955
 20
-147.9005548357349
 10
119.9695009242033
 20
-142.7295063842273
 10
119.9695009242033
 20
-142.7295063842273
 10
117.9283135778535
 20
-144.4657833267713
 10
115.8371916291402
 20
-146.1466571651454
 10
113.7309898724141
 20
-147.8115673972331
 97
        0
 97
        0
 75
     2
 76
     1
 98
        0
  0
SPLINE
  5
4D
330
1F
100
AcDbEntity
  8
Capa 1
370
     0
100
AcDbSpline
210
0.0
220
0.0
230
1.0
 70
    11
 71
     3
 72
    17
 73
    13
 74
     0
 42
0.0000000001
 43
0.0000000001
 12
1.0
 22
0.0
 32
0.0
 13
1.0
 23
0.0
 33
0.0
 40
0.0
 40
0.0
 40
0.0
 40
0.0
 40
1.0
 40
1.0
 40
1.0
 40
2.0
 40
2.0
 40
2.0
 40
3.0
 40
3.0
 40
3.0
 40
4.0
 40
4.0
 40
4.0
 40
4.0
 10
117.7197371856837
 20
-132.6331054008022
 30
0.0
 10
117.7197371856837
 20
-132.6331054008022
 30
0.0
 10
116.2111487729389
 20
-125.862879213679
 30
0.0
 10
116.2111487729389
 20
-125.862879213679
 30
0.0
 10
114.2094009244726
 20
-128.1283856089173
 30
0.0
 10
112.0735366882452
 20
-130.2672326643114
 30
0.0
 10
109.8084721921436
 20
-132.2693119371299
 30
0.0
 10
109.8084721921436
 20
-132.2693119371299
 30
0.0
 10
110.948682437682
 20
-138.5132362533349
 30
0.0
 10
110.948682437682
 20
-138.5132362533349
 30
0.0
 10
113.2677138657614
 20
-136.6219079514645
 30
0.0
 10
115.5440467898291
 20
-134.6836278663986
 30
0.0
 10
117.7197371856837
 20
-132.6331054008022
 30
0.0
  0
HATCH
  5
4E
330
1F
100
AcDbEntity
  8
Capa 1
 62
    12
420
 12519184
100
AcDbHatch
 10
0.0
 20
0.0
 30
0.0
210
0.0
220
0.0
230
1.0
  2
SOLID
 70
     1
 71
     0
 91
        1
 92
        1
 93
        1
 72
     4
 94
        3
 73
     0
 74
     1
 95
       17
 96
       13
 40
0.0
 40
0.0
 40
0.0
 40
0.0
 40
1.0
 40
1.0
 40
1.0
 40
2.0
 40
2.0
 40
2.0
 40
3.0
 40
3.0
 40
3.0
 40
4.0
 40
4.0
 40
4.0
 40
4.0
 10
117.7197371856837
 20
-132.6331054008022
 10
117.7197371856837
 20
-132.6331054008022
 10
116.2111487729389
 20
-125.862879213679
 10
116.2111487729389
 20
-125.862879213679
 10
114.2094009244726
 20
-128.1283856089173
 10
112.0735366882452
 20
-130.2672326643114
 10
109.8084721921436
 20
-132.2693119371299
 10
109.8084721921436
 20
-132.2693119371299
 10
110.948682437682
 20
-138.5132362533349
 10
110.948682437682
 20
-138.5132362533349
 10
113.2677138657614
 20
-136.6219079514645
 10
115.5440467898291
 20
-134.6836278663986
 10
117.7197371856837
 20
-132.6331054008022
 97
        0
 97
        0
 75
     2
 76
     1
 98
        0
  0
SPLINE
  5
4F
330
1F
100
AcDbEntity
  8
Capa 1
370
     0
100
AcDbSpline
210
0.0
220
0.0
230
1.0
 70
    11
 71
     3
 72
    20
 73
    16
 74
     0
 42
0.0000000001
 43
0.0000000001
 12
1.0
 22
0.0
 32
0.0
 13
1.0
 23
0.0
 33
0.0
 40
0.0
 40
0.0
 40
0.0
 40
0.0
 40
1.0
 40
1.0
 40
1.0
 40
2.0
 40
2.0
 40
2.0
 40
3.0
 40
3.0
 40
3.0
 40
4.0
 40
4.0
 40
4.0
 40
5.0
 40
5.0
 40
5.0
 40
5.0
 10
130.3682161540118
 20
-108.6875302592768
 30
0.0
 10
129.6016868653123
 20
-109.6995897553891
 30
0.0
 10
128.7925143099935
 20
-110.6779544423844
 30
0.0
 10
127.9853855381796
 20
-111.6578105389642
 30
0.0
 10
127.9853855381796
 20
-111.6578105389642
 30
0.0
 10
131.8760864806606
 20
-111.6439459535736
 30
0.0
 10
131.8760864806606
 20
-111.6439459535736
 30
0.0
 10
131.8760864806606
 20
-111.6439459535736
 30
0.0
 10
131.8760864806606
 20
-106.8172474037562
 30
0.0
 10
131.8760864806606
 20
-106.8172474037562
 30
0.0
 10
131.8760864806606
 20
-106.8172474037562
 30
0.0
 10
131.6925878644569
 20
-106.8156455193882
 30
0.0
 10
131.6925878644569
 20
-106.8156455193882
 30
0.0
 10
131.2649399756397
 20
-107.4493288803422
 30
0.0
 10
130.8300007510807
 20
-108.0778199264484
 30
0.0
 10
130.3682161540118
 20
-108.6875302592768
 30
0.0
  0
HATCH
  5
50
330
1F
100
AcDbEntity
  8
Capa 1
 62
    12
420
 12519184
100
AcDbHatch
 10
0.0
 20
0.0
 30
0.0
210
0.0
220
0.0
230
1.0
  2
SOLID
 70
     1
 71
     0
 91
        1
 92
        1
 93
        1
 72
     4
 94
        3
 73
     0
 74
     1
 95
       20
 96
       16
 40
0.0
 40
0.0
 40
0.0
 40
0.0
 40
1.0
 40
1.0
 40
1.0
 40
2.0
 40
2.0
 40
2.0
 40
3.0
 40
3.0
 40
3.0
 40
4.0
 40
4.0
 40
4.0
 40
5.0
 40
5.0
 40
5.0
 40
5.0
 10
130.3682161540118
 20
-108.6875302592768
 10
129.6016868653123
 20
-109.6995897553891
 10
128.7925143099935
 20
-110.6779544423844
 10
127.9853855381796
 20
-111.6578105389642
 10
127.9853855381796
 20
-111.6578105389642
 10
131.8760864806606
 20
-111.6439459535736
 10
131.8760864806606
 20
-111.6439459535736
 10
131.8760864806606
 20
-111.6439459535736
 10
131.8760864806606
 20
-106.8172474037562
 10
131.8760864806606
 20
-106.8172474037562
 10
131.8760864806606
 20
-106.8172474037562
 10
131.6925878644569
 20
-106.8156455193882
 10
131.6925878644569
 20
-106.8156455193882
 10
131.2649399756397
 20
-107.4493288803422
 10
130.8300007510807
 20
-108.0778199264484
 10
130.3682161540118
 20
-108.6875302592768
 97
        0
 97
        0
 75
     2
 76
     1
 98
        0
  0
SPLINE
  5
51
330
1F
100
AcDbEntity
  8
Capa 1
370
     0
100
AcDbSpline
210
0.0
220
0.0
230
1.0
 70
    11
 71
     3
 72
    83
 73
    79
 74
     0
 42
0.0000000001
 43
0.0000000001
 12
1.0
 22
0.0
 32
0.0
 13
1.0
 23
0.0
 33
0.0
 40
0.0
 40
0.0
 40
0.0
 40
0.0
 40
1.0
 40
1.0
 40
1.0
 40
2.0
 40
2.0
 40
2.0
 40
3.0
 40
3.0
 40
3.0
 40
4.0
 40
4.0
 40
4.0
 40
5.0
 40
5.0
 40
5.0
 40
6.0
 40
6.0
 40
6.0
 40
7.0
 40
7.0
 40
7.0
 40
8.0
 40
8.0
 40
8.0
 40
9.0
 40
9.0
 40
9.0
 40
10.0
 40
10.0
 40
10.0
 40
11.0
 40
11.0
 40
11.0
 40
12.0
 40
12.0
 40
12.0
 40
13.0
 40
13.0
 40
13.0
 40
14.0
 40
14.0
 40
14.0
 40
15.0
 40
15.0
 40
15.0
 40
16.0
 40
16.0
 40
16.0
 40
17.0
 40
17.0
 40
17.0
 40
18.0
 40
18.0
 40
18.0
 40
19.0
 40
19.0
 40
19.0
 40
20.0
 40
20.0
 40
20.0
 40
21.0
 40
21.0
 40
21.0
 40
22.0
 40
22.0
 40
22.0
 40
23.0
 40
23.0
 40
23.0
 40
24.0
 40
24.0
 40
24.0
 40
25.0
 40
25.0
 40
25.0
 40
26.0
 40
26.0
 40
26.0
 40
26.0
 10
114.9160528802505
 20
-111.7043756604152
 30
0.0
 10
115.0846374006159
 20
-111.3590867230612
 30
0.0
 10
115.2969699354407
 20
-111.0188243883788
 30
0.0
 10
115.5705055005944
 20
-110.6900514312312
 30
0.0
 10
116.6858589197341
 20
-109.3496056397156
 30
0.0
 10
117.8253510791764
 20
-108.029984344982
 30
0.0
 10
118.9556185941549
 20
-106.7024088658006
 30
0.0
 10
118.9556185941549
 20
-106.7024088658006
 30
0.0
 10
116.7925775610668
 20
-106.6831862533869
 30
0.0
 10
116.7925775610668
 20
-106.6831862533869
 30
0.0
 10
116.7925775610668
 20
-106.6831862533869
 30
0.0
 10
116.7925775610668
 20
-104.9401703490205
 30
0.0
 10
116.7925775610668
 20
-104.9401703490205
 30
0.0
 10
116.7925775610668
 20
-104.9401703490205
 30
0.0
 10
111.8988208173691
 20
-105.0742867367818
 30
0.0
 10
111.8988208173691
 20
-105.0742867367818
 30
0.0
 10
111.8988208173691
 20
-105.0742867367818
 30
0.0
 10
110.3569794946433
 20
-97.70009490559858
 30
0.0
 10
110.3569794946433
 20
-97.70009490559858
 30
0.0
 10
110.3569794946433
 20
-97.70009490559858
 30
0.0
 10
103.2549422938143
 20
-97.96827244372818
 30
0.0
 10
103.2549422938143
 20
-97.96827244372818
 30
0.0
 10
103.2549422938143
 20
-97.96827244372818
 30
0.0
 10
104.5917424174578
 20
-105.4094672314008
 30
0.0
 10
104.5917424174578
 20
-105.4094672314008
 30
0.0
 10
104.5917424174578
 20
-105.4094672314008
 30
0.0
 10
57.26307449708279
 20
-105.2754060810309
 30
0.0
 10
57.26307449708279
 20
-105.2754060810309
 30
0.0
 10
57.26307449708279
 20
-105.2754060810309
 30
0.0
 10
58.60385171295029
 20
-97.49903079874085
 30
0.0
 10
58.60385171295029
 20
-97.49903079874085
 30
0.0
 10
58.60385171295029
 20
-97.49903079874085
 30
0.0
 10
51.86654701145724
 20
-96.59402136831311
 30
0.0
 10
51.86654701145724
 20
-96.59402136831311
 30
0.0
 10
51.86654701145724
 20
-96.59402136831311
 30
0.0
 10
50.22411839790998
 20
-105.0072285429004
 30
0.0
 10
50.22411839790998
 20
-105.0072285429004
 30
0.0
 10
50.22411839790998
 20
-105.0072285429004
 30
0.0
 10
45.2968325572724
 20
-105.0072285429004
 30
0.0
 10
45.2968325572724
 20
-105.0072285429004
 30
0.0
 10
45.2968325572724
 20
-105.0072285429004
 30
0.0
 10
44.99518115959298
 20
-106.7167153503271
 30
0.0
 10
44.99518115959298
 20
-106.7167153503271
 30
0.0
 10
44.99518115959298
 20
-106.7167153503271
 30
0.0
 10
30.04578862776115
 20
-106.7167153503271
 30
0.0
 10
30.04578862776115
 20
-106.7167153503271
 30
0.0
 10
30.04578862776115
 20
-106.7167153503271
 30
0.0
 10
30.04578862776115
 20
-111.5434139001446
 30
0.0
 10
30.04578862776115
 20
-111.5434139001446
 30
0.0
 10
30.04578862776115
 20
-111.5434139001446
 30
0.0
 10
48.68227707518443
 20
-111.5434139001446
 30
0.0
 10
48.68227707518443
 20
-111.5434139001446
 30
0.0
 10
48.68227707518443
 20
-111.5434139001446
 30
0.0
 10
39.57329971104172
 20
-154.1303383795889
 30
0.0
 10
39.57329971104172
 20
-154.1303383795889
 30
0.0
 10
42.36809079636365
 20
-153.28736054037
 30
0.0
 10
45.22121256763187
 20
-152.6545609776882
 30
0.0
 10
48.10902342107266
 20
-152.1881916770843
 30
0.0
 10
48.10902342107266
 20
-152.1881916770843
 30
0.0
 10
55.82176522778722
 20
-111.6774750505142
 30
0.0
 10
55.82176522778722
 20
-111.6774750505142
 30
0.0
 10
55.82176522778722
 20
-111.6774750505142
 30
0.0
 10
105.3961645570645
 20
-111.7780623413349
 30
0.0
 10
105.3961645570645
 20
-111.7780623413349
 30
0.0
 10
105.3961645570645
 20
-111.7780623413349
 30
0.0
 10
106.0665807836942
 20
-111.7780623413349
 30
0.0
 10
106.0665807836942
 20
-111.7780623413349
 30
0.0
 10
106.0665807836942
 20
-111.7780623413349
 30
0.0
 10
107.876433932374
 20
-121.6891971120133
 30
0.0
 10
107.876433932374
 20
-121.6891971120133
 30
0.0
 10
109.9935726927158
 20
-119.4543474693335
 30
0.0
 10
111.951903951075
 20
-117.0740577735331
 30
0.0
 10
113.7009959685607
 20
-114.5979864400148
 30
0.0
 10
113.7009959685607
 20
-114.5979864400148
 30
0.0
 10
113.0577013014006
 20
-111.7110041474544
 30
0.0
 10
113.0577013014006
 20
-111.7110041474544
 30
0.0
 10
113.0577013014006
 20
-111.7110041474544
 30
0.0
 10
114.9160528802505
 20
-111.7043756604152
 30
0.0
 10
114.9160528802505
 20
-111.7043756604152
 30
0.0
  0
HATCH
  5
52
330
1F
100
AcDbEntity
  8
Capa 1
 62
    12
420
 12519184
100
AcDbHatch
 10
0.0
 20
0.0
 30
0.0
210
0.0
220
0.0
230
1.0
  2
SOLID
 70
     1
 71
     0
 91
        1
 92
        1
 93
        1
 72
     4
 94
        3
 73
     0
 74
     1
 95
       83
 96
       79
 40
0.0
 40
0.0
 40
0.0
 40
0.0
 40
1.0
 40
1.0
 40
1.0
 40
2.0
 40
2.0
 40
2.0
 40
3.0
 40
3.0
 40
3.0
 40
4.0
 40
4.0
 40
4.0
 40
5.0
 40
5.0
 40
5.0
 40
6.0
 40
6.0
 40
6.0
 40
7.0
 40
7.0
 40
7.0
 40
8.0
 40
8.0
 40
8.0
 40
9.0
 40
9.0
 40
9.0
 40
10.0
 40
10.0
 40
10.0
 40
11.0
 40
11.0
 40
11.0
 40
12.0
 40
12.0
 40
12.0
 40
13.0
 40
13.0
 40
13.0
 40
14.0
 40
14.0
 40
14.0
 40
15.0
 40
15.0
 40
15.0
 40
16.0
 40
16.0
 40
16.0
 40
17.0
 40
17.0
 40
17.0
 40
18.0
 40
18.0
 40
18.0
 40
19.0
 40
19.0
 40
19.0
 40
20.0
 40
20.0
 40
20.0
 40
21.0
 40
21.0
 40
21.0
 40
22.0
 40
22.0
 40
22.0
 40
23.0
 40
23.0
 40
23.0
 40
24.0
 40
24.0
 40
24.0
 40
25.0
 40
25.0
 40
25.0
 40
26.0
 40
26.0
 40
26.0
 40
26.0
 10
114.9160528802505
 20
-111.7043756604152
 10
115.0846374006159
 20
-111.3590867230612
 10
115.2969699354407
 20
-111.0188243883788
 10
115.5705055005944
 20
-110.6900514312312
 10
116.6858589197341
 20
-109.3496056397156
 10
117.8253510791764
 20
-108.029984344982
 10
118.9556185941549
 20
-106.7024088658006
 10
118.9556185941549
 20
-106.7024088658006
 10
116.7925775610668
 20
-106.6831862533869
 10
116.7925775610668
 20
-106.6831862533869
 10
116.7925775610668
 20
-106.6831862533869
 10
116.7925775610668
 20
-104.9401703490205
 10
116.7925775610668
 20
-104.9401703490205
 10
116.7925775610668
 20
-104.9401703490205
 10
111.8988208173691
 20
-105.0742867367818
 10
111.8988208173691
 20
-105.0742867367818
 10
111.8988208173691
 20
-105.0742867367818
 10
110.3569794946433
 20
-97.70009490559858
 10
110.3569794946433
 20
-97.70009490559858
 10
110.3569794946433
 20
-97.70009490559858
 10
103.2549422938143
 20
-97.96827244372818
 10
103.2549422938143
 20
-97.96827244372818
 10
103.2549422938143
 20
-97.96827244372818
 10
104.5917424174578
 20
-105.4094672314008
 10
104.5917424174578
 20
-105.4094672314008
 10
104.5917424174578
 20
-105.4094672314008
 10
57.26307449708279
 20
-105.2754060810309
 10
57.26307449708279
 20
-105.2754060810309
 10
57.26307449708279
 20
-105.2754060810309
 10
58.60385171295029
 20
-97.49903079874085
 10
58.60385171295029
 20
-97.49903079874085
 10
58.60385171295029
 20
-97.49903079874085
 10
51.86654701145724
 20
-96.59402136831311
 10
51.86654701145724
 20
-96.59402136831311
 10
51.86654701145724
 20
-96.59402136831311
 10
50.22411839790998
 20
-105.0072285429004
 10
50.22411839790998
 20
-105.0072285429004
 10
50.22411839790998
 20
-105.0072285429004
 10
45.2968325572724
 20
-105.0072285429004
 10
45.2968325572724
 20
-105.0072285429004
 10
45.2968325572724
 20
-105.0072285429004
 10
44.99518115959298
 20
-106.7167153503271
 10
44.99518115959298
 20
-106.7167153503271
 10
44.99518115959298
 20
-106.7167153503271
 10
30.04578862776115
 20
-106.7167153503271
 10
30.04578862776115
 20
-106.7167153503271
 10
30.04578862776115
 20
-106.7167153503271
 10
30.04578862776115
 20
-111.5434139001446
 10
30.04578862776115
 20
-111.5434139001446
 10
30.04578862776115
 20
-111.5434139001446
 10
48.68227707518443
 20
-111.5434139001446
 10
48.68227707518443
 20
-111.5434139001446
 10
48.68227707518443
 20
-111.5434139001446
 10
39.57329971104172
 20
-154.1303383795889
 10
39.57329971104172
 20
-154.1303383795889
 10
42.36809079636365
 20
-153.28736054037
 10
45.22121256763187
 20
-152.6545609776882
 10
48.10902342107266
 20
-152.1881916770843
 10
48.10902342107266
 20
-152.1881916770843
 10
55.82176522778722
 20
-111.6774750505142
 10
55.82176522778722
 20
-111.6774750505142
 10
55.82176522778722
 20
-111.6774750505142
 10
105.3961645570645
 20
-111.7780623413349
 10
105.3961645570645
 20
-111.7780623413349
 10
105.3961645570645
 20
-111.7780623413349
 10
106.0665807836942
 20
-111.7780623413349
 10
106.0665807836942
 20
-111.7780623413349
 10
106.0665807836942
 20
-111.7780623413349
 10
107.876433932374
 20
-121.6891971120133
 10
107.876433932374
 20
-121.6891971120133
 10
109.9935726927158
 20
-119.4543474693335
 10
111.951903951075
 20
-117.0740577735331
 10
113.7009959685607
 20
-114.5979864400148
 10
113.7009959685607
 20
-114.5979864400148
 10
113.0577013014006
 20
-111.7110041474544
 10
113.0577013014006
 20
-111.7110041474544
 10
113.0577013014006
 20
-111.7110041474544
 10
114.9160528802505
 20
-111.7043756604152
 10
114.9160528802505
 20
-111.7043756604152
 97
        0
 97
        0
 75
     2
 76
     1
 98
        0
  0
SPLINE
  5
53
330
1F
100
AcDbEntity
  8
Capa 1
370
     0
100
AcDbSpline
210
0.0
220
0.0
230
1.0
 70
    11
 71
     3
 72
    17
 73
    13
 74
     0
 42
0.0000000001
 43
0.0000000001
 12
1.0
 22
0.0
 32
0.0
 13
1.0
 23
0.0
 33
0.0
 40
0.0
 40
0.0
 40
0.0
 40
0.0
 40
1.0
 40
1.0
 40
1.0
 40
2.0
 40
2.0
 40
2.0
 40
3.0
 40
3.0
 40
3.0
 40
4.0
 40
4.0
 40
4.0
 40
4.0
 10
76.67051327039412
 20
-95.95715060525673
 30
0.0
 10
76.67051327039412
 20
-95.95715060525673
 30
0.0
 10
82.8044660766273
 20
-95.21973551379703
 30
0.0
 10
85.41893776453001
 20
-95.95715060525673
 30
0.0
 10
85.41893776453001
 20
-95.95715060525673
 30
0.0
 10
85.28486229335527
 20
-107.8563486719927
 30
0.0
 10
85.28486229335527
 20
-107.8563486719927
 30
0.0
 10
85.28486229335527
 20
-107.8563486719927
 30
0.0
 10
80.35758872769263
 20
-111.0071222445935
 30
0.0
 10
76.67051327039412
 20
-108.0574618787544
 30
0.0
 10
76.67051327039412
 20
-108.0574618787544
 30
0.0
 10
76.67051327039412
 20
-95.95715060525673
 30
0.0
 10
76.67051327039412
 20
-95.95715060525673
 30
0.0
  0
HATCH
  5
54
330
1F
100
AcDbEntity
  8
Capa 1
 62
   250
420
  2103317
100
AcDbHatch
 10
0.0
 20
0.0
 30
0.0
210
0.0
220
0.0
230
1.0
  2
SOLID
 70
     1
 71
     0
 91
        1
 92
        1
 93
        1
 72
     4
 94
        3
 73
     0
 74
     1
 95
       17
 96
       13
 40
0.0
 40
0.0
 40
0.0
 40
0.0
 40
1.0
 40
1.0
 40
1.0
 40
2.0
 40
2.0
 40
2.0
 40
3.0
 40
3.0
 40
3.0
 40
4.0
 40
4.0
 40
4.0
 40
4.0
 10
76.67051327039412
 20
-95.95715060525673
 10
76.67051327039412
 20
-95.95715060525673
 10
82.8044660766273
 20
-95.21973551379703
 10
85.41893776453001
 20
-95.95715060525673
 10
85.41893776453001
 20
-95.95715060525673
 10
85.28486229335527
 20
-107.8563486719927
 10
85.28486229335527
 20
-107.8563486719927
 10
85.28486229335527
 20
-107.8563486719927
 10
80.35758872769263
 20
-111.0071222445935
 10
76.67051327039412
 20
-108.0574618787544
 10
76.67051327039412
 20
-108.0574618787544
 10
76.67051327039412
 20
-95.95715060525673
 10
76.67051327039412
 20
-95.95715060525673
 97
        0
 97
        0
 75
     2
 76
     1
 98
        0
  0
SPLINE
  5
55
330
1F
100
AcDbEntity
  8
Capa 1
370
     0
100
AcDbSpline
210
0.0
220
0.0
230
1.0
 70
    11
 71
     3
 72
    41
 73
    37
 74
     0
 42
0.0000000001
 43
0.0000000001
 12
1.0
 22
0.0
 32
0.0
 13
1.0
 23
0.0
 33
0.0
 40
0.0
 40
0.0
 40
0.0
 40
0.0
 40
1.0
 40
1.0
 40
1.0
 40
2.0
 40
2.0
 40
2.0
 40
3.0
 40
3.0
 40
3.0
 40
4.0
 40
4.0
 40
4.0
 40
5.0
 40
5.0
 40
5.0
 40
6.0
 40
6.0
 40
6.0
 40
7.0
 40
7.0
 40
7.0
 40
8.0
 40
8.0
 40
8.0
 40
9.0
 40
9.0
 40
9.0
 40
10.0
 40
10.0
 40
10.0
 40
11.0
 40
11.0
 40
11.0
 40
12.0
 40
12.0
 40
12.0
 40
12.0
 10
47.82753367147152
 20
-105.1915971480279
 30
0.0
 10
48.71043433575388
 20
-106.4458864173813
 30
0.0
 10
49.99774175617065
 20
-108.0182878272269
 30
0.0
 10
51.79951643627132
 20
-109.5658047919796
 30
0.0
 10
53.61884279767846
 20
-111.1283877553987
 30
0.0
 10
55.38503078798611
 20
-112.1695021196995
 30
0.0
 10
56.76773318437749
 20
-112.8540867373759
 30
0.0
 10
61.74166700255554
 20
-115.278676821555
 30
0.0
 10
72.44813736185736
 20
-119.6232081766582
 30
0.0
 10
86.17311024405758
 20
-118.3309984377014
 30
0.0
 10
93.95213692116387
 20
-117.5986058572542
 30
0.0
 10
100.1522303668214
 20
-115.2954137513302
 30
0.0
 10
104.3235924980234
 20
-113.3199174734081
 30
0.0
 10
104.3235924980234
 20
-113.3199174734081
 30
0.0
 10
112.5021788501178
 20
-108.7278397460844
 30
0.0
 10
113.5077479526701
 20
-105.1915971480279
 30
0.0
 10
113.5077479526701
 20
-105.1915971480279
 30
0.0
 10
112.9714481138019
 20
-104.5044578009731
 30
0.0
 10
112.3010595058687
 20
-105.1915971480279
 30
0.0
 10
112.3010595058687
 20
-105.1915971480279
 30
0.0
 10
108.6139912089724
 20
-111.5769429970849
 30
0.0
 10
98.35720845789231
 20
-114.3925309604933
 30
0.0
 10
98.35720845789231
 20
-114.3925309604933
 30
0.0
 10
86.89376487870568
 20
-118.548868521073
 30
0.0
 10
73.4862136695978
 20
-117.0069995796516
 30
0.0
 10
72.05404618867749
 20
-116.8422954860741
 30
0.0
 10
68.90101299757772
 20
-116.0400137954077
 30
0.0
 10
65.1484055350817
 20
-114.736093729347
 30
0.0
 10
62.28503722759856
 20
-113.7411578247536
 30
0.0
 10
52.06134167432278
 20
-108.9682190666939
 30
0.0
 10
50.39172245456775
 20
-106.9764829955265
 30
0.0
 10
49.72292192165353
 20
-106.1786479149149
 30
0.0
 10
49.28749936991356
 20
-105.421329461331
 30
0.0
 10
49.01744376045553
 20
-104.8862034170418
 30
0.0
 10
49.01744376045553
 20
-104.8862034170418
 30
0.0
 10
48.44762863399475
 20
-104.1692773063544
 30
0.0
 10
47.82753367147152
 20
-105.1915971480279
 30
0.0
  0
HATCH
  5
56
330
1F
100
AcDbEntity
  8
Capa 1
 62
   253
420
 12892830
100
AcDbHatch
 10
0.0
 20
0.0
 30
0.0
210
0.0
220
0.0
230
1.0
  2
SOLID
 70
     1
 71
     0
 91
        1
 92
        1
 93
        1
 72
     4
 94
        3
 73
     0
 74
     1
 95
       41
 96
       37
 40
0.0
 40
0.0
 40
0.0
 40
0.0
 40
1.0
 40
1.0
 40
1.0
 40
2.0
 40
2.0
 40
2.0
 40
3.0
 40
3.0
 40
3.0
 40
4.0
 40
4.0
 40
4.0
 40
5.0
 40
5.0
 40
5.0
 40
6.0
 40
6.0
 40
6.0
 40
7.0
 40
7.0
 40
7.0
 40
8.0
 40
8.0
 40
8.0
 40
9.0
 40
9.0
 40
9.0
 40
10.0
 40
10.0
 40
10.0
 40
11.0
 40
11.0
 40
11.0
 40
12.0
 40
12.0
 40
12.0
 40
12.0
 10
47.82753367147152
 20
-105.1915971480279
 10
48.71043433575388
 20
-106.4458864173813
 10
49.99774175617065
 20
-108.0182878272269
 10
51.79951643627132
 20
-109.5658047919796
 10
53.61884279767846
 20
-111.1283877553987
 10
55.38503078798611
 20
-112.1695021196995
 10
56.76773318437749
 20
-112.8540867373759
 10
61.74166700255554
 20
-115.278676821555
 10
72.44813736185736
 20
-119.6232081766582
 10
86.17311024405758
 20
-118.3309984377014
 10
93.95213692116387
 20
-117.5986058572542
 10
100.1522303668214
 20
-115.2954137513302
 10
104.3235924980234
 20
-113.3199174734081
 10
104.3235924980234
 20
-113.3199174734081
 10
112.5021788501178
 20
-108.7278397460844
 10
113.5077479526701
 20
-105.1915971480279
 10
113.5077479526701
 20
-105.1915971480279
 10
112.9714481138019
 20
-104.5044578009731
 10
112.3010595058687
 20
-105.1915971480279
 10
112.3010595058687
 20
-105.1915971480279
 10
108.6139912089724
 20
-111.5769429970849
 10
98.35720845789231
 20
-114.3925309604933
 10
98.35720845789231
 20
-114.3925309604933
 10
86.89376487870568
 20
-118.548868521073
 10
73.4862136695978
 20
-117.0069995796516
 10
72.05404618867749
 20
-116.8422954860741
 10
68.90101299757772
 20
-116.0400137954077
 10
65.1484055350817
 20
-114.736093729347
 10
62.28503722759856
 20
-113.7411578247536
 10
52.06134167432278
 20
-108.9682190666939
 10
50.39172245456775
 20
-106.9764829955265
 10
49.72292192165353
 20
-106.1786479149149
 10
49.28749936991356
 20
-105.421329461331
 10
49.01744376045553
 20
-104.8862034170418
 10
49.01744376045553
 20
-104.8862034170418
 10
48.44762863399475
 20
-104.1692773063544
 10
47.82753367147152
 20
-105.1915971480279
 97
        0
 97
        0
 75
     2
 76
     1
 98
        0
  0
POLYLINE
  5
57
330
1F
100
AcDbEntity
  8
Capa 1
 62
   250
420
  2103317
370
    25
100
AcDb2dPolyline
 66
     1
 10
0.0
 20
0.0
 30
0.0
  0
VERTEX
  5
58
330
57
100
AcDbEntity
  8
Capa 1
 62
   250
420
  2103317
370
    25
100
AcDbVertex
100
AcDb2dVertex
 10
95.95555553156699
 20
-50.64320986388245
 30
0.0
  0
VERTEX
  5
59
330
57
100
AcDbEntity
  8
Capa 1
 62
   250
420
  2103317
370
    25
100
AcDbVertex
100
AcDb2dVertex
 10
121.8259258954697
 20
-50.64320986388245
 30
0.0
  0
SEQEND
  5
5A
330
57
100
AcDbEntity
  8
Capa 1
 62
   250
420
  2103317
370
    25
  0
POLYLINE
  5
5B
330
1F
100
AcDbEntity
  8
Capa 1
 62
   250
420
  2103317
370
     9
100
AcDb2dPolyline
 66
     1
 10
0.0
 20
0.0
 30
0.0
  0
VERTEX
  5
5C
330
5B
100
AcDbEntity
  8
Capa 1
 62
   250
420
  2103317
370
     9
100
AcDbVertex
100
AcDb2dVertex
 10
108.5379629358283
 20
-50.87839504900958
 30
0.0
  0
VERTEX
  5
5D
330
5B
100
AcDbEntity
  8
Capa 1
 62
   250
420
  2103317
370
     9
100
AcDbVertex
100
AcDb2dVertex
 10
108.5379629358283
 20
-54.48456788761339
 30
0.0
  0
SEQEND
  5
5E
330
5B
100
AcDbEntity
  8
Capa 1
 62
   250
420
  2103317
370
     9
  0
POLYLINE
  5
5F
330
1F
100
AcDbEntity
  8
Capa 1
 62
   250
420
  2103317
370
    25
100
AcDb2dPolyline
 66
     1
 10
0.0
 20
0.0
 30
0.0
  0
VERTEX
  5
60
330
5F
100
AcDbEntity
  8
Capa 1
 62
   250
420
  2103317
370
    25
100
AcDbVertex
100
AcDb2dVertex
 10
96.5827160252369
 20
-54.48456788761339
 30
0.0
  0
VERTEX
  5
61
330
5F
100
AcDbEntity
  8
Capa 1
 62
   250
420
  2103317
370
    25
100
AcDbVertex
100
AcDb2dVertex
 10
124.3345678701506
 20
-54.48456788761339
 30
0.0
  0
SEQEND
  5
62
330
5F
100
AcDbEntity
  8
Capa 1
 62
   250
420
  2103317
370
    25
  0
POLYLINE
  5
63
330
1F
100
AcDbEntity
  8
Capa 1
 62
   250
420
  2103317
370
    18
100
AcDb2dPolyline
 66
     1
 10
0.0
 20
0.0
 30
0.0
  0
VERTEX
  5
64
330
63
100
AcDbEntity
  8
Capa 1
 62
   250
420
  2103317
370
    18
100
AcDbVertex
100
AcDb2dVertex
 10
92.62376540894255
 20
-54.48456788761339
 30
0.0
  0
VERTEX
  5
65
330
63
100
AcDbEntity
  8
Capa 1
 62
   250
420
  2103317
370
    18
100
AcDbVertex
100
AcDb2dVertex
 10
93.76049380372024
 20
-54.48456788761339
 30
0.0
  0
SEQEND
  5
66
330
63
100
AcDbEntity
  8
Capa 1
 62
   250
420
  2103317
370
    18
  0
POLYLINE
  5
67
330
1F
100
AcDbEntity
  8
Capa 1
 62
   250
420
  2103317
370
    18
100
AcDb2dPolyline
 66
     1
 10
0.0
 20
0.0
 30
0.0
  0
VERTEX
  5
68
330
67
100
AcDbEntity
  8
Capa 1
 62
   250
420
  2103317
370
    18
100
AcDbVertex
100
AcDb2dVertex
 10
104.1347736365184
 20
-56.8886831133498
 30
0.0
  0
VERTEX
  5
69
330
67
100
AcDbEntity
  8
Capa 1
 62
   250
420
  2103317
370
    18
100
AcDbVertex
100
AcDb2dVertex
 10
113.6467077905189
 20
-56.8886831133498
 30
0.0
  0
SEQEND
  5
6A
330
67
100
AcDbEntity
  8
Capa 1
 62
   250
420
  2103317
370
    18
  0
POLYLINE
  5
6B
330
1F
100
AcDbEntity
  8
Capa 1
 62
   250
420
  2103317
370
    25
100
AcDb2dPolyline
 66
     1
 10
0.0
 20
0.0
 30
0.0
  0
VERTEX
  5
6C
330
6B
100
AcDbEntity
  8
Capa 1
 62
   250
420
  2103317
370
    25
100
AcDbVertex
100
AcDb2dVertex
 10
104.9999999737534
 20
-63.73518516925085
 30
0.0
  0
VERTEX
  5
6D
330
6B
100
AcDbEntity
  8
Capa 1
 62
   250
420
  2103317
370
    25
100
AcDbVertex
100
AcDb2dVertex
 10
105.548765405715
 20
-63.73518516925085
 30
0.0
  0
SEQEND
  5
6E
330
6B
100
AcDbEntity
  8
Capa 1
 62
   250
420
  2103317
370
    25
  0
POLYLINE
  5
6F
330
1F
100
AcDbEntity
  8
Capa 1
 62
   250
420
  2103317
370
    18
100
AcDb2dPolyline
 66
     1
 10
0.0
 20
0.0
 30
0.0
  0
VERTEX
  5
70
330
6F
100
AcDbEntity
  8
Capa 1
 62
   250
420
  2103317
370
    18
100
AcDbVertex
100
AcDb2dVertex
 10
79.68858022699041
 20
-68.90925924203184
 30
0.0
  0
VERTEX
  5
71
330
6F
100
AcDbEntity
  8
Capa 1
 62
   250
420
  2103317
370
    18
100
AcDbVertex
100
AcDb2dVertex
 10
91.36944442160177
 20
-68.90925924203184
 30
0.0
  0
SEQEND
  5
72
330
6F
100
AcDbEntity
  8
Capa 1
 62
   250
420
  2103317
370
    18
  0
SPLINE
  5
73
330
1F
100
AcDbEntity
  8
Capa 1
 62
   250
420
  2103317
370
    18
100
AcDbSpline
210
0.0
220
0.0
230
1.0
 70
     8
 71
     3
 72
    23
 73
    19
 74
     0
 42
0.0000000001
 43
0.0000000001
 12
1.0
 22
0.0
 32
0.0
 13
1.0
 23
0.0
 33
0.0
 40
0.0
 40
0.0
 40
0.0
 40
0.0
 40
1.0
 40
1.0
 40
1.0
 40
2.0
 40
2.0
 40
2.0
 40
3.0
 40
3.0
 40
3.0
 40
4.0
 40
4.0
 40
4.0
 40
5.0
 40
5.0
 40
5.0
 40
6.0
 40
6.0
 40
6.0
 40
6.0
 10
101.6398500903675
 20
-70.16357260667817
 30
0.0
 10
101.6398500903675
 20
-70.16357260667817
 30
0.0
 10
89.95898469954284
 20
-70.16357260667817
 30
0.0
 10
89.95898469954284
 20
-70.16357260667817
 30
0.0
 10
89.49324547066894
 20
-70.16960076056941
 30
0.0
 10
89.14186726302023
 20
-70.25602622492441
 30
0.0
 10
88.93029533653265
 20
-70.32268027311497
 30
0.0
 10
88.64475075042208
 20
-70.41264215124194
 30
0.0
 10
88.00629381257984
 20
-70.61378439012563
 30
0.0
 10
87.75903285004942
 20
-71.09588967326745
 30
0.0
 10
87.7198502718664
 20
-71.17228627055853
 30
0.0
 10
87.57989326777813
 20
-71.45888281421645
 30
0.0
 10
87.69789317110995
 20
-71.72813003691985
 30
0.0
 10
87.91286712938955
 20
-72.21864300838355
 30
0.0
 10
88.81812518071727
 20
-72.55626992538534
 30
0.0
 10
89.95898469954284
 20
-72.5114379490469
 30
0.0
 10
94.72584489732574
 20
-72.5114379490469
 30
0.0
 10
99.49269432918557
 20
-72.5114379490469
 30
0.0
 10
104.2595545269681
 20
-72.5114379490469
 30
0.0
  0
SPLINE
  5
74
330
1F
100
AcDbEntity
  8
Capa 1
 62
   250
420
  2103317
370
    18
100
AcDbSpline
210
0.0
220
0.0
230
1.0
 70
     8
 71
     3
 72
    23
 73
    19
 74
     0
 42
0.0000000001
 43
0.0000000001
 12
1.0
 22
0.0
 32
0.0
 13
1.0
 23
0.0
 33
0.0
 40
0.0
 40
0.0
 40
0.0
 40
0.0
 40
1.0
 40
1.0
 40
1.0
 40
2.0
 40
2.0
 40
2.0
 40
3.0
 40
3.0
 40
3.0
 40
4.0
 40
4.0
 40
4.0
 40
5.0
 40
5.0
 40
5.0
 40
6.0
 40
6.0
 40
6.0
 40
6.0
 10
75.60201102838174
 20
-72.54024398773615
 30
0.0
 10
78.54126525734615
 20
-72.54024398773615
 30
0.0
 10
81.48051284802288
 20
-72.54024398773615
 30
0.0
 10
84.41976707698699
 20
-72.54024398773615
 30
0.0
 10
85.12322302623461
 20
-72.58617792629649
 30
0.0
 10
85.68140670380662
 20
-72.24025219809182
 30
0.0
 10
85.81396001768053
 20
-71.7376825026586
 30
0.0
 10
85.8867189618271
 20
-71.46181722980685
 30
0.0
 10
85.80042123144035
 20
-71.16817619269328
 30
0.0
 10
85.77626118607542
 20
-71.08990178025897
 30
0.0
 10
85.62379964962989
 20
-70.59594643267236
 30
0.0
 10
85.23012599932284
 20
-70.38986015235864
 30
0.0
 10
85.05405871447316
 20
-70.297687026833
 30
0.0
 10
84.92360309927619
 20
-70.22939463366983
 30
0.0
 10
84.70694268970985
 20
-70.14084484635477
 30
0.0
 10
84.41976707698699
 20
-70.13466852148395
 30
0.0
 10
84.41976707698699
 20
-70.13466852148395
 30
0.0
 10
82.33440682654431
 20
-70.13466902037575
 30
0.0
 10
82.33440682654431
 20
-70.13466902037575
 30
0.0
  0
SPLINE
  5
75
330
1F
100
AcDbEntity
  8
Capa 1
 62
   250
420
  2103317
370
    18
100
AcDbSpline
210
0.0
220
0.0
230
1.0
 70
    11
 71
     3
 72
    35
 73
    31
 74
     0
 42
0.0000000001
 43
0.0000000001
 12
1.0
 22
0.0
 32
0.0
 13
1.0
 23
0.0
 33
0.0
 40
0.0
 40
0.0
 40
0.0
 40
0.0
 40
1.0
 40
1.0
 40
1.0
 40
2.0
 40
2.0
 40
2.0
 40
3.0
 40
3.0
 40
3.0
 40
4.0
 40
4.0
 40
4.0
 40
5.0
 40
5.0
 40
5.0
 40
6.0
 40
6.0
 40
6.0
 40
7.0
 40
7.0
 40
7.0
 40
8.0
 40
8.0
 40
8.0
 40
9.0
 40
9.0
 40
9.0
 40
10.0
 40
10.0
 40
10.0
 40
10.0
 10
95.62238250037284
 20
-73.67850678332645
 30
0.0
 10
95.62238250037284
 20
-73.67850678332645
 30
0.0
 10
93.00267806377191
 20
-73.67850678332645
 30
0.0
 10
93.00267806377191
 20
-73.67850678332645
 30
0.0
 10
93.00267806377191
 20
-73.67850678332645
 30
0.0
 10
81.32180728998586
 20
-73.67850678332645
 30
0.0
 10
81.32180728998586
 20
-73.67850678332645
 30
0.0
 10
80.85606806111194
 20
-73.68570965861093
 30
0.0
 10
80.50468985346356
 20
-73.78897706890113
 30
0.0
 10
80.29311792697534
 20
-73.86862015781499
 30
0.0
 10
80.00757334086508
 20
-73.97611313165426
 30
0.0
 10
79.36911640302284
 20
-74.21645246063053
 30
0.0
 10
79.12185544049244
 20
-74.79250680351272
 30
0.0
 10
79.08267286230941
 20
-74.88379099638489
 30
0.0
 10
78.94271585822113
 20
-75.22623732377869
 30
0.0
 10
79.06071576155264
 20
-75.54795342474397
 30
0.0
 10
79.27568971983223
 20
-76.13405388315472
 30
0.0
 10
80.18094777116028
 20
-76.53747500010513
 30
0.0
 10
81.32180728998586
 20
-76.48390650464762
 30
0.0
 10
86.08866748776875
 20
-76.48390650464762
 30
0.0
 10
90.85552230258995
 20
-76.48390650464762
 30
0.0
 10
95.62238250037284
 20
-76.48390650464762
 30
0.0
 10
95.62238250037284
 20
-76.48390650464762
 30
0.0
 10
96.87134513923193
 20
-76.57440299432366
 30
0.0
 10
97.68900380140921
 20
-76.26494081151492
 30
0.0
 10
98.97376540735536
 20
-75.77869251579428
 30
0.0
 10
99.68505520902727
 20
-74.70296333788157
 30
0.0
 10
97.40586417317915
 20
-73.96079405115661
 30
0.0
 10
96.97916743921417
 20
-73.82184948454785
 30
0.0
 10
96.4651234326738
 20
-73.67850678332645
 30
0.0
 10
95.62238250037284
 20
-73.67850678332645
 30
0.0
  0
SPLINE
  5
76
330
1F
100
AcDbEntity
  8
Capa 1
370
     0
100
AcDbSpline
210
0.0
220
0.0
230
1.0
 70
    11
 71
     3
 72
    77
 73
    73
 74
     0
 42
0.0000000001
 43
0.0000000001
 12
1.0
 22
0.0
 32
0.0
 13
1.0
 23
0.0
 33
0.0
 40
0.0
 40
0.0
 40
0.0
 40
0.0
 40
1.0
 40
1.0
 40
1.0
 40
2.0
 40
2.0
 40
2.0
 40
3.0
 40
3.0
 40
3.0
 40
4.0
 40
4.0
 40
4.0
 40
5.0
 40
5.0
 40
5.0
 40
6.0
 40
6.0
 40
6.0
 40
7.0
 40
7.0
 40
7.0
 40
8.0
 40
8.0
 40
8.0
 40
9.0
 40
9.0
 40
9.0
 40
10.0
 40
10.0
 40
10.0
 40
11.0
 40
11.0
 40
11.0
 40
12.0
 40
12.0
 40
12.0
 40
13.0
 40
13.0
 40
13.0
 40
14.0
 40
14.0
 40
14.0
 40
15.0
 40
15.0
 40
15.0
 40
16.0
 40
16.0
 40
16.0
 40
17.0
 40
17.0
 40
17.0
 40
18.0
 40
18.0
 40
18.0
 40
19.0
 40
19.0
 40
19.0
 40
20.0
 40
20.0
 40
20.0
 40
21.0
 40
21.0
 40
21.0
 40
22.0
 40
22.0
 40
22.0
 40
23.0
 40
23.0
 40
23.0
 40
24.0
 40
24.0
 40
24.0
 40
24.0
 10
33.06246669075436
 20
-159.3077920805147
 30
0.0
 10
41.91144232967136
 20
-150.7269950999965
 30
0.0
 10
83.8770590113455
 20
-149.3862235843881
 30
0.0
 10
83.8770590113455
 20
-149.3862235843881
 30
0.0
 10
84.05906734754356
 20
-149.382570292876
 30
0.0
 10
84.2410147955498
 20
-149.3789305320732
 30
0.0
 10
84.4230231317482
 20
-149.375277240561
 30
0.0
 10
85.51158899129133
 20
-148.0440042828841
 30
0.0
 10
86.60202885407269
 20
-146.714503848125
 30
0.0
 10
87.67733461849829
 20
-145.3735023104585
 30
0.0
 10
86.213927519116
 20
-145.4340387038829
 30
0.0
 10
84.75920036975204
 20
-145.4883374403187
 30
0.0
 10
83.27375174491394
 20
-145.5650565620702
 30
0.0
 10
28.77206820049527
 20
-148.3806753917774
 30
0.0
 10
28.00493110581505
 20
-158.6374266187748
 30
0.0
 10
28.00493110581505
 20
-158.6374266187748
 30
0.0
 10
26.43337304696869
 20
-183.4413952165745
 30
0.0
 10
42.44774552363117
 20
-202.0108324192382
 30
0.0
 10
42.44774552363117
 20
-202.0108324192382
 30
0.0
 10
42.44774552363117
 20
-202.0108324192382
 30
0.0
 10
45.51474463613619
 20
-198.8852250393846
 30
0.0
 10
45.51474463613619
 20
-198.8852250393846
 30
0.0
 10
43.27735390316609
 20
-195.11432460213
 30
0.0
 10
43.22708731810315
 20
-180.7347121274713
 30
0.0
 10
43.22708731810315
 20
-180.7347121274713
 30
0.0
 10
43.22708731810315
 20
-180.7347121274713
 30
0.0
 10
44.19075796541873
 20
-180.8939550452661
 30
0.0
 10
44.19075796541873
 20
-180.8939550452661
 30
0.0
 10
44.59294476876072
 20
-187.1954905128741
 30
0.0
 10
46.73819813672743
 20
-197.5193134658898
 30
0.0
 10
46.73819813672743
 20
-197.5193134658898
 30
0.0
 10
48.34709418789749
 20
-197.6533757336702
 30
0.0
 10
51.43083755316567
 20
-191.0361552872983
 30
0.0
 10
51.43083755316567
 20
-191.0361552872983
 30
0.0
 10
51.43083755316567
 20
-191.0361552872983
 30
0.0
 10
50.76041796858804
 20
-182.7709756319971
 30
0.0
 10
50.76041796858804
 20
-182.7709756319971
 30
0.0
 10
50.76041796858804
 20
-182.7709756319971
 30
0.0
 10
52.63749267815658
 20
-182.905092022615
 30
0.0
 10
52.63749267815658
 20
-182.905092022615
 30
0.0
 10
52.63749267815658
 20
-182.905092022615
 30
0.0
 10
53.03973360433573
 20
-189.6088684164021
 30
0.0
 10
53.03973360433573
 20
-189.6088684164021
 30
0.0
 10
57.46419436237549
 20
-186.2569599234448
 30
0.0
 10
58.13460718159843
 20
-182.6369268949262
 30
0.0
 10
58.13460718159843
 20
-182.6369268949262
 30
0.0
 10
54.51457415307949
 20
-182.5028646271452
 30
0.0
 10
33.33064534915285
 20
-177.5420465523082
 30
0.0
 10
33.33064534915285
 20
-177.5420465523082
 30
0.0
 10
33.33064534915285
 20
-177.5420465523082
 30
0.0
 10
33.59876650203683
 20
-174.8605441132194
 30
0.0
 10
33.59876650203683
 20
-174.8605441132194
 30
0.0
 10
35.34172820366457
 20
-176.2013156288278
 30
0.0
 10
60.95017188846845
 20
-180.2235489913975
 30
0.0
 10
60.95017188846845
 20
-180.2235489913975
 30
0.0
 10
60.95017188846845
 20
-180.2235489913975
 30
0.0
 10
64.16797075616262
 20
-175.9331505011384
 30
0.0
 10
64.16797075616262
 20
-175.9331505011384
 30
0.0
 10
51.29672116254785
 20
-175.3968473071789
 30
0.0
 10
32.25804572658824
 20
-170.1679046967806
 30
0.0
 10
32.25804572658824
 20
-170.1679046967806
 30
0.0
 10
32.25804572658824
 20
-170.1679046967806
 30
0.0
 10
32.66022914725256
 20
-167.8886431838704
 30
0.0
 10
32.66022914725256
 20
-167.8886431838704
 30
0.0
 10
35.34172820366457
 20
-169.6316015028211
 30
0.0
 10
65.77686680733267
 20
-173.9219999930802
 30
0.0
 10
65.77686680733267
 20
-173.9219999930802
 30
0.0
 10
67.92212017529938
 20
-172.0449794063491
 30
0.0
 10
69.53102299182413
 20
-168.1567677194317
 30
0.0
 10
69.53102299182413
 20
-168.1567677194317
 30
0.0
 10
34.67136950727911
 20
-164.6708510815309
 30
0.0
 10
33.06246669075436
 20
-159.3077920805147
 30
0.0
 10
33.06246669075436
 20
-159.3077920805147
 30
0.0
  0
HATCH
  5
77
330
1F
100
AcDbEntity
  8
Capa 1
 62
   250
420
  2103317
100
AcDbHatch
 10
0.0
 20
0.0
 30
0.0
210
0.0
220
0.0
230
1.0
  2
SOLID
 70
     1
 71
     0
 91
        1
 92
        1
 93
        1
 72
     4
 94
        3
 73
     0
 74
     1
 95
       77
 96
       73
 40
0.0
 40
0.0
 40
0.0
 40
0.0
 40
1.0
 40
1.0
 40
1.0
 40
2.0
 40
2.0
 40
2.0
 40
3.0
 40
3.0
 40
3.0
 40
4.0
 40
4.0
 40
4.0
 40
5.0
 40
5.0
 40
5.0
 40
6.0
 40
6.0
 40
6.0
 40
7.0
 40
7.0
 40
7.0
 40
8.0
 40
8.0
 40
8.0
 40
9.0
 40
9.0
 40
9.0
 40
10.0
 40
10.0
 40
10.0
 40
11.0
 40
11.0
 40
11.0
 40
12.0
 40
12.0
 40
12.0
 40
13.0
 40
13.0
 40
13.0
 40
14.0
 40
14.0
 40
14.0
 40
15.0
 40
15.0
 40
15.0
 40
16.0
 40
16.0
 40
16.0
 40
17.0
 40
17.0
 40
17.0
 40
18.0
 40
18.0
 40
18.0
 40
19.0
 40
19.0
 40
19.0
 40
20.0
 40
20.0
 40
20.0
 40
21.0
 40
21.0
 40
21.0
 40
22.0
 40
22.0
 40
22.0
 40
23.0
 40
23.0
 40
23.0
 40
24.0
 40
24.0
 40
24.0
 40
24.0
 10
33.06246669075436
 20
-159.3077920805147
 10
41.91144232967136
 20
-150.7269950999965
 10
83.8770590113455
 20
-149.3862235843881
 10
83.8770590113455
 20
-149.3862235843881
 10
84.05906734754356
 20
-149.382570292876
 10
84.2410147955498
 20
-149.3789305320732
 10
84.4230231317482
 20
-149.375277240561
 10
85.51158899129133
 20
-148.0440042828841
 10
86.60202885407269
 20
-146.714503848125
 10
87.67733461849829
 20
-145.3735023104585
 10
86.213927519116
 20
-145.4340387038829
 10
84.75920036975204
 20
-145.4883374403187
 10
83.27375174491394
 20
-145.5650565620702
 10
28.77206820049527
 20
-148.3806753917774
 10
28.00493110581505
 20
-158.6374266187748
 10
28.00493110581505
 20
-158.6374266187748
 10
26.43337304696869
 20
-183.4413952165745
 10
42.44774552363117
 20
-202.0108324192382
 10
42.44774552363117
 20
-202.0108324192382
 10
42.44774552363117
 20
-202.0108324192382
 10
45.51474463613619
 20
-198.8852250393846
 10
45.51474463613619
 20
-198.8852250393846
 10
43.27735390316609
 20
-195.11432460213
 10
43.22708731810315
 20
-180.7347121274713
 10
43.22708731810315
 20
-180.7347121274713
 10
43.22708731810315
 20
-180.7347121274713
 10
44.19075796541873
 20
-180.8939550452661
 10
44.19075796541873
 20
-180.8939550452661
 10
44.59294476876072
 20
-187.1954905128741
 10
46.73819813672743
 20
-197.5193134658898
 10
46.73819813672743
 20
-197.5193134658898
 10
48.34709418789749
 20
-197.6533757336702
 10
51.43083755316567
 20
-191.0361552872983
 10
51.43083755316567
 20
-191.0361552872983
 10
51.43083755316567
 20
-191.0361552872983
 10
50.76041796858804
 20
-182.7709756319971
 10
50.76041796858804
 20
-182.7709756319971
 10
50.76041796858804
 20
-182.7709756319971
 10
52.63749267815658
 20
-182.905092022615
 10
52.63749267815658
 20
-182.905092022615
 10
52.63749267815658
 20
-182.905092022615
 10
53.03973360433573
 20
-189.6088684164021
 10
53.03973360433573
 20
-189.6088684164021
 10
57.46419436237549
 20
-186.2569599234448
 10
58.13460718159843
 20
-182.6369268949262
 10
58.13460718159843
 20
-182.6369268949262
 10
54.51457415307949
 20
-182.5028646271452
 10
33.33064534915285
 20
-177.5420465523082
 10
33.33064534915285
 20
-177.5420465523082
 10
33.33064534915285
 20
-177.5420465523082
 10
33.59876650203683
 20
-174.8605441132194
 10
33.59876650203683
 20
-174.8605441132194
 10
35.34172820366457
 20
-176.2013156288278
 10
60.95017188846845
 20
-180.2235489913975
 10
60.95017188846845
 20
-180.2235489913975
 10
60.95017188846845
 20
-180.2235489913975
 10
64.16797075616262
 20
-175.9331505011384
 10
64.16797075616262
 20
-175.9331505011384
 10
51.29672116254785
 20
-175.3968473071789
 10
32.25804572658824
 20
-170.1679046967806
 10
32.25804572658824
 20
-170.1679046967806
 10
32.25804572658824
 20
-170.1679046967806
 10
32.66022914725256
 20
-167.8886431838704
 10
32.66022914725256
 20
-167.8886431838704
 10
35.34172820366457
 20
-169.6316015028211
 10
65.77686680733267
 20
-173.9219999930802
 10
65.77686680733267
 20
-173.9219999930802
 10
67.92212017529938
 20
-172.0449794063491
 10
69.53102299182413
 20
-168.1567677194317
 10
69.53102299182413
 20
-168.1567677194317
 10
34.67136950727911
 20
-164.6708510815309
 10
33.06246669075436
 20
-159.3077920805147
 10
33.06246669075436
 20
-159.3077920805147
 97
        0
 97
        0
 75
     2
 76
     1
 98
        0
  0
SPLINE
  5
78
330
1F
100
AcDbEntity
  8
Capa 1
370
     0
100
AcDbSpline
210
0.0
220
0.0
230
1.0
 70
    11
 71
     3
 72
    23
 73
    19
 74
     0
 42
0.0000000001
 43
0.0000000001
 12
1.0
 22
0.0
 32
0.0
 13
1.0
 23
0.0
 33
0.0
 40
0.0
 40
0.0
 40
0.0
 40
0.0
 40
1.0
 40
1.0
 40
1.0
 40
2.0
 40
2.0
 40
2.0
 40
3.0
 40
3.0
 40
3.0
 40
4.0
 40
4.0
 40
4.0
 40
5.0
 40
5.0
 40
5.0
 40
6.0
 40
6.0
 40
6.0
 40
6.0
 10
97.08371038547311
 20
-147.92646117258
 30
0.0
 10
96.76968581198764
 20
-148.3366540455275
 30
0.0
 10
96.44234902703194
 20
-148.7355784905064
 30
0.0
 10
96.1229664265236
 20
-149.1412418973093
 30
0.0
 10
96.74035475683921
 20
-149.128923958895
 30
0.0
 10
97.43021454545054
 20
-149.1151146108961
 30
0.0
 10
98.004683422187
 20
-149.103625233362
 30
0.0
 10
99.01585912002743
 20
-147.9739653296948
 30
0.0
 10
100.0251015091477
 20
-146.8451892242996
 30
0.0
 10
101.0107022944946
 20
-145.7043713674498
 30
0.0
 10
101.2132578109359
 20
-145.4698886384362
 30
0.0
 10
101.4250932092327
 20
-145.2497123939482
 30
0.0
 10
101.6318467674658
 20
-145.0218029145815
 30
0.0
 10
100.8647098674543
 20
-145.0288180633653
 30
0.0
 10
99.78829880966947
 20
-145.0387607939245
 30
0.0
 10
99.07115174941262
 20
-145.0456102305319
 30
0.0
 10
98.40730877243041
 20
-146.0696010033134
 30
0.0
 10
97.75208282859931
 20
-147.0533789547255
 30
0.0
 10
97.08371038547311
 20
-147.92646117258
 30
0.0
  0
HATCH
  5
79
330
1F
100
AcDbEntity
  8
Capa 1
 62
   250
420
  2103317
100
AcDbHatch
 10
0.0
 20
0.0
 30
0.0
210
0.0
220
0.0
230
1.0
  2
SOLID
 70
     1
 71
     0
 91
        1
 92
        1
 93
        1
 72
     4
 94
        3
 73
     0
 74
     1
 95
       23
 96
       19
 40
0.0
 40
0.0
 40
0.0
 40
0.0
 40
1.0
 40
1.0
 40
1.0
 40
2.0
 40
2.0
 40
2.0
 40
3.0
 40
3.0
 40
3.0
 40
4.0
 40
4.0
 40
4.0
 40
5.0
 40
5.0
 40
5.0
 40
6.0
 40
6.0
 40
6.0
 40
6.0
 10
97.08371038547311
 20
-147.92646117258
 10
96.76968581198764
 20
-148.3366540455275
 10
96.44234902703194
 20
-148.7355784905064
 10
96.1229664265236
 20
-149.1412418973093
 10
96.74035475683921
 20
-149.128923958895
 10
97.43021454545054
 20
-149.1151146108961
 10
98.004683422187
 20
-149.103625233362
 10
99.01585912002743
 20
-147.9739653296948
 10
100.0251015091477
 20
-146.8451892242996
 10
101.0107022944946
 20
-145.7043713674498
 10
101.2132578109359
 20
-145.4698886384362
 10
101.4250932092327
 20
-145.2497123939482
 10
101.6318467674658
 20
-145.0218029145815
 10
100.8647098674543
 20
-145.0288180633653
 10
99.78829880966947
 20
-145.0387607939245
 10
99.07115174941262
 20
-145.0456102305319
 10
98.40730877243041
 20
-146.0696010033134
 10
97.75208282859931
 20
-147.0533789547255
 10
97.08371038547311
 20
-147.92646117258
 97
        0
 97
        0
 75
     2
 76
     1
 98
        0
  0
INSERT
  5
7B
330
1F
100
AcDbEntity
  8
Capa 1
100
AcDbBlockReference
  2
block 2
 10
0.0
 20
0.0
 30
0.0
  0
IMAGE
  5
83
330
1F
100
AcDbEntity
  8
Capa 1
160
                 8
310
0800000000000000
100
AcDbRasterImage
 90
        0
 10
29.085068236045
 20
-173.9586419318184
 30
0.0
 11
0.1576312806389149
 21
0.0
 31
0.0
 12
0.0
 22
0.1552589698685924
 32
0.0
 13
1024.0
 23
1024.0
340
82
 70
     3
280
     0
281
    50
282
    50
283
     0
360
84
 71
     1
 91
        2
 14
-0.5
 24
-0.5
 14
1023.5
 24
1023.5
290
     0
  0
SPLINE
  5
85
330
1F
100
AcDbEntity
  8
Capa 1
370
     0
100
AcDbSpline
210
0.0
220
0.0
230
1.0
 70
    11
 71
     3
 72
    35
 73
    31
 74
     0
 42
0.0000000001
 43
0.0000000001
 12
1.0
 22
0.0
 32
0.0
 13
1.0
 23
0.0
 33
0.0
 40
0.0
 40
0.0
 40
0.0
 40
0.0
 40
1.0
 40
1.0
 40
1.0
 40
2.0
 40
2.0
 40
2.0
 40
3.0
 40
3.0
 40
3.0
 40
4.0
 40
4.0
 40
4.0
 40
5.0
 40
5.0
 40
5.0
 40
6.0
 40
6.0
 40
6.0
 40
7.0
 40
7.0
 40
7.0
 40
8.0
 40
8.0
 40
8.0
 40
9.0
 40
9.0
 40
9.0
 40
10.0
 40
10.0
 40
10.0
 40
10.0
 10
27.89639385231315
 20
-224.468489726001
 30
0.0
 10
27.89639385231315
 20
-224.468489726001
 30
0.0
 10
25.95646629864512
 20
-224.8707161395269
 30
0.0
 10
46.60408885951608
 20
-201.2734332128171
 30
0.0
 10
46.60408885951608
 20
-201.2734332128171
 30
0.0
 10
75.29623969085715
 20
-166.547886178625
 30
0.0
 10
96.34608866525141
 20
-139.0624145878548
 30
0.0
 10
96.34608866525141
 20
-139.0624145878548
 30
0.0
 10
138.2781922750732
 20
-82.71719782677638
 30
0.0
 10
154.7694752295335
 20
-65.52201864864834
 30
0.0
 10
154.7694752295335
 20
-65.52201864864834
 30
0.0
 10
159.2945223816712
 20
-66.52758468245595
 30
0.0
 10
160.7023148290034
 20
-70.9520752312151
 30
0.0
 10
160.7023148290034
 20
-70.9520752312151
 30
0.0
 10
75.69846610437949
 20
-169.4975465444631
 30
0.0
 10
75.69846610437949
 20
-172.7153578526515
 30
0.0
 10
75.69846610437949
 20
-172.7153578526515
 30
0.0
 10
167.1379374453813
 20
-84.76184876218744
 30
0.0
 10
175.4506166581981
 20
-76.98547143406714
 30
0.0
 10
175.4506166581981
 20
-76.98547143406714
 30
0.0
 10
180.6795600340016
 20
-82.4155280166339
 30
0.0
 10
178.2662015528611
 20
-84.56073555542547
 30
0.0
 10
178.2662015528611
 20
-84.56073555542547
 30
0.0
 10
82.97206041559534
 20
-173.720923886459
 30
0.0
 10
79.05035288374127
 20
-175.4303861439337
 30
0.0
 10
79.05035288374127
 20
-175.4303861439337
 30
0.0
 10
31.68819269135339
 20
-222.3241564868609
 30
0.0
 10
30.17984364064102
 20
-224.4689268758297
 30
0.0
 10
30.17984364064102
 20
-224.4689268758297
 30
0.0
 10
26.58144105072636
 20
-226.8103558608738
 30
0.0
 10
27.89639385231315
 20
-224.468489726001
 30
0.0
  0
HATCH
  5
86
330
1F
100
AcDbEntity
  8
Capa 1
 62
   250
420
  2103317
100
AcDbHatch
 10
0.0
 20
0.0
 30
0.0
210
0.0
220
0.0
230
1.0
  2
SOLID
 70
     1
 71
     0
 91
        1
 92
        1
 93
        1
 72
     4
 94
        3
 73
     0
 74
     1
 95
       35
 96
       31
 40
0.0
 40
0.0
 40
0.0
 40
0.0
 40
1.0
 40
1.0
 40
1.0
 40
2.0
 40
2.0
 40
2.0
 40
3.0
 40
3.0
 40
3.0
 40
4.0
 40
4.0
 40
4.0
 40
5.0
 40
5.0
 40
5.0
 40
6.0
 40
6.0
 40
6.0
 40
7.0
 40
7.0
 40
7.0
 40
8.0
 40
8.0
 40
8.0
 40
9.0
 40
9.0
 40
9.0
 40
10.0
 40
10.0
 40
10.0
 40
10.0
 10
27.89639385231315
 20
-224.468489726001
 10
27.89639385231315
 20
-224.468489726001
 10
25.95646629864512
 20
-224.8707161395269
 10
46.60408885951608
 20
-201.2734332128171
 10
46.60408885951608
 20
-201.2734332128171
 10
75.29623969085715
 20
-166.547886178625
 10
96.34608866525141
 20
-139.0624145878548
 10
96.34608866525141
 20
-139.0624145878548
 10
138.2781922750732
 20
-82.71719782677638
 10
154.7694752295335
 20
-65.52201864864834
 10
154.7694752295335
 20
-65.52201864864834
 10
159.2945223816712
 20
-66.52758468245595
 10
160.7023148290034
 20
-70.9520752312151
 10
160.7023148290034
 20
-70.9520752312151
 10
75.69846610437949
 20
-169.4975465444631
 10
75.69846610437949
 20
-172.7153578526515
 10
75.69846610437949
 20
-172.7153578526515
 10
167.1379374453813
 20
-84.76184876218744
 10
175.4506166581981
 20
-76.98547143406714
 10
175.4506166581981
 20
-76.98547143406714
 10
180.6795600340016
 20
-82.4155280166339
 10
178.2662015528611
 20
-84.56073555542547
 10
178.2662015528611
 20
-84.56073555542547
 10
82.97206041559534
 20
-173.720923886459
 10
79.05035288374127
 20
-175.4303861439337
 10
79.05035288374127
 20
-175.4303861439337
 10
31.68819269135339
 20
-222.3241564868609
 10
30.17984364064102
 20
-224.4689268758297
 10
30.17984364064102
 20
-224.4689268758297
 10
26.58144105072636
 20
-226.8103558608738
 10
27.89639385231315
 20
-224.468489726001
 97
        0
 97
        0
 75
     2
 76
     1
 98
        0
  0
SPLINE
  5
87
330
1F
100
AcDbEntity
  8
Capa 1
370
     0
100
AcDbSpline
210
0.0
220
0.0
230
1.0
 70
    11
 71
     3
 72
    65
 73
    61
 74
     0
 42
0.0000000001
 43
0.0000000001
 12
1.0
 22
0.0
 32
0.0
 13
1.0
 23
0.0
 33
0.0
 40
0.0
 40
0.0
 40
0.0
 40
0.0
 40
1.0
 40
1.0
 40
1.0
 40
2.0
 40
2.0
 40
2.0
 40
3.0
 40
3.0
 40
3.0
 40
4.0
 40
4.0
 40
4.0
 40
5.0
 40
5.0
 40
5.0
 40
6.0
 40
6.0
 40
6.0
 40
7.0
 40
7.0
 40
7.0
 40
8.0
 40
8.0
 40
8.0
 40
9.0
 40
9.0
 40
9.0
 40
10.0
 40
10.0
 40
10.0
 40
11.0
 40
11.0
 40
11.0
 40
12.0
 40
12.0
 40
12.0
 40
13.0
 40
13.0
 40
13.0
 40
14.0
 40
14.0
 40
14.0
 40
15.0
 40
15.0
 40
15.0
 40
16.0
 40
16.0
 40
16.0
 40
17.0
 40
17.0
 40
17.0
 40
18.0
 40
18.0
 40
18.0
 40
19.0
 40
19.0
 40
19.0
 40
20.0
 40
20.0
 40
20.0
 40
20.0
 10
110.1058546002947
 20
-43.50925207109969
 30
0.0
 10
89.10711481197887
 20
-43.50925207109969
 30
0.0
 10
72.08425206395594
 20
-60.53211481912262
 30
0.0
 10
72.08425206395594
 20
-81.53085460743847
 30
0.0
 10
72.08425206395594
 20
-90.44693397803931
 30
0.0
 10
75.15546856166904
 20
-98.6442803030299
 30
0.0
 10
80.29479741102472
 20
-105.1279069425769
 30
0.0
 10
80.43385007754779
 20
-104.8587803896382
 30
0.0
 10
80.63997444679964
 20
-104.6257412119078
 30
0.0
 10
80.91497919390972
 20
-104.4670515011188
 30
0.0
 10
83.61414691106293
 20
-102.9096530233177
 30
0.0
 10
86.70795031605088
 20
-103.0432366007583
 30
0.0
 10
89.7231409484351
 20
-102.9719015923668
 30
0.0
 10
90.3992194055686
 20
-102.9559034302072
 30
0.0
 10
90.86217564324583
 20
-103.2326953206003
 30
0.0
 10
91.13298168023357
 20
-103.6331230752202
 30
0.0
 10
92.1978606947243
 20
-103.5843534422571
 30
0.0
 10
93.26779969320866
 20
-103.6573464028509
 30
0.0
 10
94.34699738581028
 20
-103.9756516938412
 30
0.0
 10
94.77089485342317
 20
-104.1006871281089
 30
0.0
 10
95.10750221417918
 20
-104.3764670217032
 30
0.0
 10
95.33186405765608
 20
-104.720395210365
 30
0.0
 10
95.50050148165906
 20
-104.7116963442648
 30
0.0
 10
95.6690527782749
 20
-104.7022438635271
 30
0.0
 10
95.83797011628573
 20
-104.69660251967
 30
0.0
 10
97.11956716864546
 20
-104.6537110808787
 30
0.0
 10
97.67554098442443
 20
-105.7551511712066
 30
0.0
 10
97.51181282148794
 20
-106.7385321456244
 30
0.0
 10
104.0917083480008
 20
-107.0068620202321
 30
0.0
 10
110.6433110278405
 20
-107.8626237387682
 30
0.0
 10
117.2244769333132
 20
-108.0537619426589
 30
0.0
 10
118.7444315295587
 20
-108.0140787490381
 30
0.0
 10
120.2648598264334
 20
-108.0032912938
 30
0.0
 10
121.7867307570425
 20
-108.0675853882934
 30
0.0
 10
123.2392691410109
 20
-108.1289511516244
 30
0.0
 10
123.759047922348
 20
-109.5309327593469
 30
0.0
 10
123.3508687028862
 20
-110.5491307300125
 30
0.0
 10
123.4827943281245
 20
-110.5570544496285
 30
0.0
 10
123.6147199533628
 20
-110.5641384272201
 30
0.0
 10
123.7466025149075
 20
-110.5762393251123
 30
0.0
 10
125.9924387298951
 20
-110.782148375896
 30
0.0
 10
126.0065205576911
 20
-114.3112180635988
 30
0.0
 10
123.7466025149075
 20
-114.1040171020082
 30
0.0
 10
123.4586355960342
 20
-114.0776190578521
 30
0.0
 10
123.171056250403
 20
-114.0645061631614
 30
0.0
 10
122.8836060958525
 20
-114.0573575900295
 30
0.0
 10
123.0196873675198
 20
-114.2163918103674
 30
0.0
 10
123.1205856015441
 20
-114.3978622150529
 30
0.0
 10
123.1850519508118
 20
-114.5925101099695
 30
0.0
 10
123.7511672664255
 20
-115.2045097910774
 30
0.0
 10
123.847285430464
 20
-116.1637750970984
 30
0.0
 10
123.488995499998
 20
-116.826589936614
 30
0.0
 10
123.4871437611747
 20
-116.9300719922519
 30
0.0
 10
123.4780788536791
 20
-117.0333817931161
 30
0.0
 10
123.4605949940915
 20
-117.1352704920924
 30
0.0
 10
137.870094434391
 20
-111.7277194273632
 30
0.0
 10
148.1274786684803
 20
-97.82925683860692
 30
0.0
 10
148.1274786684803
 20
-81.53085460743847
 30
0.0
 10
148.1274786684803
 20
-60.53211481912262
 30
0.0
 10
131.1046159204573
 20
-43.50925207109969
 30
0.0
 10
110.1058546002947
 20
-43.50925207109969
 30
0.0
  0
SPLINE
  5
88
330
1F
100
AcDbEntity
  8
Capa 1
370
     0
100
AcDbSpline
210
0.0
220
0.0
230
1.0
 70
    11
 71
     3
 72
    50
 73
    46
 74
     0
 42
0.0000000001
 43
0.0000000001
 12
1.0
 22
0.0
 32
0.0
 13
1.0
 23
0.0
 33
0.0
 40
0.0
 40
0.0
 40
0.0
 40
0.0
 40
1.0
 40
1.0
 40
1.0
 40
2.0
 40
2.0
 40
2.0
 40
3.0
 40
3.0
 40
3.0
 40
4.0
 40
4.0
 40
4.0
 40
5.0
 40
5.0
 40
5.0
 40
6.0
 40
6.0
 40
6.0
 40
7.0
 40
7.0
 40
7.0
 40
8.0
 40
8.0
 40
8.0
 40
9.0
 40
9.0
 40
9.0
 40
10.0
 40
10.0
 40
10.0
 40
11.0
 40
11.0
 40
11.0
 40
12.0
 40
12.0
 40
12.0
 40
13.0
 40
13.0
 40
13.0
 40
14.0
 40
14.0
 40
14.0
 40
15.0
 40
15.0
 40
15.0
 40
15.0
 10
113.3200640924925
 20
-118.7293161731175
 30
0.0
 10
112.8395378678405
 20
-118.6963724475395
 30
0.0
 10
112.4619123389635
 20
-118.5095621448518
 30
0.0
 10
112.185464958119
 20
-118.2387561078644
 30
0.0
 10
111.7896450187106
 20
-118.2179994075657
 30
0.0
 10
111.3937604837618
 20
-118.195369436597
 30
0.0
 10
110.997983608047
 20
-118.1751295006212
 30
0.0
 10
110.7096506477783
 20
-118.5101435047149
 30
0.0
 10
110.2820281706717
 20
-118.7355819405309
 30
0.0
 10
109.7138888614604
 20
-118.7293161731175
 30
0.0
 10
108.0131744114733
 20
-118.7105834664161
 30
0.0
 10
106.3322692605263
 20
-118.2517398114747
 30
0.0
 10
104.6540340585807
 20
-117.8109829078303
 30
0.0
 10
102.3117782336994
 20
-117.6470394264262
 30
0.0
 10
99.97335507754605
 20
-117.4330774649451
 30
0.0
 10
97.6425111314596
 20
-117.0984079704002
 30
0.0
 10
96.8350238134106
 20
-116.9824589754744
 30
0.0
 10
96.4216554188742
 20
-116.2644364808083
 30
0.0
 10
96.38623553091679
 20
-115.5162263369521
 30
0.0
 10
96.0746481761224
 20
-115.2232640296252
 30
0.0
 10
95.93038480267757
 20
-114.8247310775224
 30
0.0
 10
95.9179393952371
 20
-114.4129775714944
 30
0.0
 10
95.52577986978176
 20
-114.3422885185065
 30
0.0
 10
95.13355574878607
 20
-114.2722023572284
 30
0.0
 10
94.74189145580704
 20
-114.197788294747
 30
0.0
 10
93.13372088329241
 20
-113.8922513888989
 30
0.0
 10
93.19601251603477
 20
-112.1613923534158
 30
0.0
 10
94.11212800110337
 20
-111.2642033616696
 30
0.0
 10
92.28818679197786
 20
-111.0953936828924
 30
0.0
 10
90.46583893951494
 20
-110.9095092496164
 30
0.0
 10
88.64303891826926
 20
-110.7330127015377
 30
0.0
 10
87.56239859193352
 20
-110.62838945802
 30
0.0
 10
86.45874072138662
 20
-110.4948920079666
 30
0.0
 10
85.44704536844944
 20
-110.1395088768163
 30
0.0
 10
85.34203455168999
 20
-110.1594258350904
 30
0.0
 10
85.23685148015564
 20
-110.179622707373
 30
0.0
 10
85.13184066339586
 20
-110.1994320064131
 30
0.0
 10
91.81233297807773
 20
-116.0239042203972
 30
0.0
 10
100.5467266255252
 20
-119.5524571437773
 30
0.0
 10
110.1058546002947
 20
-119.5524571437773
 30
0.0
 10
112.8434351321082
 20
-119.5524571437773
 30
0.0
 10
115.512070690523
 20
-119.2594948364503
 30
0.0
 10
118.0855570180047
 20
-118.709700660698
 30
0.0
 10
116.4977340406998
 20
-118.7831888537678
 30
0.0
 10
114.9102125092499
 20
-118.8383534452256
 30
0.0
 10
113.3200640924925
 20
-118.7293161731175
 30
0.0
  0
SPLINE
  5
89
330
1F
100
AcDbEntity
  8
Capa 1
370
     0
100
AcDbSpline
210
0.0
220
0.0
230
1.0
 70
    11
 71
     3
 72
    17
 73
    13
 74
     0
 42
0.0000000001
 43
0.0000000001
 12
1.0
 22
0.0
 32
0.0
 13
1.0
 23
0.0
 33
0.0
 40
0.0
 40
0.0
 40
0.0
 40
0.0
 40
1.0
 40
1.0
 40
1.0
 40
2.0
 40
2.0
 40
2.0
 40
3.0
 40
3.0
 40
3.0
 40
4.0
 40
4.0
 40
4.0
 40
4.0
 10
128.2837288298259
 20
-97.0064666993545
 30
0.0
 10
127.927613363642
 20
-97.4461563396256
 30
0.0
 10
127.5761378383843
 20
-97.88965735994431
 30
0.0
 10
127.2220109183111
 20
-98.33111459675945
 30
0.0
 10
132.6577569522532
 20
-98.27090583948667
 30
0.0
 10
135.948635055073
 20
-98.229919694627
 30
0.0
 10
135.948635055073
 20
-98.229919694627
 30
0.0
 10
135.948635055073
 20
-98.229919694627
 30
0.0
 10
137.0547638297508
 20
-97.0064666993545
 30
0.0
 10
137.0547638297508
 20
-97.0064666993545
 30
0.0
 10
137.0547638297508
 20
-97.0064666993545
 30
0.0
 10
128.2837288298259
 20
-97.0064666993545
 30
0.0
 10
128.2837288298259
 20
-97.0064666993545
 30
0.0
  0
HATCH
  5
8A
330
1F
100
AcDbEntity
  8
Capa 1
 62
   244
420
 10490151
100
AcDbHatch
 10
0.0
 20
0.0
 30
0.0
210
0.0
220
0.0
230
1.0
  2
SOLID
 70
     1
 71
     0
 91
        1
 92
        1
 93
        1
 72
     4
 94
        3
 73
     0
 74
     1
 95
       17
 96
       13
 40
0.0
 40
0.0
 40
0.0
 40
0.0
 40
1.0
 40
1.0
 40
1.0
 40
2.0
 40
2.0
 40
2.0
 40
3.0
 40
3.0
 40
3.0
 40
4.0
 40
4.0
 40
4.0
 40
4.0
 10
128.2837288298259
 20
-97.0064666993545
 10
127.927613363642
 20
-97.4461563396256
 10
127.5761378383843
 20
-97.88965735994431
 10
127.2220109183111
 20
-98.33111459675945
 10
132.6577569522532
 20
-98.27090583948667
 10
135.948635055073
 20
-98.229919694627
 10
135.948635055073
 20
-98.229919694627
 10
135.948635055073
 20
-98.229919694627
 10
137.0547638297508
 20
-97.0064666993545
 10
137.0547638297508
 20
-97.0064666993545
 10
137.0547638297508
 20
-97.0064666993545
 10
128.2837288298259
 20
-97.0064666993545
 10
128.2837288298259
 20
-97.0064666993545
 97
        0
 97
        0
 75
     2
 76
     1
 98
        0
  0
SPLINE
  5
8B
330
1F
100
AcDbEntity
  8
Capa 1
370
     0
100
AcDbSpline
210
0.0
220
0.0
230
1.0
 70
    11
 71
     3
 72
    17
 73
    13
 74
     0
 42
0.0000000001
 43
0.0000000001
 12
1.0
 22
0.0
 32
0.0
 13
1.0
 23
0.0
 33
0.0
 40
0.0
 40
0.0
 40
0.0
 40
0.0
 40
1.0
 40
1.0
 40
1.0
 40
2.0
 40
2.0
 40
2.0
 40
3.0
 40
3.0
 40
3.0
 40
4.0
 40
4.0
 40
4.0
 40
4.0
 10
132.3575417267672
 20
-91.90313929043143
 30
0.0
 10
130.8640331220357
 20
-93.83611658586558
 30
0.0
 10
129.3164471105431
 20
-95.7252906294484
 30
0.0
 10
127.7817866487775
 20
-97.6266721366618
 30
0.0
 10
131.6749180365066
 20
-97.47300171213455
 30
0.0
 10
134.8650431363286
 20
-97.27005953394936
 30
0.0
 10
137.0882929266911
 20
-97.0064666993545
 30
0.0
 10
137.0882929266911
 20
-97.0064666993545
 30
0.0
 10
137.9933023571191
 20
-95.69921858042693
 30
0.0
 10
139.1999631852247
 20
-91.67694217021645
 30
0.0
 10
139.1999631852247
 20
-91.67694217021645
 30
0.0
 10
136.690694179119
 20
-91.77040383746994
 30
0.0
 10
132.3575417267672
 20
-91.90313929043143
 30
0.0
  0
HATCH
  5
8C
330
1F
100
AcDbEntity
  8
Capa 1
 62
    12
420
 12519184
100
AcDbHatch
 10
0.0
 20
0.0
 30
0.0
210
0.0
220
0.0
230
1.0
  2
SOLID
 70
     1
 71
     0
 91
        1
 92
        1
 93
        1
 72
     4
 94
        3
 73
     0
 74
     1
 95
       17
 96
       13
 40
0.0
 40
0.0
 40
0.0
 40
0.0
 40
1.0
 40
1.0
 40
1.0
 40
2.0
 40
2.0
 40
2.0
 40
3.0
 40
3.0
 40
3.0
 40
4.0
 40
4.0
 40
4.0
 40
4.0
 10
132.3575417267672
 20
-91.90313929043143
 10
130.8640331220357
 20
-93.83611658586558
 10
129.3164471105431
 20
-95.7252906294484
 10
127.7817866487775
 20
-97.6266721366618
 10
131.6749180365066
 20
-97.47300171213455
 10
134.8650431363286
 20
-97.27005953394936
 10
137.0882929266911
 20
-97.0064666993545
 10
137.0882929266911
 20
-97.0064666993545
 10
137.9933023571191
 20
-95.69921858042693
 10
139.1999631852247
 20
-91.67694217021645
 10
139.1999631852247
 20
-91.67694217021645
 10
136.690694179119
 20
-91.77040383746994
 10
132.3575417267672
 20
-91.90313929043143
 97
        0
 97
        0
 75
     2
 76
     1
 98
        0
  0
SPLINE
  5
8D
330
1F
100
AcDbEntity
  8
Capa 1
370
     0
100
AcDbSpline
210
0.0
220
0.0
230
1.0
 70
    11
 71
     3
 72
    41
 73
    37
 74
     0
 42
0.0000000001
 43
0.0000000001
 12
1.0
 22
0.0
 32
0.0
 13
1.0
 23
0.0
 33
0.0
 40
0.0
 40
0.0
 40
0.0
 40
0.0
 40
1.0
 40
1.0
 40
1.0
 40
2.0
 40
2.0
 40
2.0
 40
3.0
 40
3.0
 40
3.0
 40
4.0
 40
4.0
 40
4.0
 40
5.0
 40
5.0
 40
5.0
 40
6.0
 40
6.0
 40
6.0
 40
7.0
 40
7.0
 40
7.0
 40
8.0
 40
8.0
 40
8.0
 40
9.0
 40
9.0
 40
9.0
 40
10.0
 40
10.0
 40
10.0
 40
11.0
 40
11.0
 40
11.0
 40
12.0
 40
12.0
 40
12.0
 40
12.0
 10
139.7020649409614
 20
-94.36726099685154
 30
0.0
 10
140.0663003037697
 20
-92.17632508080588
 30
0.0
 10
140.7964281511446
 20
-90.08006605463778
 30
0.0
 10
142.0603701547485
 20
-88.18420828662398
 30
0.0
 10
142.8727464788025
 20
-86.96572665663142
 30
0.0
 10
143.7114158014456
 20
-85.55275416942804
 30
0.0
 10
144.6887309779942
 20
-84.2842274622878
 30
0.0
 10
139.9046756947957
 20
-85.76116484942015
 30
0.0
 10
116.8592490932034
 20
-89.39285766084268
 30
0.0
 10
116.8592490932034
 20
-89.39285766084268
 30
0.0
 10
87.19820576468028
 20
-91.55794247743532
 30
0.0
 10
48.75242856301707
 20
-89.3729169623322
 30
0.0
 10
48.75242856301707
 20
-89.3729169623322
 30
0.0
 10
41.93839912404413
 20
-89.7751556508317
 30
0.0
 10
16.08514541261819
 20
-83.94286037976543
 30
0.0
 10
16.08514541261819
 20
-83.94286037976543
 30
0.0
 10
16.51936655108203
 20
-87.36183399461898
 30
0.0
 10
18.72394610295013
 20
-92.22206164137671
 30
0.0
 10
18.72394610295013
 20
-92.22206164137671
 30
0.0
 10
18.72394610295013
 20
-92.22206164137671
 30
0.0
 10
20.39404864988616
 20
-94.16614165260114
 30
0.0
 10
20.39404864988616
 20
-94.16614165260114
 30
0.0
 10
20.39404864988616
 20
-94.16614165260114
 30
0.0
 10
23.43359661913277
 20
-94.26667370603049
 30
0.0
 10
23.43359661913277
 20
-94.26667370603049
 30
0.0
 10
23.43359661913277
 20
-94.26667370603049
 30
0.0
 10
23.0995761097464
 20
-92.79189057718575
 30
0.0
 10
23.0995761097464
 20
-92.79189057718575
 30
0.0
 10
59.1738463609351
 20
-96.81411175000515
 30
0.0
 10
138.9046579501379
 20
-93.06001287792397
 30
0.0
 10
138.9046579501379
 20
-93.06001287792397
 30
0.0
 10
138.9046579501379
 20
-93.06001287792397
 30
0.0
 10
138.7042566919842
 20
-94.36726099685154
 30
0.0
 10
138.7042566919842
 20
-94.36726099685154
 30
0.0
 10
138.7042566919842
 20
-94.36726099685154
 30
0.0
 10
139.7020649409614
 20
-94.36726099685154
 30
0.0
 10
139.7020649409614
 20
-94.36726099685154
 30
0.0
  0
HATCH
  5
8E
330
1F
100
AcDbEntity
  8
Capa 1
 62
   250
420
  2103317
100
AcDbHatch
 10
0.0
 20
0.0
 30
0.0
210
0.0
220
0.0
230
1.0
  2
SOLID
 70
     1
 71
     0
 91
        1
 92
        1
 93
        1
 72
     4
 94
        3
 73
     0
 74
     1
 95
       41
 96
       37
 40
0.0
 40
0.0
 40
0.0
 40
0.0
 40
1.0
 40
1.0
 40
1.0
 40
2.0
 40
2.0
 40
2.0
 40
3.0
 40
3.0
 40
3.0
 40
4.0
 40
4.0
 40
4.0
 40
5.0
 40
5.0
 40
5.0
 40
6.0
 40
6.0
 40
6.0
 40
7.0
 40
7.0
 40
7.0
 40
8.0
 40
8.0
 40
8.0
 40
9.0
 40
9.0
 40
9.0
 40
10.0
 40
10.0
 40
10.0
 40
11.0
 40
11.0
 40
11.0
 40
12.0
 40
12.0
 40
12.0
 40
12.0
 10
139.7020649409614
 20
-94.36726099685154
 10
140.0663003037697
 20
-92.17632508080588
 10
140.7964281511446
 20
-90.08006605463778
 10
142.0603701547485
 20
-88.18420828662398
 10
142.8727464788025
 20
-86.96572665663142
 10
143.7114158014456
 20
-85.55275416942804
 10
144.6887309779942
 20
-84.2842274622878
 10
139.9046756947957
 20
-85.76116484942015
 10
116.8592490932034
 20
-89.39285766084268
 10
116.8592490932034
 20
-89.39285766084268
 10
87.19820576468028
 20
-91.55794247743532
 10
48.75242856301707
 20
-89.3729169623322
 10
48.75242856301707
 20
-89.3729169623322
 10
41.93839912404413
 20
-89.7751556508317
 10
16.08514541261819
 20
-83.94286037976543
 10
16.08514541261819
 20
-83.94286037976543
 10
16.51936655108203
 20
-87.36183399461898
 10
18.72394610295013
 20
-92.22206164137671
 10
18.72394610295013
 20
-92.22206164137671
 10
18.72394610295013
 20
-92.22206164137671
 10
20.39404864988616
 20
-94.16614165260114
 10
20.39404864988616
 20
-94.16614165260114
 10
20.39404864988616
 20
-94.16614165260114
 10
23.43359661913277
 20
-94.26667370603049
 10
23.43359661913277
 20
-94.26667370603049
 10
23.43359661913277
 20
-94.26667370603049
 10
23.0995761097464
 20
-92.79189057718575
 10
23.0995761097464
 20
-92.79189057718575
 10
59.1738463609351
 20
-96.81411175000515
 10
138.9046579501379
 20
-93.06001287792397
 10
138.9046579501379
 20
-93.06001287792397
 10
138.9046579501379
 20
-93.06001287792397
 10
138.7042566919842
 20
-94.36726099685154
 10
138.7042566919842
 20
-94.36726099685154
 10
138.7042566919842
 20
-94.36726099685154
 10
139.7020649409614
 20
-94.36726099685154
 10
139.7020649409614
 20
-94.36726099685154
 97
        0
 97
        0
 75
     2
 76
     1
 98
        0
  0
SPLINE
  5
8F
330
1F
100
AcDbEntity
  8
Capa 1
 62
   250
420
  2103317
370
    18
100
AcDbSpline
210
0.0
220
0.0
230
1.0
 70
    11
 71
     3
 72
    17
 73
    13
 74
     0
 42
0.0000000001
 43
0.0000000001
 12
1.0
 22
0.0
 32
0.0
 13
1.0
 23
0.0
 33
0.0
 40
0.0
 40
0.0
 40
0.0
 40
0.0
 40
1.0
 40
1.0
 40
1.0
 40
2.0
 40
2.0
 40
2.0
 40
3.0
 40
3.0
 40
3.0
 40
4.0
 40
4.0
 40
4.0
 40
4.0
 10
158.2219186122758
 20
-62.84050922515873
 30
0.0
 10
158.2219186122758
 20
-62.84050922515873
 30
0.0
 10
155.7415223955456
 20
-61.70086772017574
 30
0.0
 10
157.0152393717046
 20
-63.91311299455451
 30
0.0
 10
157.0152393717046
 20
-63.91311299455451
 30
0.0
 10
162.7804846322071
 20
-68.87390542801012
 30
0.0
 10
162.7804846322071
 20
-68.87390542801012
 30
0.0
 10
162.7804846322071
 20
-68.87390542801012
 30
0.0
 10
164.1882770795425
 20
-68.739829956836
 30
0.0
 10
164.3893902863029
 20
-67.60018845185269
 30
0.0
 10
164.3893902863029
 20
-67.60018845185269
 30
0.0
 10
158.2219186122758
 20
-62.84050922515873
 30
0.0
 10
158.2219186122758
 20
-62.84050922515873
 30
0.0
  0
HATCH
  5
90
330
1F
100
AcDbEntity
  8
Capa 1
 62
   250
420
  2103317
100
AcDbHatch
 10
0.0
 20
0.0
 30
0.0
210
0.0
220
0.0
230
1.0
  2
SOLID
 70
     1
 71
     0
 91
        1
 92
        1
 93
        1
 72
     4
 94
        3
 73
     0
 74
     1
 95
       17
 96
       13
 40
0.0
 40
0.0
 40
0.0
 40
0.0
 40
1.0
 40
1.0
 40
1.0
 40
2.0
 40
2.0
 40
2.0
 40
3.0
 40
3.0
 40
3.0
 40
4.0
 40
4.0
 40
4.0
 40
4.0
 10
158.2219186122758
 20
-62.84050922515873
 10
158.2219186122758
 20
-62.84050922515873
 10
155.7415223955456
 20
-61.70086772017574
 10
157.0152393717046
 20
-63.91311299455451
 10
157.0152393717046
 20
-63.91311299455451
 10
162.7804846322071
 20
-68.87390542801012
 10
162.7804846322071
 20
-68.87390542801012
 10
162.7804846322071
 20
-68.87390542801012
 10
164.1882770795425
 20
-68.739829956836
 10
164.3893902863029
 20
-67.60018845185269
 10
164.3893902863029
 20
-67.60018845185269
 10
158.2219186122758
 20
-62.84050922515873
 10
158.2219186122758
 20
-62.84050922515873
 97
        0
 97
        0
 75
     2
 76
     1
 98
        0
  0
SPLINE
  5
91
330
1F
100
AcDbEntity
  8
Capa 1
 62
   250
420
  2103317
370
    18
100
AcDbSpline
210
0.0
220
0.0
230
1.0
 70
    11
 71
     3
 72
    17
 73
    13
 74
     0
 42
0.0000000001
 43
0.0000000001
 12
1.0
 22
0.0
 32
0.0
 13
1.0
 23
0.0
 33
0.0
 40
0.0
 40
0.0
 40
0.0
 40
0.0
 40
1.0
 40
1.0
 40
1.0
 40
2.0
 40
2.0
 40
2.0
 40
3.0
 40
3.0
 40
3.0
 40
4.0
 40
4.0
 40
4.0
 40
4.0
 10
161.104541242528
 20
-59.62269791697107
 30
0.0
 10
161.104541242528
 20
-59.62269791697107
 30
0.0
 10
158.0208054055122
 20
-58.34898094081396
 30
0.0
 10
159.9648997375428
 20
-61.03049036430293
 30
0.0
 10
159.9648997375428
 20
-61.03049036430293
 30
0.0
 10
165.7971827336344
 20
-66.19239600452083
 30
0.0
 10
165.7971827336344
 20
-66.19239600452083
 30
0.0
 10
165.7971827336344
 20
-66.19239600452083
 30
0.0
 10
167.003861974205
 20
-65.25386770629947
 30
0.0
 10
166.8027487674427
 20
-64.3153394080778
 30
0.0
 10
166.8027487674427
 20
-64.3153394080778
 30
0.0
 10
161.104541242528
 20
-59.62269791697107
 30
0.0
 10
161.104541242528
 20
-59.62269791697107
 30
0.0
  0
HATCH
  5
92
330
1F
100
AcDbEntity
  8
Capa 1
 62
   250
420
  2103317
100
AcDbHatch
 10
0.0
 20
0.0
 30
0.0
210
0.0
220
0.0
230
1.0
  2
SOLID
 70
     1
 71
     0
 91
        1
 92
        1
 93
        1
 72
     4
 94
        3
 73
     0
 74
     1
 95
       17
 96
       13
 40
0.0
 40
0.0
 40
0.0
 40
0.0
 40
1.0
 40
1.0
 40
1.0
 40
2.0
 40
2.0
 40
2.0
 40
3.0
 40
3.0
 40
3.0
 40
4.0
 40
4.0
 40
4.0
 40
4.0
 10
161.104541242528
 20
-59.62269791697107
 10
161.104541242528
 20
-59.62269791697107
 10
158.0208054055122
 20
-58.34898094081396
 10
159.9648997375428
 20
-61.03049036430293
 10
159.9648997375428
 20
-61.03049036430293
 10
165.7971827336344
 20
-66.19239600452083
 10
165.7971827336344
 20
-66.19239600452083
 10
165.7971827336344
 20
-66.19239600452083
 10
167.003861974205
 20
-65.25386770629947
 10
166.8027487674427
 20
-64.3153394080778
 10
166.8027487674427
 20
-64.3153394080778
 10
161.104541242528
 20
-59.62269791697107
 10
161.104541242528
 20
-59.62269791697107
 97
        0
 97
        0
 75
     2
 76
     1
 98
        0
  0
SPLINE
  5
93
330
1F
100
AcDbEntity
  8
Capa 1
 62
   250
420
  2103317
370
    18
100
AcDbSpline
210
0.0
220
0.0
230
1.0
 70
    11
 71
     3
 72
    17
 73
    13
 74
     0
 42
0.0000000001
 43
0.0000000001
 12
1.0
 22
0.0
 32
0.0
 13
1.0
 23
0.0
 33
0.0
 40
0.0
 40
0.0
 40
0.0
 40
0.0
 40
1.0
 40
1.0
 40
1.0
 40
2.0
 40
2.0
 40
2.0
 40
3.0
 40
3.0
 40
3.0
 40
4.0
 40
4.0
 40
4.0
 40
4.0
 10
164.3893902863029
 20
-56.4719243443703
 30
0.0
 10
164.3893902863029
 20
-56.4719243443703
 30
0.0
 10
161.0874170583154
 20
-54.2596790699912
 30
0.0
 10
163.0735923502452
 20
-57.94675452728938
 30
0.0
 10
163.0735923502452
 20
-57.94675452728938
 30
0.0
 10
168.5457298927103
 20
-62.75639251354332
 30
0.0
 10
168.5457298927103
 20
-62.75639251354332
 30
0.0
 10
168.5457298927103
 20
-62.75639251354332
 30
0.0
 10
169.8864846044559
 20
-62.37124507604758
 30
0.0
 10
169.8864846044559
 20
-61.23160357106426
 30
0.0
 10
169.8864846044559
 20
-61.23160357106426
 30
0.0
 10
164.3893902863029
 20
-56.4719243443703
 30
0.0
 10
164.3893902863029
 20
-56.4719243443703
 30
0.0
  0
HATCH
  5
94
330
1F
100
AcDbEntity
  8
Capa 1
 62
   250
420
  2103317
100
AcDbHatch
 10
0.0
 20
0.0
 30
0.0
210
0.0
220
0.0
230
1.0
  2
SOLID
 70
     1
 71
     0
 91
        1
 92
        1
 93
        1
 72
     4
 94
        3
 73
     0
 74
     1
 95
       17
 96
       13
 40
0.0
 40
0.0
 40
0.0
 40
0.0
 40
1.0
 40
1.0
 40
1.0
 40
2.0
 40
2.0
 40
2.0
 40
3.0
 40
3.0
 40
3.0
 40
4.0
 40
4.0
 40
4.0
 40
4.0
 10
164.3893902863029
 20
-56.4719243443703
 10
164.3893902863029
 20
-56.4719243443703
 10
161.0874170583154
 20
-54.2596790699912
 10
163.0735923502452
 20
-57.94675452728938
 10
163.0735923502452
 20
-57.94675452728938
 10
168.5457298927103
 20
-62.75639251354332
 10
168.5457298927103
 20
-62.75639251354332
 10
168.5457298927103
 20
-62.75639251354332
 10
169.8864846044559
 20
-62.37124507604758
 10
169.8864846044559
 20
-61.23160357106426
 10
169.8864846044559
 20
-61.23160357106426
 10
164.3893902863029
 20
-56.4719243443703
 10
164.3893902863029
 20
-56.4719243443703
 97
        0
 97
        0
 75
     2
 76
     1
 98
        0
  0
SPLINE
  5
95
330
1F
100
AcDbEntity
  8
Capa 1
370
     0
100
AcDbSpline
210
0.0
220
0.0
230
1.0
 70
    11
 71
     3
 72
    17
 73
    13
 74
     0
 42
0.0000000001
 43
0.0000000001
 12
1.0
 22
0.0
 32
0.0
 13
1.0
 23
0.0
 33
0.0
 40
0.0
 40
0.0
 40
0.0
 40
0.0
 40
1.0
 40
1.0
 40
1.0
 40
2.0
 40
2.0
 40
2.0
 40
3.0
 40
3.0
 40
3.0
 40
4.0
 40
4.0
 40
4.0
 40
4.0
 10
166.8253591279675
 20
-52.9189243582472
 30
0.0
 10
166.8253591279675
 20
-52.9189243582472
 30
0.0
 10
163.5178997236697
 20
-50.77371681945595
 30
0.0
 10
165.5960695268734
 20
-54.32671680557937
 30
0.0
 10
165.5960695268734
 20
-54.32671680557937
 30
0.0
 10
171.0261261094399
 20
-59.32038902256581
 30
0.0
 10
171.0261261094399
 20
-59.32038902256581
 30
0.0
 10
171.0261261094399
 20
-59.32038902256581
 30
0.0
 10
172.2998430855957
 20
-59.0863960322743
 30
0.0
 10
172.4339185567721
 20
-57.94675452729034
 30
0.0
 10
172.4339185567721
 20
-57.94675452729034
 30
0.0
 10
166.8253591279675
 20
-52.9189243582472
 30
0.0
 10
166.8253591279675
 20
-52.9189243582472
 30
0.0
  0
HATCH
  5
96
330
1F
100
AcDbEntity
  8
Capa 1
 62
   250
420
  2103317
100
AcDbHatch
 10
0.0
 20
0.0
 30
0.0
210
0.0
220
0.0
230
1.0
  2
SOLID
 70
     1
 71
     0
 91
        1
 92
        1
 93
        1
 72
     4
 94
        3
 73
     0
 74
     1
 95
       17
 96
       13
 40
0.0
 40
0.0
 40
0.0
 40
0.0
 40
1.0
 40
1.0
 40
1.0
 40
2.0
 40
2.0
 40
2.0
 40
3.0
 40
3.0
 40
3.0
 40
4.0
 40
4.0
 40
4.0
 40
4.0
 10
166.8253591279675
 20
-52.9189243582472
 10
166.8253591279675
 20
-52.9189243582472
 10
163.5178997236697
 20
-50.77371681945595
 10
165.5960695268734
 20
-54.32671680557937
 10
165.5960695268734
 20
-54.32671680557937
 10
171.0261261094399
 20
-59.32038902256581
 10
171.0261261094399
 20
-59.32038902256581
 10
171.0261261094399
 20
-59.32038902256581
 10
172.2998430855957
 20
-59.0863960322743
 10
172.4339185567721
 20
-57.94675452729034
 10
172.4339185567721
 20
-57.94675452729034
 10
166.8253591279675
 20
-52.9189243582472
 10
166.8253591279675
 20
-52.9189243582472
 97
        0
 97
        0
 75
     2
 76
     1
 98
        0
  0
SPLINE
  5
97
330
1F
100
AcDbEntity
  8
Capa 1
370
     0
100
AcDbSpline
210
0.0
220
0.0
230
1.0
 70
    11
 71
     3
 72
    17
 73
    13
 74
     0
 42
0.0000000001
 43
0.0000000001
 12
1.0
 22
0.0
 32
0.0
 13
1.0
 23
0.0
 33
0.0
 40
0.0
 40
0.0
 40
0.0
 40
0.0
 40
1.0
 40
1.0
 40
1.0
 40
2.0
 40
2.0
 40
2.0
 40
3.0
 40
3.0
 40
3.0
 40
4.0
 40
4.0
 40
4.0
 40
4.0
 10
168.6720802676583
 20
-49.23184890094901
 30
0.0
 10
168.6720802676583
 20
-49.23184890094901
 30
0.0
 10
167.1161204308392
 20
-49.49999984329724
 30
0.0
 10
166.8253591279675
 20
-50.90779229062942
 30
0.0
 10
166.8253591279675
 20
-50.90779229062942
 30
0.0
 10
173.4394845905809
 20
-56.74007528671948
 30
0.0
 10
173.4394845905809
 20
-56.74007528671948
 30
0.0
 10
173.4394845905809
 20
-56.74007528671948
 30
0.0
 10
175.0483902446754
 20
-55.86858472408471
 30
0.0
 10
174.6461638311515
 20
-54.5948677479276
 30
0.0
 10
174.6461638311515
 20
-54.5948677479276
 30
0.0
 10
168.6720802676583
 20
-49.23184890094901
 30
0.0
 10
168.6720802676583
 20
-49.23184890094901
 30
0.0
  0
HATCH
  5
98
330
1F
100
AcDbEntity
  8
Capa 1
 62
   250
420
  2103317
100
AcDbHatch
 10
0.0
 20
0.0
 30
0.0
210
0.0
220
0.0
230
1.0
  2
SOLID
 70
     1
 71
     0
 91
        1
 92
        1
 93
        1
 72
     4
 94
        3
 73
     0
 74
     1
 95
       17
 96
       13
 40
0.0
 40
0.0
 40
0.0
 40
0.0
 40
1.0
 40
1.0
 40
1.0
 40
2.0
 40
2.0
 40
2.0
 40
3.0
 40
3.0
 40
3.0
 40
4.0
 40
4.0
 40
4.0
 40
4.0
 10
168.6720802676583
 20
-49.23184890094901
 10
168.6720802676583
 20
-49.23184890094901
 10
167.1161204308392
 20
-49.49999984329724
 10
166.8253591279675
 20
-50.90779229062942
 10
166.8253591279675
 20
-50.90779229062942
 10
173.4394845905809
 20
-56.74007528671948
 10
173.4394845905809
 20
-56.74007528671948
 10
173.4394845905809
 20
-56.74007528671948
 10
175.0483902446754
 20
-55.86858472408471
 10
174.6461638311515
 20
-54.5948677479276
 10
174.6461638311515
 20
-54.5948677479276
 10
168.6720802676583
 20
-49.23184890094901
 10
168.6720802676583
 20
-49.23184890094901
 97
        0
 97
        0
 75
     2
 76
     1
 98
        0
  0
SPLINE
  5
99
330
1F
100
AcDbEntity
  8
Capa 1
370
     0
100
AcDbSpline
210
0.0
220
0.0
230
1.0
 70
    11
 71
     3
 72
    29
 73
    25
 74
     0
 42
0.0000000001
 43
0.0000000001
 12
1.0
 22
0.0
 32
0.0
 13
1.0
 23
0.0
 33
0.0
 40
0.0
 40
0.0
 40
0.0
 40
0.0
 40
1.0
 40
1.0
 40
1.0
 40
2.0
 40
2.0
 40
2.0
 40
3.0
 40
3.0
 40
3.0
 40
4.0
 40
4.0
 40
4.0
 40
5.0
 40
5.0
 40
5.0
 40
6.0
 40
6.0
 40
6.0
 40
7.0
 40
7.0
 40
7.0
 40
8.0
 40
8.0
 40
8.0
 40
8.0
 10
180.2102958848923
 20
-38.1706225290532
 30
0.0
 10
180.2102958848923
 20
-38.1706225290532
 30
0.0
 10
178.7354657019729
 20
-36.02541499026131
 30
0.0
 10
177.2606355190542
 20
-38.57284894257649
 30
0.0
 10
177.2606355190542
 20
-38.57284894257649
 30
0.0
 10
170.7680389078049
 20
-46.01403759276103
 30
0.0
 10
170.7680389078049
 20
-46.01403759276103
 30
0.0
 10
170.7680389078049
 20
-46.01403759276103
 30
0.0
 10
168.9680837876626
 20
-47.42183004009257
 30
0.0
 10
170.7680389078049
 20
-48.69554701625064
 30
0.0
 10
170.7680389078049
 20
-48.69554701625064
 30
0.0
 10
175.0891773696505
 20
-52.98596209383409
 30
0.0
 10
175.0891773696505
 20
-52.98596209383409
 30
0.0
 10
175.0891773696505
 20
-52.98596209383409
 30
0.0
 10
176.3221072208325
 20
-54.1926413344043
 30
0.0
 10
176.9254468411175
 20
-52.71781115148522
 30
0.0
 10
176.9254468411175
 20
-52.71781115148522
 30
0.0
 10
184.5007109624761
 20
-44.06994326073048
 30
0.0
 10
184.5007109624761
 20
-44.06994326073048
 30
0.0
 10
184.5007109624761
 20
-44.06994326073048
 30
0.0
 10
185.7744279386339
 20
-42.59511307781107
 30
0.0
 10
182.3555034236846
 20
-39.71249044755949
 30
0.0
 10
182.3555034236846
 20
-39.71249044755949
 30
0.0
 10
180.2102958848923
 20
-38.1706225290532
 30
0.0
 10
180.2102958848923
 20
-38.1706225290532
 30
0.0
  0
HATCH
  5
9A
330
1F
100
AcDbEntity
  8
Capa 1
 62
   250
420
  2103317
100
AcDbHatch
 10
0.0
 20
0.0
 30
0.0
210
0.0
220
0.0
230
1.0
  2
SOLID
 70
     1
 71
     0
 91
        1
 92
        1
 93
        1
 72
     4
 94
        3
 73
     0
 74
     1
 95
       29
 96
       25
 40
0.0
 40
0.0
 40
0.0
 40
0.0
 40
1.0
 40
1.0
 40
1.0
 40
2.0
 40
2.0
 40
2.0
 40
3.0
 40
3.0
 40
3.0
 40
4.0
 40
4.0
 40
4.0
 40
5.0
 40
5.0
 40
5.0
 40
6.0
 40
6.0
 40
6.0
 40
7.0
 40
7.0
 40
7.0
 40
8.0
 40
8.0
 40
8.0
 40
8.0
 10
180.2102958848923
 20
-38.1706225290532
 10
180.2102958848923
 20
-38.1706225290532
 10
178.7354657019729
 20
-36.02541499026131
 10
177.2606355190542
 20
-38.57284894257649
 10
177.2606355190542
 20
-38.57284894257649
 10
170.7680389078049
 20
-46.01403759276103
 10
170.7680389078049
 20
-46.01403759276103
 10
170.7680389078049
 20
-46.01403759276103
 10
168.9680837876626
 20
-47.42183004009257
 10
170.7680389078049
 20
-48.69554701625064
 10
170.7680389078049
 20
-48.69554701625064
 10
175.0891773696505
 20
-52.98596209383409
 10
175.0891773696505
 20
-52.98596209383409
 10
175.0891773696505
 20
-52.98596209383409
 10
176.3221072208325
 20
-54.1926413344043
 10
176.9254468411175
 20
-52.71781115148522
 10
176.9254468411175
 20
-52.71781115148522
 10
184.5007109624761
 20
-44.06994326073048
 10
184.5007109624761
 20
-44.06994326073048
 10
184.5007109624761
 20
-44.06994326073048
 10
185.7744279386339
 20
-42.59511307781107
 10
182.3555034236846
 20
-39.71249044755949
 10
182.3555034236846
 20
-39.71249044755949
 10
180.2102958848923
 20
-38.1706225290532
 10
180.2102958848923
 20
-38.1706225290532
 97
        0
 97
        0
 75
     2
 76
     1
 98
        0
  0
SPLINE
  5
9B
330
1F
100
AcDbEntity
  8
Capa 1
370
     0
100
AcDbSpline
210
0.0
220
0.0
230
1.0
 70
    11
 71
     3
 72
    17
 73
    13
 74
     0
 42
0.0000000001
 43
0.0000000001
 12
1.0
 22
0.0
 32
0.0
 13
1.0
 23
0.0
 33
0.0
 40
0.0
 40
0.0
 40
0.0
 40
0.0
 40
1.0
 40
1.0
 40
1.0
 40
2.0
 40
2.0
 40
2.0
 40
3.0
 40
3.0
 40
3.0
 40
4.0
 40
4.0
 40
4.0
 40
4.0
 10
175.8109444869789
 20
-76.25643605955568
 30
0.0
 10
175.8109444869789
 20
-76.25643605955568
 30
0.0
 10
180.7633572034872
 20
-81.73677094381286
 30
0.0
 10
180.7633572034872
 20
-81.73677094381286
 30
0.0
 10
180.7633572034872
 20
-81.73677094381286
 30
0.0
 10
182.2214279525082
 20
-81.66135349127772
 30
0.0
 10
182.146010499974
 20
-80.5552308540877
 30
0.0
 10
182.146010499974
 20
-80.5552308540877
 30
0.0
 10
177.2690152360018
 20
-75.40170493081835
 30
0.0
 10
177.2690152360018
 20
-75.40170493081835
 30
0.0
 10
177.2690152360018
 20
-75.40170493081835
 30
0.0
 10
175.8360836378242
 20
-74.89892191391391
 30
0.0
 10
175.8109444869789
 20
-76.25643605955568
 30
0.0
  0
HATCH
  5
9C
330
1F
100
AcDbEntity
  8
Capa 1
 62
   250
420
  2103317
100
AcDbHatch
 10
0.0
 20
0.0
 30
0.0
210
0.0
220
0.0
230
1.0
  2
SOLID
 70
     1
 71
     0
 91
        1
 92
        1
 93
        1
 72
     4
 94
        3
 73
     0
 74
     1
 95
       17
 96
       13
 40
0.0
 40
0.0
 40
0.0
 40
0.0
 40
1.0
 40
1.0
 40
1.0
 40
2.0
 40
2.0
 40
2.0
 40
3.0
 40
3.0
 40
3.0
 40
4.0
 40
4.0
 40
4.0
 40
4.0
 10
175.8109444869789
 20
-76.25643605955568
 10
175.8109444869789
 20
-76.25643605955568
 10
180.7633572034872
 20
-81.73677094381286
 10
180.7633572034872
 20
-81.73677094381286
 10
180.7633572034872
 20
-81.73677094381286
 10
182.2214279525082
 20
-81.66135349127772
 10
182.146010499974
 20
-80.5552308540877
 10
182.146010499974
 20
-80.5552308540877
 10
177.2690152360018
 20
-75.40170493081835
 10
177.2690152360018
 20
-75.40170493081835
 10
177.2690152360018
 20
-75.40170493081835
 10
175.8360836378242
 20
-74.89892191391391
 10
175.8109444869789
 20
-76.25643605955568
 97
        0
 97
        0
 75
     2
 76
     1
 98
        0
  0
SPLINE
  5
9D
330
1F
100
AcDbEntity
  8
Capa 1
370
     0
100
AcDbSpline
210
0.0
220
0.0
230
1.0
 70
    11
 71
     3
 72
    17
 73
    13
 74
     0
 42
0.0000000001
 43
0.0000000001
 12
1.0
 22
0.0
 32
0.0
 13
1.0
 23
0.0
 33
0.0
 40
0.0
 40
0.0
 40
0.0
 40
0.0
 40
1.0
 40
1.0
 40
1.0
 40
2.0
 40
2.0
 40
2.0
 40
3.0
 40
3.0
 40
3.0
 40
4.0
 40
4.0
 40
4.0
 40
4.0
 10
180.4114090916546
 20
-72.62801862089648
 30
0.0
 10
180.4114090916546
 20
-72.62801862089648
 30
0.0
 10
178.0176379991645
 20
-71.35430164473745
 30
0.0
 10
178.9798914708543
 20
-73.96877333264048
 30
0.0
 10
178.9798914708543
 20
-73.96877333264048
 30
0.0
 10
183.0929185151427
 20
-78.05807520346325
 30
0.0
 10
183.0929185151427
 20
-78.05807520346325
 30
0.0
 10
183.0929185151427
 20
-78.05807520346325
 30
0.0
 10
185.9036370169328
 20
-79.66698085755708
 30
0.0
 10
184.7329098405936
 20
-76.58324502054384
 30
0.0
 10
184.7329098405936
 20
-76.58324502054384
 30
0.0
 10
180.4114090916546
 20
-72.62801862089648
 30
0.0
 10
180.4114090916546
 20
-72.62801862089648
 30
0.0
  0
HATCH
  5
9E
330
1F
100
AcDbEntity
  8
Capa 1
 62
   250
420
  2103317
100
AcDbHatch
 10
0.0
 20
0.0
 30
0.0
210
0.0
220
0.0
230
1.0
  2
SOLID
 70
     1
 71
     0
 91
        1
 92
        1
 93
        1
 72
     4
 94
        3
 73
     0
 74
     1
 95
       17
 96
       13
 40
0.0
 40
0.0
 40
0.0
 40
0.0
 40
1.0
 40
1.0
 40
1.0
 40
2.0
 40
2.0
 40
2.0
 40
3.0
 40
3.0
 40
3.0
 40
4.0
 40
4.0
 40
4.0
 40
4.0
 10
180.4114090916546
 20
-72.62801862089648
 10
180.4114090916546
 20
-72.62801862089648
 10
178.0176379991645
 20
-71.35430164473745
 10
178.9798914708543
 20
-73.96877333264048
 10
178.9798914708543
 20
-73.96877333264048
 10
183.0929185151427
 20
-78.05807520346325
 10
183.0929185151427
 20
-78.05807520346325
 10
183.0929185151427
 20
-78.05807520346325
 10
185.9036370169328
 20
-79.66698085755708
 10
184.7329098405936
 20
-76.58324502054384
 10
184.7329098405936
 20
-76.58324502054384
 10
180.4114090916546
 20
-72.62801862089648
 10
180.4114090916546
 20
-72.62801862089648
 97
        0
 97
        0
 75
     2
 76
     1
 98
        0
  0
SPLINE
  5
9F
330
1F
100
AcDbEntity
  8
Capa 1
370
     0
100
AcDbSpline
210
0.0
220
0.0
230
1.0
 70
    11
 71
     3
 72
    17
 73
    13
 74
     0
 42
0.0000000001
 43
0.0000000001
 12
1.0
 22
0.0
 32
0.0
 13
1.0
 23
0.0
 33
0.0
 40
0.0
 40
0.0
 40
0.0
 40
0.0
 40
1.0
 40
1.0
 40
1.0
 40
2.0
 40
2.0
 40
2.0
 40
3.0
 40
3.0
 40
3.0
 40
4.0
 40
4.0
 40
4.0
 40
4.0
 10
184.232560020126
 20
-70.01354693299409
 30
0.0
 10
184.232560020126
 20
-70.01354693299409
 30
0.0
 10
180.4114090916527
 20
-67.26499977391725
 30
0.0
 10
182.6236543660328
 20
-71.48837711591348
 30
0.0
 10
182.6236543660328
 20
-71.48837711591348
 30
0.0
 10
186.9140694436159
 20
-75.39770313955597
 30
0.0
 10
186.9140694436159
 20
-75.39770313955597
 30
0.0
 10
186.9140694436159
 20
-75.39770313955597
 30
0.0
 10
189.9307675450413
 20
-77.32066011200354
 30
0.0
 10
188.5229750977097
 20
-74.16988653940246
 30
0.0
 10
188.5229750977097
 20
-74.16988653940246
 30
0.0
 10
184.232560020126
 20
-70.01354693299409
 30
0.0
 10
184.232560020126
 20
-70.01354693299409
 30
0.0
  0
HATCH
  5
A0
330
1F
100
AcDbEntity
  8
Capa 1
 62
   250
420
  2103317
100
AcDbHatch
 10
0.0
 20
0.0
 30
0.0
210
0.0
220
0.0
230
1.0
  2
SOLID
 70
     1
 71
     0
 91
        1
 92
        1
 93
        1
 72
     4
 94
        3
 73
     0
 74
     1
 95
       17
 96
       13
 40
0.0
 40
0.0
 40
0.0
 40
0.0
 40
1.0
 40
1.0
 40
1.0
 40
2.0
 40
2.0
 40
2.0
 40
3.0
 40
3.0
 40
3.0
 40
4.0
 40
4.0
 40
4.0
 40
4.0
 10
184.232560020126
 20
-70.01354693299409
 10
184.232560020126
 20
-70.01354693299409
 10
180.4114090916527
 20
-67.26499977391725
 10
182.6236543660328
 20
-71.48837711591348
 10
182.6236543660328
 20
-71.48837711591348
 10
186.9140694436159
 20
-75.39770313955597
 10
186.9140694436159
 20
-75.39770313955597
 10
186.9140694436159
 20
-75.39770313955597
 10
189.9307675450413
 20
-77.32066011200354
 10
188.5229750977097
 20
-74.16988653940246
 10
188.5229750977097
 20
-74.16988653940246
 10
184.232560020126
 20
-70.01354693299409
 10
184.232560020126
 20
-70.01354693299409
 97
        0
 97
        0
 75
     2
 76
     1
 98
        0
  0
SPLINE
  5
A1
330
1F
100
AcDbEntity
  8
Capa 1
370
     0
100
AcDbSpline
210
0.0
220
0.0
230
1.0
 70
    11
 71
     3
 72
    17
 73
    13
 74
     0
 42
0.0000000001
 43
0.0000000001
 12
1.0
 22
0.0
 32
0.0
 13
1.0
 23
0.0
 33
0.0
 40
0.0
 40
0.0
 40
0.0
 40
0.0
 40
1.0
 40
1.0
 40
1.0
 40
2.0
 40
2.0
 40
2.0
 40
3.0
 40
3.0
 40
3.0
 40
4.0
 40
4.0
 40
4.0
 40
4.0
 10
186.9140694436159
 20
-66.66166015363102
 30
0.0
 10
186.9140694436159
 20
-66.66166015363102
 30
0.0
 10
184.1187917085442
 20
-64.85164129277554
 30
0.0
 10
185.4158739726989
 20
-68.06945260096353
 30
0.0
 10
185.4158739726989
 20
-68.06945260096353
 30
0.0
 10
190.0648430162163
 20
-73.23135824118079
 30
0.0
 10
190.0648430162163
 20
-73.23135824118079
 30
0.0
 10
190.0648430162163
 20
-73.23135824118079
 30
0.0
 10
192.4782014973574
 20
-74.84026389527526
 30
0.0
 10
191.8748618770725
 20
-71.95764126502368
 30
0.0
 10
191.8748618770725
 20
-71.95764126502368
 30
0.0
 10
186.9140694436159
 20
-66.66166015363102
 30
0.0
 10
186.9140694436159
 20
-66.66166015363102
 30
0.0
  0
HATCH
  5
A2
330
1F
100
AcDbEntity
  8
Capa 1
 62
   250
420
  2103317
100
AcDbHatch
 10
0.0
 20
0.0
 30
0.0
210
0.0
220
0.0
230
1.0
  2
SOLID
 70
     1
 71
     0
 91
        1
 92
        1
 93
        1
 72
     4
 94
        3
 73
     0
 74
     1
 95
       17
 96
       13
 40
0.0
 40
0.0
 40
0.0
 40
0.0
 40
1.0
 40
1.0
 40
1.0
 40
2.0
 40
2.0
 40
2.0
 40
3.0
 40
3.0
 40
3.0
 40
4.0
 40
4.0
 40
4.0
 40
4.0
 10
186.9140694436159
 20
-66.66166015363102
 10
186.9140694436159
 20
-66.66166015363102
 10
184.1187917085442
 20
-64.85164129277554
 10
185.4158739726989
 20
-68.06945260096353
 10
185.4158739726989
 20
-68.06945260096353
 10
190.0648430162163
 20
-73.23135824118079
 10
190.0648430162163
 20
-73.23135824118079
 10
190.0648430162163
 20
-73.23135824118079
 10
192.4782014973574
 20
-74.84026389527526
 10
191.8748618770725
 20
-71.95764126502368
 10
191.8748618770725
 20
-71.95764126502368
 10
186.9140694436159
 20
-66.66166015363102
 10
186.9140694436159
 20
-66.66166015363102
 97
        0
 97
        0
 75
     2
 76
     1
 98
        0
  0
SPLINE
  5
A3
330
1F
100
AcDbEntity
  8
Capa 1
370
     0
100
AcDbSpline
210
0.0
220
0.0
230
1.0
 70
    11
 71
     3
 72
    17
 73
    13
 74
     0
 42
0.0000000001
 43
0.0000000001
 12
1.0
 22
0.0
 32
0.0
 13
1.0
 23
0.0
 33
0.0
 40
0.0
 40
0.0
 40
0.0
 40
0.0
 40
1.0
 40
1.0
 40
1.0
 40
2.0
 40
2.0
 40
2.0
 40
3.0
 40
3.0
 40
3.0
 40
4.0
 40
4.0
 40
4.0
 40
4.0
 10
190.4000316941531
 20
-64.3153394080778
 30
0.0
 10
190.4000316941531
 20
-64.3153394080778
 30
0.0
 10
186.590094528608
 20
-61.94369097271444
 30
0.0
 10
188.8972895249042
 20
-65.71046801050524
 30
0.0
 10
188.8972895249042
 20
-65.71046801050524
 30
0.0
 10
192.5452392329453
 20
-69.91667674693662
 30
0.0
 10
192.5452392329453
 20
-69.91667674693662
 30
0.0
 10
192.5452392329453
 20
-69.91667674693662
 30
0.0
 10
195.4278618631956
 20
-72.5609808853083
 30
0.0
 10
194.0200694158647
 20
-68.87390542801012
 30
0.0
 10
194.0200694158647
 20
-68.87390542801012
 30
0.0
 10
190.4000316941531
 20
-64.3153394080778
 30
0.0
 10
190.4000316941531
 20
-64.3153394080778
 30
0.0
  0
HATCH
  5
A4
330
1F
100
AcDbEntity
  8
Capa 1
 62
   250
420
  2103317
100
AcDbHatch
 10
0.0
 20
0.0
 30
0.0
210
0.0
220
0.0
230
1.0
  2
SOLID
 70
     1
 71
     0
 91
        1
 92
        1
 93
        1
 72
     4
 94
        3
 73
     0
 74
     1
 95
       17
 96
       13
 40
0.0
 40
0.0
 40
0.0
 40
0.0
 40
1.0
 40
1.0
 40
1.0
 40
2.0
 40
2.0
 40
2.0
 40
3.0
 40
3.0
 40
3.0
 40
4.0
 40
4.0
 40
4.0
 40
4.0
 10
190.4000316941531
 20
-64.3153394080778
 10
190.4000316941531
 20
-64.3153394080778
 10
186.590094528608
 20
-61.94369097271444
 10
188.8972895249042
 20
-65.71046801050524
 10
188.8972895249042
 20
-65.71046801050524
 10
192.5452392329453
 20
-69.91667674693662
 10
192.5452392329453
 20
-69.91667674693662
 10
192.5452392329453
 20
-69.91667674693662
 10
195.4278618631956
 20
-72.5609808853083
 10
194.0200694158647
 20
-68.87390542801012
 10
194.0200694158647
 20
-68.87390542801012
 10
190.4000316941531
 20
-64.3153394080778
 10
190.4000316941531
 20
-64.3153394080778
 97
        0
 97
        0
 75
     2
 76
     1
 98
        0
  0
SPLINE
  5
A5
330
1F
100
AcDbEntity
  8
Capa 1
370
     0
100
AcDbSpline
210
0.0
220
0.0
230
1.0
 70
    11
 71
     3
 72
    29
 73
    25
 74
     0
 42
0.0000000001
 43
0.0000000001
 12
1.0
 22
0.0
 32
0.0
 13
1.0
 23
0.0
 33
0.0
 40
0.0
 40
0.0
 40
0.0
 40
0.0
 40
1.0
 40
1.0
 40
1.0
 40
2.0
 40
2.0
 40
2.0
 40
3.0
 40
3.0
 40
3.0
 40
4.0
 40
4.0
 40
4.0
 40
5.0
 40
5.0
 40
5.0
 40
6.0
 40
6.0
 40
6.0
 40
7.0
 40
7.0
 40
7.0
 40
8.0
 40
8.0
 40
8.0
 40
8.0
 10
202.5338618354444
 20
-53.4508420866338
 30
0.0
 10
202.5338618354444
 20
-53.4508420866338
 30
0.0
 10
201.2601448592872
 20
-51.43532586270651
 30
0.0
 10
199.4501259984311
 20
-53.4508420866338
 30
0.0
 10
199.4501259984311
 20
-53.4508420866338
 30
0.0
 10
191.9716941618092
 20
-60.49418847960456
 30
0.0
 10
191.9716941618092
 20
-60.49418847960456
 30
0.0
 10
191.9716941618092
 20
-60.49418847960456
 30
0.0
 10
189.9233189077537
 20
-61.76790545576263
 30
0.0
 10
191.9716941618092
 20
-63.17569790309513
 30
0.0
 10
191.9716941618092
 20
-63.17569790309513
 30
0.0
 10
195.2267486564352
 20
-67.2066299977045
 30
0.0
 10
195.2267486564352
 20
-67.2066299977045
 30
0.0
 10
195.2267486564352
 20
-67.2066299977045
 30
0.0
 10
196.7015788393559
 20
-68.89124134676032
 30
0.0
 10
198.0423335510996
 20
-67.2066299977045
 30
0.0
 10
198.0423335510996
 20
-67.2066299977045
 30
0.0
 10
205.9527863503937
 20
-59.32038902256581
 30
0.0
 10
205.9527863503937
 20
-59.32038902256581
 30
0.0
 10
205.9527863503937
 20
-59.32038902256581
 30
0.0
 10
207.5616920044868
 20
-58.34898094081396
 30
0.0
 10
205.6175976724563
 20
-56.74007528671948
 30
0.0
 10
205.6175976724563
 20
-56.74007528671948
 30
0.0
 10
202.5338618354444
 20
-53.4508420866338
 30
0.0
 10
202.5338618354444
 20
-53.4508420866338
 30
0.0
  0
HATCH
  5
A6
330
1F
100
AcDbEntity
  8
Capa 1
 62
   250
420
  2103317
100
AcDbHatch
 10
0.0
 20
0.0
 30
0.0
210
0.0
220
0.0
230
1.0
  2
SOLID
 70
     1
 71
     0
 91
        1
 92
        1
 93
        1
 72
     4
 94
        3
 73
     0
 74
     1
 95
       29
 96
       25
 40
0.0
 40
0.0
 40
0.0
 40
0.0
 40
1.0
 40
1.0
 40
1.0
 40
2.0
 40
2.0
 40
2.0
 40
3.0
 40
3.0
 40
3.0
 40
4.0
 40
4.0
 40
4.0
 40
5.0
 40
5.0
 40
5.0
 40
6.0
 40
6.0
 40
6.0
 40
7.0
 40
7.0
 40
7.0
 40
8.0
 40
8.0
 40
8.0
 40
8.0
 10
202.5338618354444
 20
-53.4508420866338
 10
202.5338618354444
 20
-53.4508420866338
 10
201.2601448592872
 20
-51.43532586270651
 10
199.4501259984311
 20
-53.4508420866338
 10
199.4501259984311
 20
-53.4508420866338
 10
191.9716941618092
 20
-60.49418847960456
 10
191.9716941618092
 20
-60.49418847960456
 10
191.9716941618092
 20
-60.49418847960456
 10
189.9233189077537
 20
-61.76790545576263
 10
191.9716941618092
 20
-63.17569790309513
 10
191.9716941618092
 20
-63.17569790309513
 10
195.2267486564352
 20
-67.2066299977045
 10
195.2267486564352
 20
-67.2066299977045
 10
195.2267486564352
 20
-67.2066299977045
 10
196.7015788393559
 20
-68.89124134676032
 10
198.0423335510996
 20
-67.2066299977045
 10
198.0423335510996
 20
-67.2066299977045
 10
205.9527863503937
 20
-59.32038902256581
 10
205.9527863503937
 20
-59.32038902256581
 10
205.9527863503937
 20
-59.32038902256581
 10
207.5616920044868
 20
-58.34898094081396
 10
205.6175976724563
 20
-56.74007528671948
 10
205.6175976724563
 20
-56.74007528671948
 10
202.5338618354444
 20
-53.4508420866338
 10
202.5338618354444
 20
-53.4508420866338
 97
        0
 97
        0
 75
     2
 76
     1
 98
        0
  0
SPLINE
  5
A7
330
1F
100
AcDbEntity
  8
Capa 1
370
     0
100
AcDbSpline
210
0.0
220
0.0
230
1.0
 70
    11
 71
     3
 72
    20
 73
    16
 74
     0
 42
0.0000000001
 43
0.0000000001
 12
1.0
 22
0.0
 32
0.0
 13
1.0
 23
0.0
 33
0.0
 40
0.0
 40
0.0
 40
0.0
 40
0.0
 40
1.0
 40
1.0
 40
1.0
 40
2.0
 40
2.0
 40
2.0
 40
3.0
 40
3.0
 40
3.0
 40
4.0
 40
4.0
 40
4.0
 40
5.0
 40
5.0
 40
5.0
 40
5.0
 10
162.9815978389694
 20
-128.2693391583088
 30
0.0
 10
162.9815978389694
 20
-128.2693391583088
 30
0.0
 10
164.3893902863016
 20
-131.9564146156066
 30
0.0
 10
165.7301449980459
 20
-128.2693391583088
 30
0.0
 10
165.7301449980459
 20
-128.2693391583088
 30
0.0
 10
165.7301449980459
 20
-124.3811504942483
 30
0.0
 10
162.110107276335
 20
-124.7833769077716
 30
0.0
 10
162.110107276335
 20
-124.7833769077716
 30
0.0
 10
158.0238436870989
 20
-126.4008859447044
 30
0.0
 10
145.7528997930491
 20
-126.3252448262779
 30
0.0
 10
145.7528997930491
 20
-126.3252448262779
 30
0.0
 10
143.2725035763201
 20
-127.9341504803724
 30
0.0
 10
145.7528997930491
 20
-129.0737919853551
 30
0.0
 10
145.7528997930491
 20
-129.0737919853551
 30
0.0
 10
162.6653873263941
 20
-127.6174487593211
 30
0.0
 10
162.9815978389694
 20
-128.2693391583088
 30
0.0
  0
HATCH
  5
A8
330
1F
100
AcDbEntity
  8
Capa 1
 62
   250
420
  2103317
100
AcDbHatch
 10
0.0
 20
0.0
 30
0.0
210
0.0
220
0.0
230
1.0
  2
SOLID
 70
     1
 71
     0
 91
        1
 92
        1
 93
        1
 72
     4
 94
        3
 73
     0
 74
     1
 95
       20
 96
       16
 40
0.0
 40
0.0
 40
0.0
 40
0.0
 40
1.0
 40
1.0
 40
1.0
 40
2.0
 40
2.0
 40
2.0
 40
3.0
 40
3.0
 40
3.0
 40
4.0
 40
4.0
 40
4.0
 40
5.0
 40
5.0
 40
5.0
 40
5.0
 10
162.9815978389694
 20
-128.2693391583088
 10
162.9815978389694
 20
-128.2693391583088
 10
164.3893902863016
 20
-131.9564146156066
 10
165.7301449980459
 20
-128.2693391583088
 10
165.7301449980459
 20
-128.2693391583088
 10
165.7301449980459
 20
-124.3811504942483
 10
162.110107276335
 20
-124.7833769077716
 10
162.110107276335
 20
-124.7833769077716
 10
158.0238436870989
 20
-126.4008859447044
 10
145.7528997930491
 20
-126.3252448262779
 10
145.7528997930491
 20
-126.3252448262779
 10
143.2725035763201
 20
-127.9341504803724
 10
145.7528997930491
 20
-129.0737919853551
 10
145.7528997930491
 20
-129.0737919853551
 10
162.6653873263941
 20
-127.6174487593211
 10
162.9815978389694
 20
-128.2693391583088
 97
        0
 97
        0
 75
     2
 76
     1
 98
        0
  0
SPLINE
  5
A9
330
1F
100
AcDbEntity
  8
Capa 1
370
     0
100
AcDbSpline
210
0.0
220
0.0
230
1.0
 70
    11
 71
     3
 72
    17
 73
    13
 74
     0
 42
0.0000000001
 43
0.0000000001
 12
1.0
 22
0.0
 32
0.0
 13
1.0
 23
0.0
 33
0.0
 40
0.0
 40
0.0
 40
0.0
 40
0.0
 40
1.0
 40
1.0
 40
1.0
 40
2.0
 40
2.0
 40
2.0
 40
3.0
 40
3.0
 40
3.0
 40
4.0
 40
4.0
 40
4.0
 40
4.0
 10
155.8755978667219
 20
-133.0290183850027
 30
0.0
 10
155.8755978667219
 20
-133.0290183850027
 30
0.0
 10
169.8194468688693
 20
-133.0290183850027
 30
0.0
 10
169.8194468688693
 20
-133.0290183850027
 30
0.0
 10
169.8194468688693
 20
-133.0290183850027
 30
0.0
 10
175.9198808073086
 20
-134.3697730967487
 30
0.0
 10
169.8194468688693
 20
-135.7775655440799
 30
0.0
 10
169.8194468688693
 20
-135.7775655440799
 30
0.0
 10
155.8755978667219
 20
-135.7775655440799
 30
0.0
 10
155.8755978667219
 20
-135.7775655440799
 30
0.0
 10
155.8755978667219
 20
-135.7775655440799
 30
0.0
 10
151.5181450535497
 20
-134.4368108323349
 30
0.0
 10
155.8755978667219
 20
-133.0290183850027
 30
0.0
  0
HATCH
  5
AA
330
1F
100
AcDbEntity
  8
Capa 1
 62
   250
420
  2103317
100
AcDbHatch
 10
0.0
 20
0.0
 30
0.0
210
0.0
220
0.0
230
1.0
  2
SOLID
 70
     1
 71
     0
 91
        1
 92
        1
 93
        1
 72
     4
 94
        3
 73
     0
 74
     1
 95
       17
 96
       13
 40
0.0
 40
0.0
 40
0.0
 40
0.0
 40
1.0
 40
1.0
 40
1.0
 40
2.0
 40
2.0
 40
2.0
 40
3.0
 40
3.0
 40
3.0
 40
4.0
 40
4.0
 40
4.0
 40
4.0
 10
155.8755978667219
 20
-133.0290183850027
 10
155.8755978667219
 20
-133.0290183850027
 10
169.8194468688693
 20
-133.0290183850027
 10
169.8194468688693
 20
-133.0290183850027
 10
169.8194468688693
 20
-133.0290183850027
 10
175.9198808073086
 20
-134.3697730967487
 10
169.8194468688693
 20
-135.7775655440799
 10
169.8194468688693
 20
-135.7775655440799
 10
155.8755978667219
 20
-135.7775655440799
 10
155.8755978667219
 20
-135.7775655440799
 10
155.8755978667219
 20
-135.7775655440799
 10
151.5181450535497
 20
-134.4368108323349
 10
155.8755978667219
 20
-133.0290183850027
 97
        0
 97
        0
 75
     2
 76
     1
 98
        0
  0
SPLINE
  5
AB
330
1F
100
AcDbEntity
  8
Capa 1
370
     0
100
AcDbSpline
210
0.0
220
0.0
230
1.0
 70
    11
 71
     3
 72
    17
 73
    13
 74
     0
 42
0.0000000001
 43
0.0000000001
 12
1.0
 22
0.0
 32
0.0
 13
1.0
 23
0.0
 33
0.0
 40
0.0
 40
0.0
 40
0.0
 40
0.0
 40
1.0
 40
1.0
 40
1.0
 40
2.0
 40
2.0
 40
2.0
 40
3.0
 40
3.0
 40
3.0
 40
4.0
 40
4.0
 40
4.0
 40
4.0
 10
169.8864846044559
 20
-126.5933957686274
 30
0.0
 10
169.8864846044559
 20
-126.5933957686274
 30
0.0
 10
169.8864846044559
 20
-129.1408297209426
 30
0.0
 10
169.8864846044559
 20
-129.1408297209426
 30
0.0
 10
169.8864846044559
 20
-129.1408297209426
 30
0.0
 10
180.2773336204789
 20
-129.1408297209426
 30
0.0
 10
180.2773336204789
 20
-129.1408297209426
 30
0.0
 10
180.2773336204789
 20
-129.1408297209426
 30
0.0
 10
186.1766543521559
 20
-127.8671127447855
 30
0.0
 10
180.2773336204789
 20
-126.9285844465632
 30
0.0
 10
180.2773336204789
 20
-126.9285844465632
 30
0.0
 10
169.8864846044559
 20
-126.5933957686274
 30
0.0
 10
169.8864846044559
 20
-126.5933957686274
 30
0.0
  0
HATCH
  5
AC
330
1F
100
AcDbEntity
  8
Capa 1
 62
   250
420
  2103317
100
AcDbHatch
 10
0.0
 20
0.0
 30
0.0
210
0.0
220
0.0
230
1.0
  2
SOLID
 70
     1
 71
     0
 91
        1
 92
        1
 93
        1
 72
     4
 94
        3
 73
     0
 74
     1
 95
       17
 96
       13
 40
0.0
 40
0.0
 40
0.0
 40
0.0
 40
1.0
 40
1.0
 40
1.0
 40
2.0
 40
2.0
 40
2.0
 40
3.0
 40
3.0
 40
3.0
 40
4.0
 40
4.0
 40
4.0
 40
4.0
 10
169.8864846044559
 20
-126.5933957686274
 10
169.8864846044559
 20
-126.5933957686274
 10
169.8864846044559
 20
-129.1408297209426
 10
169.8864846044559
 20
-129.1408297209426
 10
169.8864846044559
 20
-129.1408297209426
 10
180.2773336204789
 20
-129.1408297209426
 10
180.2773336204789
 20
-129.1408297209426
 10
180.2773336204789
 20
-129.1408297209426
 10
186.1766543521559
 20
-127.8671127447855
 10
180.2773336204789
 20
-126.9285844465632
 10
180.2773336204789
 20
-126.9285844465632
 10
169.8864846044559
 20
-126.5933957686274
 10
169.8864846044559
 20
-126.5933957686274
 97
        0
 97
        0
 75
     2
 76
     1
 98
        0
  0
SPLINE
  5
AD
330
1F
100
AcDbEntity
  8
Capa 1
370
     0
100
AcDbSpline
210
0.0
220
0.0
230
1.0
 70
    11
 71
     3
 72
    41
 73
    37
 74
     0
 42
0.0000000001
 43
0.0000000001
 12
1.0
 22
0.0
 32
0.0
 13
1.0
 23
0.0
 33
0.0
 40
0.0
 40
0.0
 40
0.0
 40
0.0
 40
1.0
 40
1.0
 40
1.0
 40
2.0
 40
2.0
 40
2.0
 40
3.0
 40
3.0
 40
3.0
 40
4.0
 40
4.0
 40
4.0
 40
5.0
 40
5.0
 40
5.0
 40
6.0
 40
6.0
 40
6.0
 40
7.0
 40
7.0
 40
7.0
 40
8.0
 40
8.0
 40
8.0
 40
9.0
 40
9.0
 40
9.0
 40
10.0
 40
10.0
 40
10.0
 40
11.0
 40
11.0
 40
11.0
 40
12.0
 40
12.0
 40
12.0
 40
12.0
 10
169.886482558627
 20
-124.7541957096218
 30
0.0
 10
169.886482558627
 20
-124.7541957096218
 30
0.0
 10
175.9198695552475
 20
-126.5933937227981
 30
0.0
 10
173.0372510166551
 20
-119.4873932390931
 30
0.0
 10
173.0372510166551
 20
-119.4873932390931
 30
0.0
 10
171.4283515000487
 20
-116.8058802354019
 30
0.0
 10
167.0038640200352
 20
-116.671805275685
 30
0.0
 10
167.0038640200352
 20
-116.671805275685
 30
0.0
 10
159.2945193129285
 20
-117.4762688433358
 30
0.0
 10
160.0989690712316
 20
-123.3755808802384
 30
0.0
 10
160.0989690712316
 20
-123.3755808802384
 30
0.0
 10
161.3726880932183
 20
-123.9118807191072
 30
0.0
 10
162.1101072763362
 20
-121.6996369791002
 30
0.0
 10
162.8475264594554
 20
-119.4873932390931
 30
0.0
 10
166.9287687856191
 20
-118.5661163967229
 30
0.0
 10
166.9287687856191
 20
-118.5661163967229
 30
0.0
 10
167.406351276798
 20
-118.5360534461304
 30
0.0
 10
168.1130860886642
 20
-118.5535498900446
 30
0.0
 10
168.9104102233995
 20
-118.810113766508
 30
0.0
 10
170.3700583068379
 20
-119.2797973106322
 30
0.0
 10
171.2253817031676
 20
-120.2585348500238
 30
0.0
 10
171.5624402691145
 20
-120.6940816858958
 30
0.0
 10
171.7535616454126
 20
-121.1245881097479
 30
0.0
 10
171.9827139660992
 20
-121.8370952290766
 30
0.0
 10
171.8305901885482
 20
-122.6381755064681
 30
0.0
 10
171.7717623660749
 20
-122.9479191820739
 30
0.0
 10
171.7000366125712
 20
-123.3256738965723
 30
0.0
 10
171.4069193919553
 20
-123.4939546112817
 30
0.0
 10
171.1545949853274
 20
-123.6388284811335
 30
0.0
 10
170.9330101873431
 20
-123.5202476098704
 30
0.0
 10
170.5051965863507
 20
-123.6444074577252
 30
0.0
 10
170.3258960119389
 20
-123.696441080983
 30
0.0
 10
170.1232576394087
 20
-123.7928717580564
 30
0.0
 10
169.886482558627
 20
-123.9789251036398
 30
0.0
 10
169.886482558627
 20
-123.9789251036398
 30
0.0
 10
169.886482558627
 20
-124.7541957096218
 30
0.0
 10
169.886482558627
 20
-124.7541957096218
 30
0.0
  0
HATCH
  5
AE
330
1F
100
AcDbEntity
  8
Capa 1
 62
   250
420
  2103317
100
AcDbHatch
 10
0.0
 20
0.0
 30
0.0
210
0.0
220
0.0
230
1.0
  2
SOLID
 70
     1
 71
     0
 91
        1
 92
        1
 93
        1
 72
     4
 94
        3
 73
     0
 74
     1
 95
       41
 96
       37
 40
0.0
 40
0.0
 40
0.0
 40
0.0
 40
1.0
 40
1.0
 40
1.0
 40
2.0
 40
2.0
 40
2.0
 40
3.0
 40
3.0
 40
3.0
 40
4.0
 40
4.0
 40
4.0
 40
5.0
 40
5.0
 40
5.0
 40
6.0
 40
6.0
 40
6.0
 40
7.0
 40
7.0
 40
7.0
 40
8.0
 40
8.0
 40
8.0
 40
9.0
 40
9.0
 40
9.0
 40
10.0
 40
10.0
 40
10.0
 40
11.0
 40
11.0
 40
11.0
 40
12.0
 40
12.0
 40
12.0
 40
12.0
 10
169.886482558627
 20
-124.7541957096218
 10
169.886482558627
 20
-124.7541957096218
 10
175.9198695552475
 20
-126.5933937227981
 10
173.0372510166551
 20
-119.4873932390931
 10
173.0372510166551
 20
-119.4873932390931
 10
171.4283515000487
 20
-116.8058802354019
 10
167.0038640200352
 20
-116.671805275685
 10
167.0038640200352
 20
-116.671805275685
 10
159.2945193129285
 20
-117.4762688433358
 10
160.0989690712316
 20
-123.3755808802384
 10
160.0989690712316
 20
-123.3755808802384
 10
161.3726880932183
 20
-123.9118807191072
 10
162.1101072763362
 20
-121.6996369791002
 10
162.8475264594554
 20
-119.4873932390931
 10
166.9287687856191
 20
-118.5661163967229
 10
166.9287687856191
 20
-118.5661163967229
 10
167.406351276798
 20
-118.5360534461304
 10
168.1130860886642
 20
-118.5535498900446
 10
168.9104102233995
 20
-118.810113766508
 10
170.3700583068379
 20
-119.2797973106322
 10
171.2253817031676
 20
-120.2585348500238
 10
171.5624402691145
 20
-120.6940816858958
 10
171.7535616454126
 20
-121.1245881097479
 10
171.9827139660992
 20
-121.8370952290766
 10
171.8305901885482
 20
-122.6381755064681
 10
171.7717623660749
 20
-122.9479191820739
 10
171.7000366125712
 20
-123.3256738965723
 10
171.4069193919553
 20
-123.4939546112817
 10
171.1545949853274
 20
-123.6388284811335
 10
170.9330101873431
 20
-123.5202476098704
 10
170.5051965863507
 20
-123.6444074577252
 10
170.3258960119389
 20
-123.696441080983
 10
170.1232576394087
 20
-123.7928717580564
 10
169.886482558627
 20
-123.9789251036398
 10
169.886482558627
 20
-123.9789251036398
 10
169.886482558627
 20
-124.7541957096218
 10
169.886482558627
 20
-124.7541957096218
 97
        0
 97
        0
 75
     2
 76
     1
 98
        0
  0
ENDSEC
  0
SECTION
  2
OBJECTS
  0
DICTIONARY
  5
C
330
0
100
AcDbDictionary
281
     1
  3
ACAD_GROUP
350
D
  3
ACAD_IMAGE_DICT
350
42
  3
ACAD_IMAGE_VARS
350
44
  3
ACAD_LAYOUT
350
1A
  3
ACAD_MATERIAL
350
3B
  3
ACAD_MLEADERSTYLE
350
B0
  3
ACAD_MLINESTYLE
350
17
  3
ACAD_PLOTSETTINGS
350
19
  3
ACAD_PLOTSTYLENAME
350
E
  3
ACAD_TABLESTYLE
350
AF
  3
ACAD_VISUALSTYLE
350
2A
  0
SUN
  5
3F
330
29
100
AcDbSun
 90
        1
290
     0
 63
     7
421
 16777215
 40
1.0
291
     1
 91
  2455826
 92
 54000000
292
     0
 70
     2
 71
   256
280
     1
  0
IMAGEDEF_REACTOR
  5
46
330
45
100
AcDbRasterImageDefReactor
 90
        2
330
45
  0
IMAGEDEF_REACTOR
  5
84
330
83
100
AcDbRasterImageDefReactor
 90
        2
330
83
  0
DICTIONARY
  5
D
102
{ACAD_REACTORS
330
C
102
}
330
C
100
AcDbDictionary
281
     1
  0
DICTIONARY
  5
42
102
{ACAD_REACTORS
330
C
102
}
330
C
100
AcDbDictionary
281
     1
  3
C:\Users\gatib\Desktop\Logos\dekighjds\delightfood_1.png
350
43
  3
C:\Users\gatib\Desktop\Logos\dekighjds\delightfood_2.png
350
82
  0
RASTERVARIABLES
  5
44
102
{ACAD_REACTORS
330
C
102
}
330
C
100
AcDbRasterVariables
 90
        0
 70
     0
 71
     1
 72
     0
  0
DICTIONARY
  5
1A
102
{ACAD_REACTORS
330
C
102
}
330
C
100
AcDbDictionary
281
     1
  3
Layout1
350
1E
  3
Layout2
350
26
  3
Model
350
22
  0
DICTIONARY
  5
3B
102
{ACAD_REACTORS
330
C
102
}
330
C
100
AcDbDictionary
281
     1
  3
ByBlock
350
3D
  3
ByLayer
350
3C
  3
Global
350
3E
  0
DICTIONARY
  5
B0
102
{ACAD_REACTORS
330
C
102
}
330
C
100
AcDbDictionary
281
     1
  0
DICTIONARY
  5
17
102
{ACAD_REACTORS
330
C
102
}
330
C
100
AcDbDictionary
281
     1
  3
Standard
350
18
  0
DICTIONARY
  5
19
102
{ACAD_REACTORS
330
C
102
}
330
C
100
AcDbDictionary
281
     1
  0
ACDBDICTIONARYWDFLT
  5
E
102
{ACAD_REACTORS
330
C
102
}
330
C
100
AcDbDictionary
281
     1
  3
Normal
350
F
100
AcDbDictionaryWithDefault
340
F
  0
DICTIONARY
  5
AF
102
{ACAD_REACTORS
330
C
102
}
330
C
100
AcDbDictionary
281
     1
  0
DICTIONARY
  5
2A
102
{ACAD_REACTORS
330
C
102
}
330
C
100
AcDbDictionary
281
     1
  3
2dWireframe
350
2F
  3
3D Hidden
350
31
  3
3dWireframe
350
30
  3
Basic
350
32
  3
Brighten
350
36
  3
ColorChange
350
3A
  3
Conceptual
350
34
  3
Dim
350
35
  3
Facepattern
350
39
  3
Flat
350
2B
  3
FlatWithEdges
350
2C
  3
Gouraud
350
2D
  3
GouraudWithEdges
350
2E
  3
Linepattern
350
38
  3
Realistic
350
33
  3
Thicken
350
37
  0
IMAGEDEF
  5
43
102
{ACAD_REACTORS
330
42
330
46
102
}
330
42
100
AcDbRasterImageDef
 90
        0
  1
C:\Users\gatib\Desktop\Logos\dekighjds\delightfood_1.png
 10
328.0
 20
280.0
 11
0.3527777777777777
 21
0.3527777777777777
280
     1
281
     5
  0
IMAGEDEF
  5
82
102
{ACAD_REACTORS
330
42
330
84
102
}
330
42
100
AcDbRasterImageDef
 90
        0
  1
C:\Users\gatib\Desktop\Logos\dekighjds\delightfood_2.png
 10
1024.0
 20
1024.0
 11
0.3527777777777777
 21
0.3527777777777777
280
     1
281
     5
  0
LAYOUT
  5
1E
102
{ACAD_REACTORS
330
1A
102
}
330
1A
100
AcDbPlotSettings
  1

  2
none_device
  4

  6

 40
0.0
 41
0.0
 42
0.0
 43
0.0
 44
0.0
 45
0.0
 46
0.0
 47
0.0
 48
0.0
 49
0.0
140
0.0
141
0.0
142
1.0
143
1.0
 70
   688
 72
     0
 73
     0
 74
     5
  7

 75
    16
 76
     0
 77
     2
 78
   300
147
1.0
148
0.0
149
0.0
100
AcDbLayout
  1
Layout1
 70
     1
 71
     1
 10
0.0
 20
0.0
 11
12.0
 21
9.0
 12
0.0
 22
0.0
 32
0.0
 14
1.000000000000000E+20
 24
1.000000000000000E+20
 34
1.000000000000000E+20
 15
-1.000000000000000E+20
 25
-1.000000000000000E+20
 35
-1.000000000000000E+20
146
0.0
 13
0.0
 23
0.0
 33
0.0
 16
1.0
 26
0.0
 36
0.0
 17
0.0
 27
1.0
 37
0.0
 76
     0
330
1B
  0
LAYOUT
  5
26
102
{ACAD_REACTORS
330
1A
102
}
330
1A
100
AcDbPlotSettings
  1

  2
none_device
  4

  6

 40
0.0
 41
0.0
 42
0.0
 43
0.0
 44
0.0
 45
0.0
 46
0.0
 47
0.0
 48
0.0
 49
0.0
140
0.0
141
0.0
142
1.0
143
1.0
 70
   688
 72
     0
 73
     0
 74
     5
  7

 75
    16
 76
     0
 77
     2
 78
   300
147
1.0
148
0.0
149
0.0
100
AcDbLayout
  1
Layout2
 70
     1
 71
     2
 10
0.0
 20
0.0
 11
0.0
 21
0.0
 12
0.0
 22
0.0
 32
0.0
 14
0.0
 24
0.0
 34
0.0
 15
0.0
 25
0.0
 35
0.0
146
0.0
 13
0.0
 23
0.0
 33
0.0
 16
1.0
 26
0.0
 36
0.0
 17
0.0
 27
1.0
 37
0.0
 76
     0
330
23
  0
LAYOUT
  5
22
102
{ACAD_REACTORS
330
1A
102
}
330
1A
100
AcDbPlotSettings
  1

  2
none_device
  4

  6

 40
0.0
 41
0.0
 42
0.0
 43
0.0
 44
0.0
 45
0.0
 46
0.0
 47
0.0
 48
0.0
 49
0.0
140
0.0
141
0.0
142
1.0
143
1.0
 70
  1712
 72
     0
 73
     0
 74
     0
  7

 75
     0
 76
     0
 77
     2
 78
   300
147
1.0
148
0.0
149
0.0
100
AcDbLayout
  1
Model
 70
     1
 71
     0
 10
0.0
 20
0.0
 11
12.0
 21
9.0
 12
0.0
 22
0.0
 32
0.0
 14
1.000000000000000E+20
 24
1.000000000000000E+20
 34
1.000000000000000E+20
 15
-1.000000000000000E+20
 25
-1.000000000000000E+20
 35
-1.000000000000000E+20
146
0.0
 13
0.0
 23
0.0
 33
0.0
 16
1.0
 26
0.0
 36
0.0
 17
0.0
 27
1.0
 37
0.0
 76
     0
330
1F
331
29
  0
MATERIAL
  5
3D
102
{ACAD_REACTORS
330
3B
102
}
330
3B
100
AcDbMaterial
  1
ByBlock
 72
     1
 94
      127
  0
MATERIAL
  5
3C
102
{ACAD_REACTORS
330
3B
102
}
330
3B
100
AcDbMaterial
  1
ByLayer
 72
     1
 94
      127
  0
MATERIAL
  5
3E
102
{ACAD_REACTORS
330
3B
102
}
330
3B
100
AcDbMaterial
  1
Global
 72
     1
 94
      127
  0
MLINESTYLE
  5
18
102
{ACAD_REACTORS
330
17
102
}
330
17
100
AcDbMlineStyle
  2
Standard
 70
     0
  3

 62
   256
 51
90.0
 52
90.0
 71
     2
 49
0.5
 62
   256
  6
BYLAYER
 49
-0.5
 62
   256
  6
BYLAYER
  0
ACDBPLACEHOLDER
  5
F
102
{ACAD_REACTORS
330
E
102
}
330
E
  0
VISUALSTYLE
  5
2F
102
{ACAD_REACTORS
330
2A
102
}
330
2A
100
AcDbVisualStyle
  2
2dWireframe
 70
     4
177
     2
291
     0
 71
     0
176
     1
 72
     2
176
     1
 73
     0
176
     1
 90
        0
176
     1
 40
-0.6
176
     1
 41
-30.0
176
     1
 62
     5
 63
     7
421
 16777215
176
     1
 74
     1
176
     1
 91
        4
176
     1
 64
     7
176
     1
 65
   257
176
     1
 75
     1
176
     1
175
     1
176
     1
 42
1.0
176
     1
 92
        0
176
     1
 66
   257
176
     1
 43
1.0
176
     1
 76
     1
176
     1
 77
     6
176
     1
 78
     2
176
     1
 67
     7
176
     1
 79
     5
176
     1
170
     0
176
     1
171
     0
176
     1
290
     0
176
     1
 93
        1
176
     1
 44
0.0
176
     1
173
     0
176
     1
  0
VISUALSTYLE
  5
31
102
{ACAD_REACTORS
330
2A
102
}
330
2A
100
AcDbVisualStyle
  2
3D Hidden
 70
     6
177
     2
291
     0
 71
     1
176
     1
 72
     2
176
     1
 73
     2
176
     1
 90
        0
176
     1
 40
-0.6
176
     1
 41
-30.0
176
     1
 62
     5
 63
     7
421
 16777215
176
     1
 74
     2
176
     1
 91
        2
176
     1
 64
     7
176
     1
 65
   257
176
     1
 75
     2
176
     1
175
     1
176
     1
 42
40.0
176
     1
 92
        0
176
     1
 66
   257
176
     1
 43
1.0
176
     1
 76
     1
176
     1
 77
     6
176
     1
 78
     2
176
     1
 67
     7
176
     1
 79
     3
176
     1
170
     0
176
     1
171
     0
176
     1
290
     0
176
     1
 93
        1
176
     1
 44
0.0
176
     1
173
     0
176
     1
  0
VISUALSTYLE
  5
30
102
{ACAD_REACTORS
330
2A
102
}
330
2A
100
AcDbVisualStyle
  2
3dWireframe
 70
     5
177
     2
291
     0
 71
     0
176
     1
 72
     2
176
     1
 73
     0
176
     1
 90
        0
176
     1
 40
-0.6
176
     1
 41
-30.0
176
     1
 62
     5
 63
     7
421
 16777215
176
     1
 74
     1
176
     1
 91
        4
176
     1
 64
     7
176
     1
 65
   257
176
     1
 75
     1
176
     1
175
     1
176
     1
 42
1.0
176
     1
 92
        0
176
     1
 66
   257
176
     1
 43
1.0
176
     1
 76
     1
176
     1
 77
     6
176
     1
 78
     2
176
     1
 67
     7
176
     1
 79
     5
176
     1
170
     0
176
     1
171
     0
176
     1
290
     0
176
     1
 93
        1
176
     1
 44
0.0
176
     1
173
     0
176
     1
  0
VISUALSTYLE
  5
32
102
{ACAD_REACTORS
330
2A
102
}
330
2A
100
AcDbVisualStyle
  2
Basic
 70
     7
177
     2
291
     1
 71
     1
176
     1
 72
     0
176
     1
 73
     1
176
     1
 90
        0
176
     1
 40
-0.6
176
     1
 41
-30.0
176
     1
 62
     5
 63
     7
421
 16777215
176
     1
 74
     0
176
     1
 91
        4
176
     1
 64
     7
176
     1
 65
   257
176
     1
 75
     1
176
     1
175
     1
176
     1
 42
1.0
176
     1
 92
        8
176
     1
 66
     7
176
     1
 43
1.0
176
     1
 76
     1
176
     1
 77
     6
176
     1
 78
     2
176
     1
 67
     7
176
     1
 79
     5
176
     1
170
     0
176
     1
171
     0
176
     1
290
     0
176
     1
 93
        1
176
     1
 44
0.0
176
     1
173
     0
176
     1
  0
VISUALSTYLE
  5
36
102
{ACAD_REACTORS
330
2A
102
}
330
2A
100
AcDbVisualStyle
  2
Brighten
 70
    12
177
     2
291
     1
 71
     2
176
     1
 72
     2
176
     1
 73
     0
176
     1
 90
        0
176
     1
 40
-0.6
176
     1
 41
-30.0
176
     1
 62
     5
 63
     7
421
 16777215
176
     1
 74
     1
176
     1
 91
        4
176
     1
 64
     7
176
     1
 65
   257
176
     1
 75
     1
176
     1
175
     1
176
     1
 42
1.0
176
     1
 92
        8
176
     1
 66
     7
176
     1
 43
1.0
176
     1
 76
     1
176
     1
 77
     6
176
     1
 78
     2
176
     1
 67
     7
176
     1
 79
     5
176
     1
170
     0
176
     1
171
     0
176
     1
290
     0
176
     1
 93
        1
176
     1
 44
50.0
176
     1
173
     0
176
     1
  0
VISUALSTYLE
  5
3A
102
{ACAD_REACTORS
330
2A
102
}
330
2A
100
AcDbVisualStyle
  2
ColorChange
 70
    16
177
     2
291
     1
 71
     2
176
     1
 72
     2
176
     1
 73
     3
176
     1
 90
        0
176
     1
 40
-0.6
176
     1
 41
-30.0
176
     1
 62
     5
 63
     8
421
  8421504
176
     1
 74
     1
176
     1
 91
        4
176
     1
 64
     7
176
     1
 65
   257
176
     1
 75
     1
176
     1
175
     1
176
     1
 42
1.0
176
     1
 92
        8
176
     1
 66
     8
424
  8421504
176
     1
 43
1.0
176
     1
 76
     1
176
     1
 77
     6
176
     1
 78
     2
176
     1
 67
     7
176
     1
 79
     5
176
     1
170
     0
176
     1
171
     0
176
     1
290
     0
176
     1
 93
        1
176
     1
 44
0.0
176
     1
173
     0
176
     1
  0
VISUALSTYLE
  5
34
102
{ACAD_REACTORS
330
2A
102
}
330
2A
100
AcDbVisualStyle
  2
Conceptual
 70
     9
177
     2
291
     0
 71
     3
176
     1
 72
     2
176
     1
 73
     0
176
     1
 90
        0
176
     1
 40
-0.6
176
     1
 41
-30.0
176
     1
 62
     5
 63
     7
421
 16777215
176
     1
 74
     2
176
     1
 91
        2
176
     1
 64
     7
176
     1
 65
   257
176
     1
 75
     1
176
     1
175
     1
176
     1
 42
40.0
176
     1
 92
        8
176
     1
 66
     7
176
     1
 43
1.0
176
     1
 76
     1
176
     1
 77
     6
176
     1
 78
     2
176
     1
 67
     7
176
     1
 79
     3
176
     1
170
     0
176
     1
171
     0
176
     1
290
     0
176
     1
 93
        1
176
     1
 44
0.0
176
     1
173
     0
176
     1
  0
VISUALSTYLE
  5
35
102
{ACAD_REACTORS
330
2A
102
}
330
2A
100
AcDbVisualStyle
  2
Dim
 70
    11
177
     2
291
     1
 71
     2
176
     1
 72
     2
176
     1
 73
     0
176
     1
 90
        0
176
     1
 40
-0.6
176
     1
 41
-30.0
176
     1
 62
     5
 63
     7
421
 16777215
176
     1
 74
     1
176
     1
 91
        4
176
     1
 64
     7
176
     1
 65
   257
176
     1
 75
     1
176
     1
175
     1
176
     1
 42
1.0
176
     1
 92
        8
176
     1
 66
     7
176
     1
 43
1.0
176
     1
 76
     1
176
     1
 77
     6
176
     1
 78
     2
176
     1
 67
     7
176
     1
 79
     5
176
     1
170
     0
176
     1
171
     0
176
     1
290
     0
176
     1
 93
        1
176
     1
 44
-50.0
176
     1
173
     0
176
     1
  0
VISUALSTYLE
  5
39
102
{ACAD_REACTORS
330
2A
102
}
330
2A
100
AcDbVisualStyle
  2
Facepattern
 70
    15
177
     2
291
     1
 71
     2
176
     1
 72
     2
176
     1
 73
     0
176
     1
 90
        0
176
     1
 40
-0.6
176
     1
 41
-30.0
176
     1
 62
     5
 63
     7
421
 16777215
176
     1
 74
     1
176
     1
 91
        4
176
     1
 64
     7
176
     1
 65
   257
176
     1
 75
     1
176
     1
175
     1
176
     1
 42
1.0
176
     1
 92
        8
176
     1
 66
     7
176
     1
 43
1.0
176
     1
 76
     1
176
     1
 77
     6
176
     1
 78
     2
176
     1
 67
     7
176
     1
 79
     5
176
     1
170
     0
176
     1
171
     0
176
     1
290
     0
176
     1
 93
        1
176
     1
 44
0.0
176
     1
173
     0
176
     1
  0
VISUALSTYLE
  5
2B
102
{ACAD_REACTORS
330
2A
102
}
330
2A
100
AcDbVisualStyle
  2
Flat
 70
     0
177
     2
291
     1
 71
     2
176
     1
 72
     1
176
     1
 73
     1
176
     1
 90
        2
176
     1
 40
-0.6
176
     1
 41
30.0
176
     1
 62
     5
 63
     7
421
 16777215
176
     1
 74
     0
176
     1
 91
        4
176
     1
 64
     7
176
     1
 65
   257
176
     1
 75
     1
176
     1
175
     1
176
     1
 42
1.0
176
     1
 92
        8
176
     1
 66
     7
176
     1
 43
1.0
176
     1
 76
     1
176
     1
 77
     6
176
     1
 78
     2
176
     1
 67
     7
176
     1
 79
     5
176
     1
170
     0
176
     1
171
     0
176
     1
290
     0
176
     1
 93
       13
176
     1
 44
0.0
176
     1
173
     0
176
     1
  0
VISUALSTYLE
  5
2C
102
{ACAD_REACTORS
330
2A
102
}
330
2A
100
AcDbVisualStyle
  2
FlatWithEdges
 70
     1
177
     2
291
     1
 71
     2
176
     1
 72
     1
176
     1
 73
     1
176
     1
 90
        2
176
     1
 40
-0.6
176
     1
 41
30.0
176
     1
 62
     5
 63
     7
421
 16777215
176
     1
 74
     1
176
     1
 91
        4
176
     1
 64
     7
176
     1
 65
   257
176
     1
 75
     1
176
     1
175
     1
176
     1
 42
1.0
176
     1
 92
        0
176
     1
 66
   257
176
     1
 43
1.0
176
     1
 76
     1
176
     1
 77
     6
176
     1
 78
     2
176
     1
 67
     7
176
     1
 79
     5
176
     1
170
     0
176
     1
171
     0
176
     1
290
     0
176
     1
 93
       13
176
     1
 44
0.0
176
     1
173
     0
176
     1
  0
VISUALSTYLE
  5
2D
102
{ACAD_REACTORS
330
2A
102
}
330
2A
100
AcDbVisualStyle
  2
Gouraud
 70
     2
177
     2
291
     1
 71
     2
176
     1
 72
     2
176
     1
 73
     1
176
     1
 90
        2
176
     1
 40
-0.6
176
     1
 41
30.0
176
     1
 62
     5
 63
     7
421
 16777215
176
     1
 74
     0
176
     1
 91
        4
176
     1
 64
     7
176
     1
 65
   257
176
     1
 75
     1
176
     1
175
     1
176
     1
 42
1.0
176
     1
 92
        0
176
     1
 66
     7
176
     1
 43
1.0
176
     1
 76
     1
176
     1
 77
     6
176
     1
 78
     2
176
     1
 67
     7
176
     1
 79
     5
176
     1
170
     0
176
     1
171
     0
176
     1
290
     0
176
     1
 93
       13
176
     1
 44
0.0
176
     1
173
     0
176
     1
  0
VISUALSTYLE
  5
2E
102
{ACAD_REACTORS
330
2A
102
}
330
2A
100
AcDbVisualStyle
  2
GouraudWithEdges
 70
     3
177
     2
291
     1
 71
     2
176
     1
 72
     2
176
     1
 73
     1
176
     1
 90
        2
176
     1
 40
-0.6
176
     1
 41
30.0
176
     1
 62
     5
 63
     7
421
 16777215
176
     1
 74
     1
176
     1
 91
        4
176
     1
 64
     7
176
     1
 65
   257
176
     1
 75
     1
176
     1
175
     1
176
     1
 42
1.0
176
     1
 92
        0
176
     1
 66
   257
176
     1
 43
1.0
176
     1
 76
     1
176
     1
 77
     6
176
     1
 78
     2
176
     1
 67
     7
176
     1
 79
     5
176
     1
170
     0
176
     1
171
     0
176
     1
290
     0
176
     1
 93
       13
176
     1
 44
0.0
176
     1
173
     0
176
     1
  0
VISUALSTYLE
  5
38
102
{ACAD_REACTORS
330
2A
102
}
330
2A
100
AcDbVisualStyle
  2
Linepattern
 70
    14
177
     2
291
     1
 71
     2
176
     1
 72
     2
176
     1
 73
     0
176
     1
 90
        0
176
     1
 40
-0.6
176
     1
 41
-30.0
176
     1
 62
     5
 63
     7
421
 16777215
176
     1
 74
     1
176
     1
 91
        4
176
     1
 64
     7
176
     1
 65
   257
176
     1
 75
     7
176
     1
175
     7
176
     1
 42
1.0
176
     1
 92
        8
176
     1
 66
     7
176
     1
 43
1.0
176
     1
 76
     1
176
     1
 77
     6
176
     1
 78
     2
176
     1
 67
     7
176
     1
 79
     5
176
     1
170
     0
176
     1
171
     0
176
     1
290
     0
176
     1
 93
        1
176
     1
 44
0.0
176
     1
173
     0
176
     1
  0
VISUALSTYLE
  5
33
102
{ACAD_REACTORS
330
2A
102
}
330
2A
100
AcDbVisualStyle
  2
Realistic
 70
     8
177
     2
291
     0
 71
     2
176
     1
 72
     2
176
     1
 73
     0
176
     1
 90
        0
176
     1
 40
-0.6
176
     1
 41
-30.0
176
     1
 62
     5
 63
     7
421
 16777215
176
     1
 74
     1
176
     1
 91
        0
176
     1
 64
     7
176
     1
 65
   257
176
     1
 75
     1
176
     1
175
     1
176
     1
 42
1.0
176
     1
 92
        8
176
     1
 66
     8
424
  7895160
176
     1
 43
1.0
176
     1
 76
     1
176
     1
 77
     6
176
     1
 78
     2
176
     1
 67
     7
176
     1
 79
     5
176
     1
170
     0
176
     1
171
     0
176
     1
290
     0
176
     1
 93
       13
176
     1
 44
0.0
176
     1
173
     0
176
     1
  0
VISUALSTYLE
  5
37
102
{ACAD_REACTORS
330
2A
102
}
330
2A
100
AcDbVisualStyle
  2
Thicken
 70
    13
177
     2
291
     1
 71
     2
176
     1
 72
     2
176
     1
 73
     0
176
     1
 90
        0
176
     1
 40
-0.6
176
     1
 41
-30.0
176
     1
 62
     5
 63
     7
421
 16777215
176
     1
 74
     1
176
     1
 91
        4
176
     1
 64
     7
176
     1
 65
   257
176
     1
 75
     1
176
     1
175
     1
176
     1
 42
1.0
176
     1
 92
       12
176
     1
 66
     7
176
     1
 43
1.0
176
     1
 76
     1
176
     1
 77
     6
176
     1
 78
     2
176
     1
 67
     7
176
     1
 79
     5
176
     1
170
     0
176
     1
171
     0
176
     1
290
     0
176
     1
 93
        1
176
     1
 44
0.0
176
     1
173
     0
176
     1
  0
ENDSEC
  0
EOF
